{
.appVersion = "1357";
classes = (
{
code = "space nbspace i l j t v y I T one seven period comma colon semicolon ellipsis exclam exclamdown question questiondown periodcentered bullet asterisk numbersign slash backslash parenleft parenright braceleft braceright bracketleft bracketright hyphen softhyphen endash emdash underscore quotesinglbase quotedblbase quotedblleft quotedblright quoteleft quoteright guillemetleft guillemetright guilsinglleft guilsinglright quotedbl quotesingle zeroinferior oneinferior twoinferior threeinferior fourinferior fiveinferior sixinferior seveninferior eightinferior nineinferior zero.dnom one.dnom two.dnom three.dnom four.dnom five.dnom six.dnom seven.dnom eight.dnom nine.dnom zero.numr one.numr two.numr three.numr four.numr five.numr six.numr seven.numr eight.numr nine.numr zerosuperior onesuperior twosuperior threesuperior foursuperior fivesuperior sixsuperior sevensuperior eightsuperior ninesuperior ordfeminine ordmasculine ";
name = Caltopen;
},
{
automatic = 1;

glyphs = (
{
glyphname = A;
lastChange = "2022-05-06 15:57:35 +0000";
layers = (
{
anchors = (
{
name = bottom;
position = "{557, 0}";
},
{
name = ogonek;
position = "{1116, 0}";
},
{
name = top;
position = "{721, 1454}";
}
);
layerId = "0D9D1AFE-BAFC-449A-A530-9FCA9CDF2E2E";
paths = (
{
closed = 1;
nodes = (
"88 0 LINE",
"605 1151 LINE",
"709 1377 LINE",
"708 1377 LINE",
"755 1151 LINE",
"888 467 LINE",
"933 508 LINE",
"262 508 LINE",
"186 392 LINE",
"958 392 LINE",
"893 446 LINE",
"984 0 LINE",
"1116 0 LINE",
"817 1454 LINE",
"614 1454 LINE",
"-44 0 LINE"
);
}
);
width = 1200;
},
{
anchors = (
{
name = bottom;
position = "{598, 0}";
},
{
name = ogonek;
position = "{1165, 0}";
},
{
name = top;
position = "{727, 1454}";
}
);
layerId = "09AB1441-CF14-483D-884E-606841830E4D";
paths = (
{
closed = 1;
nodes = (
"183 0 LINE",
"584 951 LINE",
"710 1284 LINE",
"718 1284 LINE",
"764 951 LINE",
"853 435 LINE",
"936 533 LINE",
"374 533 LINE",
"276 343 LINE",
"971 343 LINE",
"854 432 LINE",
"930 0 LINE",
"1165 0 LINE",
"880 1454 LINE",
"592 1454 LINE",
"-53 0 LINE"
);
}
);
width = 1200;
},
{
anchors = (
{
name = bottom;
position = "{550, 0}";
},
{
name = ogonek;
position = "{1151, 0}";
},
{
name = top;
position = "{716, 1454}";
}
);
layerId = "BF6BC6F6-4B2A-4E9B-9E28-8B62B2F12FD9";
paths = (
{
closed = 1;
nodes = (
"263 0 LINE",
"581 947 LINE",
"683 1244 LINE",
"703 1244 LINE",
"731 947 LINE",
"767 474 LINE",
"891 590 LINE",
"322 590 LINE",
"282 338 LINE",
"929 338 LINE",
"768 470 LINE",
"817 0 LINE",
"1151 0 LINE",
"967 1454 LINE",
"471 1454 LINE",
"-71 0 LINE"
);
}
);
width = 1200;
},
{
anchors = (
{
name = bottom;
position = "{583, 0}";
},
{
name = ogonek;
position = "{1147, 0}";
},
{
name = top;
position = "{725, 1454}";
}
);
layerId = "099DAB3F-15EF-4A0D-A0EC-988B8C582406";
paths = (
{
closed = 1;
nodes = (
"147 0 LINE",
"592 1026 LINE",
"710 1319 LINE",
"714 1319 LINE",
"761 1026 LINE",
"866 447 LINE",
"935 524 LINE",
"332 524 LINE",
"242 361 LINE",
"966 361 LINE",
"869 437 LINE",
"950 0 LINE",
"1147 0 LINE",
"856 1454 LINE",
"600 1454 LINE",
"-50 0 LINE"
);
}
);
width = 1200;
}
);
unicode = 0041;
userData = {
KernOnName = A;
};
},
{
glyphname = AE;
lastChange = "2022-05-06 15:57:35 +0000";
layers = (
{
anchors = (
{
name = top;
position = "{816, 1454}";
}
);
layerId = "0D9D1AFE-BAFC-449A-A530-9FCA9CDF2E2E";
paths = (
{
closed = 1;
nodes = (
"9 0 LINE",
"594 1141 LINE",
"706 1366 LINE",
"717 1366 LINE",
"724 1427 LINE",
"725 1454 LINE",
"630 1454 LINE",
"-125 0 LINE"
);
},
{
closed = 1;
nodes = (
"1169 0 LINE",
"1184 119 LINE",
"630 119 LINE",
"670 58 LINE",
"753 729 LINE",
"709 702 LINE",
"1165 702 LINE",
"1179 818 LINE",
"715 818 LINE",
"760 789 LINE",
"833 1387 LINE",
"779 1336 LINE",
"1289 1336 LINE",
"1304 1454 LINE",
"725 1454 LINE",
"546 0 LINE"
);
},
{
closed = 1;
nodes = (
"635 392 LINE",
"650 510 LINE",
"182 510 LINE",
"118 392 LINE"
);
}
);
width = 1200;
},
{
anchors = (
{
name = top;
position = "{867, 1454}";
}
);
layerId = "09AB1441-CF14-483D-884E-606841830E4D";
paths = (
{
closed = 1;
nodes = (
"83 0 LINE",
"626 1141 LINE",
"692 1287 LINE",
"709 1287 LINE",
"749 1427 LINE",
"722 1454 LINE",
"585 1454 LINE",
"-130 0 LINE"
);
},
{
closed = 1;
nodes = (
"1153 0 LINE",
"1179 212 LINE",
"687 212 LINE",
"746 98 LINE",
"824 729 LINE",
"764 651 LINE",
"1164 651 LINE",
"1189 858 LINE",
"766 858 LINE",
"831 789 LINE",
"901 1357 LINE",
"814 1244 LINE",
"1293 1244 LINE",
"1319 1454 LINE",
"722 1454 LINE",
"543 0 LINE"
);
},
{
closed = 1;
nodes = (
"632 372 LINE",
"656 570 LINE",
"234 570 LINE",
"145 372 LINE"
);
}
);
width = 1200;
},
{
anchors = (
{
name = top;
position = "{906, 1454}";
}
);
layerId = "BF6BC6F6-4B2A-4E9B-9E28-8B62B2F12FD9";
paths = (
{
closed = 1;
nodes = (
"153 0 LINE",
"645 1069 LINE",
"698 1211 LINE",
"702 1211 LINE",
"819 1427 LINE",
"736 1454 LINE",
"558 1454 LINE",
"-117 0 LINE"
);
},
{
closed = 1;
nodes = (
"1118 0 LINE",
"1153 289 LINE",
"772 289 LINE",
"824 214 LINE",
"879 663 LINE",
"801 601 LINE",
"1136 601 LINE",
"1171 887 LINE",
"846 887 LINE",
"899 824 LINE",
"951 1241 LINE",
"881 1167 LINE",
"1261 1167 LINE",
"1297 1454 LINE",
"736 1454 LINE",
"548 0 LINE"
);
},
{
closed = 1;
nodes = (
"608 357 LINE",
"640 616 LINE",
"258 616 LINE",
"116 357 LINE"
);
}
);
width = 1200;
},
{
anchors = (
{
name = top;
position = "{848, 1454}";
}
);
layerId = "099DAB3F-15EF-4A0D-A0EC-988B8C582406";
paths = (
{
closed = 1;
nodes = (
"55 0 LINE",
"614 1141 LINE",
"697 1317 LINE",
"712 1317 LINE",
"740 1427 LINE",
"723 1454 LINE",
"602 1454 LINE",
"-128 0 LINE"
);
},
{
closed = 1;
nodes = (
"1159 0 LINE",
"1181 177 LINE",
"666 177 LINE",
"718 83 LINE",
"797 729 LINE",
"743 670 LINE",
"1164 670 LINE",
"1185 843 LINE",
"747 843 LINE",
"804 789 LINE",
"876 1368 LINE",
"801 1279 LINE",
"1292 1279 LINE",
"1313 1454 LINE",
"723 1454 LINE",
"544 0 LINE"
);
},
{
closed = 1;
nodes = (
"633 380 LINE",
"654 548 LINE",
"215 548 LINE",
"135 380 LINE"
);
}
);
width = 1200;
}
);
unicode = 00C6;
userData = {
KernOnName = AE;
};
},
{
glyphname = B;
lastChange = "2022-05-06 15:57:35 +0000";
layers = (
{
anchors = (
{
name = bottom;
position = "{624, 0}";
},
{
name = top;
position = "{803, 1454}";
}
);
layerId = "0D9D1AFE-BAFC-449A-A530-9FCA9CDF2E2E";
paths = (
{
closed = 1;
nodes = (
"537 0 LINE SMOOTH",
"889 0 OFFCURVE",
"1109 189 OFFCURVE",
"1109 494 CURVE SMOOTH",
"1109 678 OFFCURVE",
"950 771 OFFCURVE",
"812 773 CURVE",
"1005 807 OFFCURVE",
"1124 954 OFFCURVE",
"1124 1144 CURVE SMOOTH",
"1124 1322 OFFCURVE",
"1002 1454 OFFCURVE",
"700 1454 CURVE SMOOTH",
"272 1454 LINE",
"93 0 LINE"
);
},
{
closed = 1;
nodes = (
"304 704 LINE",
"658 704 LINE SMOOTH",
"842 704 OFFCURVE",
"977 651 OFFCURVE",
"977 478 CURVE SMOOTH",
"977 243 OFFCURVE",
"825 111 OFFCURVE",
"555 111 CURVE SMOOTH",
"232 111 LINE"
);
},
{
closed = 1;
nodes = (
"383 1343 LINE",
"709 1343 LINE SMOOTH",
"929 1343 OFFCURVE",
"1010 1236 OFFCURVE",
"990 1083 CURVE SMOOTH",
"964 881 OFFCURVE",
"798 815 OFFCURVE",
"654 815 CURVE SMOOTH",
"318 815 LINE"
);
}
);
width = 1200;
},
{
anchors = (
{
name = bottom;
position = "{599, 0}";
},
{
name = top;
position = "{778, 1454}";
}
);
layerId = "09AB1441-CF14-483D-884E-606841830E4D";
paths = (
{
closed = 1;
nodes = (
"542 0 LINE SMOOTH",
"867 0 OFFCURVE",
"1102 204 OFFCURVE",
"1102 488 CURVE SMOOTH",
"1102 670 OFFCURVE",
"957 756 OFFCURVE",
"824 761 CURVE",
"987 793 OFFCURVE",
"1108 958 OFFCURVE",
"1108 1153 CURVE SMOOTH",
"1108 1325 OFFCURVE",
"1000 1454 OFFCURVE",
"670 1454 CURVE SMOOTH",
"256 1454 LINE",
"77 0 LINE"
);
},
{
closed = 1;
nodes = (
"375 655 LINE",
"604 655 LINE SMOOTH",
"742 655 OFFCURVE",
"857 632 OFFCURVE",
"857 476 CURVE SMOOTH",
"857 294 OFFCURVE",
"739 190 OFFCURVE",
"532 190 CURVE SMOOTH",
"318 190 LINE"
);
},
{
closed = 1;
nodes = (
"450 1266 LINE",
"631 1266 LINE SMOOTH",
"838 1266 OFFCURVE",
"887 1203 OFFCURVE",
"870 1075 CURVE SMOOTH",
"849 911 OFFCURVE",
"760 835 OFFCURVE",
"581 835 CURVE SMOOTH",
"398 835 LINE"
);
}
);
width = 1200;
},
{
anchors = (
{
name = bottom;
position = "{590, 0}";
},
{
name = top;
position = "{769, 1454}";
}
);
layerId = "BF6BC6F6-4B2A-4E9B-9E28-8B62B2F12FD9";
paths = (
{
closed = 1;
nodes = (
"535 0 LINE SMOOTH",
"894 0 OFFCURVE",
"1122 196 OFFCURVE",
"1122 495 CURVE SMOOTH",
"1122 657 OFFCURVE",
"1021 769 OFFCURVE",
"819 790 CURVE",
"1000 805 OFFCURVE",
"1128 947 OFFCURVE",
"1128 1150 CURVE SMOOTH",
"1128 1333 OFFCURVE",
"999 1454 OFFCURVE",
"709 1454 CURVE SMOOTH",
"249 1454 LINE",
"70 0 LINE"
);
},
{
closed = 1;
nodes = (
"459 637 LINE",
"593 637 LINE SMOOTH",
"690 637 OFFCURVE",
"791 616 OFFCURVE",
"791 475 CURVE SMOOTH",
"791 331 OFFCURVE",
"696 234 OFFCURVE",
"547 234 CURVE SMOOTH",
"410 234 LINE"
);
},
{
closed = 1;
nodes = (
"531 1222 LINE",
"638 1222 LINE SMOOTH",
"745 1222 OFFCURVE",
"819 1183 OFFCURVE",
"819 1077 CURVE SMOOTH",
"819 944 OFFCURVE",
"725 853 OFFCURVE",
"591 853 CURVE SMOOTH",
"486 853 LINE"
);
}
);
width = 1200;
},
{
anchors = (
{
name = bottom;
position = "{608, 0}";
},
{
name = top;
position = "{787, 1454}";
}
);
layerId = "099DAB3F-15EF-4A0D-A0EC-988B8C582406";
paths = (
{
closed = 1;
nodes = (
"540 0 LINE SMOOTH",
"875 0 OFFCURVE",
"1105 198 OFFCURVE",
"1105 490 CURVE SMOOTH",
"1105 673 OFFCURVE",
"954 762 OFFCURVE",
"820 766 CURVE",
"994 798 OFFCURVE",
"1114 957 OFFCURVE",
"1114 1150 CURVE SMOOTH",
"1114 1324 OFFCURVE",
"1001 1454 OFFCURVE",
"681 1454 CURVE SMOOTH",
"262 1454 LINE",
"83 0 LINE"
);
},
{
closed = 1;
nodes = (
"348 673 LINE",
"624 673 LINE SMOOTH",
"780 673 OFFCURVE",
"902 639 OFFCURVE",
"902 477 CURVE SMOOTH",
"902 275 OFFCURVE",
"771 160 OFFCURVE",
"541 160 CURVE SMOOTH",
"286 160 LINE"
);
},
{
closed = 1;
nodes = (
"425 1295 LINE",
"660 1295 LINE SMOOTH",
"872 1295 OFFCURVE",
"933 1215 OFFCURVE",
"915 1078 CURVE SMOOTH",
"892 900 OFFCURVE",
"774 828 OFFCURVE",
"608 828 CURVE SMOOTH",
"368 828 LINE"
);
}
);
width = 1200;
}
);
unicode = 0042;
userData = {
KernOnName = B;
};
},
{
glyphname = C;
lastChange = "2022-05-06 15:57:35 +0000";
layers = (
{
anchors = (
{
name = bottom;
position = "{559, 0}";
},
{
name = top;
position = "{755, 1454}";
}
);
layerId = "0D9D1AFE-BAFC-449A-A530-9FCA9CDF2E2E";
paths = (
{
closed = 1;
nodes = (
"844 -26 OFFCURVE",
"1017 210 OFFCURVE",
"1061 413 CURVE",
"930 413 LINE",
"898 282 OFFCURVE",
"785 90 OFFCURVE",
"571 90 CURVE SMOOTH",
"359 90 OFFCURVE",
"244 252 OFFCURVE",
"244 560 CURVE SMOOTH",
"244 1033 OFFCURVE",
"440 1365 OFFCURVE",
"719 1365 CURVE SMOOTH",
"960 1365 OFFCURVE",
"1015 1160 OFFCURVE",
"996 939 CURVE",
"1136 939 LINE",
"1164 1247 OFFCURVE",
"1039 1481 OFFCURVE",
"732 1481 CURVE SMOOTH",
"371 1481 OFFCURVE",
"113 1092 OFFCURVE",
"113 551 CURVE SMOOTH",
"113 188 OFFCURVE",
"261 -26 OFFCURVE",
"559 -26 CURVE SMOOTH"
);
}
);
width = 1200;
},
{
anchors = (
{
name = bottom;
position = "{548, 0}";
},
{
name = top;
position = "{775, 1454}";
}
);
layerId = "09AB1441-CF14-483D-884E-606841830E4D";
paths = (
{
closed = 1;
nodes = (
"795 -29 OFFCURVE",
"1019 74 OFFCURVE",
"1076 413 CURVE",
"851 413 LINE",
"821 261 OFFCURVE",
"749 175 OFFCURVE",
"585 175 CURVE SMOOTH",
"421 175 OFFCURVE",
"338 327 OFFCURVE",
"338 569 CURVE SMOOTH",
"338 999 OFFCURVE",
"490 1277 OFFCURVE",
"726 1277 CURVE SMOOTH",
"871 1277 OFFCURVE",
"931 1187 OFFCURVE",
"913 942 CURVE",
"1148 942 LINE",
"1187 1326 OFFCURVE",
"1024 1482 OFFCURVE",
"747 1482 CURVE SMOOTH",
"380 1482 OFFCURVE",
"109 1090 OFFCURVE",
"109 559 CURVE SMOOTH",
"109 199 OFFCURVE",
"269 -29 OFFCURVE",
"545 -29 CURVE SMOOTH"
);
}
);
width = 1200;
},
{
anchors = (
{
name = bottom;
position = "{543, 0}";
},
{
name = top;
position = "{792, 1454}";
}
);
layerId = "BF6BC6F6-4B2A-4E9B-9E28-8B62B2F12FD9";
paths = (
{
closed = 1;
nodes = (
"835 -29 OFFCURVE",
"1059 150 OFFCURVE",
"1098 460 CURVE",
"787 460 LINE",
"755 347 OFFCURVE",
"707 268 OFFCURVE",
"602 268 CURVE SMOOTH",
"463 268 OFFCURVE",
"424 348 OFFCURVE",
"424 567 CURVE SMOOTH",
"424 854 OFFCURVE",
"518 1185 OFFCURVE",
"734 1185 CURVE SMOOTH",
"861 1185 OFFCURVE",
"899 1070 OFFCURVE",
"870 911 CURVE",
"1163 911 LINE",
"1226 1258 OFFCURVE",
"1085 1481 OFFCURVE",
"780 1481 CURVE SMOOTH",
"376 1481 OFFCURVE",
"107 1091 OFFCURVE",
"107 555 CURVE SMOOTH",
"107 165 OFFCURVE",
"270 -29 OFFCURVE",
"544 -29 CURVE SMOOTH"
);
}
);
width = 1200;
},
{
anchors = (
{
name = bottom;
position = "{552, 0}";
},
{
name = top;
position = "{768, 1454}";
}
);
layerId = "099DAB3F-15EF-4A0D-A0EC-988B8C582406";
paths = (
{
closed = 1;
nodes = (
"813 -28 OFFCURVE",
"1018 125 OFFCURVE",
"1070 413 CURVE",
"881 413 LINE",
"850 269 OFFCURVE",
"763 143 OFFCURVE",
"580 143 CURVE SMOOTH",
"398 143 OFFCURVE",
"303 299 OFFCURVE",
"303 566 CURVE SMOOTH",
"303 1012 OFFCURVE",
"471 1310 OFFCURVE",
"723 1310 CURVE SMOOTH",
"904 1310 OFFCURVE",
"963 1177 OFFCURVE",
"944 941 CURVE",
"1144 941 LINE",
"1178 1296 OFFCURVE",
"1030 1482 OFFCURVE",
"741 1482 CURVE SMOOTH",
"377 1482 OFFCURVE",
"111 1091 OFFCURVE",
"111 556 CURVE SMOOTH",
"111 195 OFFCURVE",
"266 -28 OFFCURVE",
"550 -28 CURVE SMOOTH"
);
}
);
width = 1200;
}
);
unicode = 0043;
userData = {
KernOnName = C;
};
},
{
glyphname = D;
lastChange = "2022-05-06 15:57:35 +0000";
layers = (
{
anchors = (
{
name = bottom;
position = "{546, 0}";
},
{
name = center;
position = "{265, 727}";
},
{
name = top;
position = "{705, 1454}";
}
);
layerId = "0D9D1AFE-BAFC-449A-A530-9FCA9CDF2E2E";
paths = (
{
closed = 1;
nodes = (
"418 0 LINE SMOOTH",
"871 0 OFFCURVE",
"1161 348 OFFCURVE",
"1161 892 CURVE SMOOTH",
"1161 1277 OFFCURVE",
"952 1454 OFFCURVE",
"596 1454 CURVE SMOOTH",
"418 1454 LINE",
"351 1336 LINE",
"615 1336 LINE SMOOTH",
"899 1336 OFFCURVE",
"1032 1171 OFFCURVE",
"1032 879 CURVE SMOOTH",
"1032 420 OFFCURVE",
"808 118 OFFCURVE",
"466 118 CURVE SMOOTH",
"209 118 LINE",
"239 0 LINE"
);
},
{
closed = 1;
nodes = (
"239 0 LINE",
"418 1454 LINE",
"293 1454 LINE",
"114 0 LINE"
);
}
);
width = 1200;
},
{
anchors = (
{
name = bottom;
position = "{549, 0}";
},
{
name = center;
position = "{217, 727}";
},
{
name = top;
position = "{674, 1454}";
}
);
layerId = "09AB1441-CF14-483D-884E-606841830E4D";
paths = (
{
closed = 1;
nodes = (
"444 0 LINE SMOOTH",
"883 0 OFFCURVE",
"1183 365 OFFCURVE",
"1183 896 CURVE SMOOTH",
"1183 1283 OFFCURVE",
"975 1454 OFFCURVE",
"621 1454 CURVE SMOOTH",
"486 1454 LINE",
"407 1246 LINE",
"611 1246 LINE SMOOTH",
"829 1246 OFFCURVE",
"955 1148 OFFCURVE",
"955 876 CURVE SMOOTH",
"955 469 OFFCURVE",
"771 208 OFFCURVE",
"485 208 CURVE SMOOTH",
"288 208 LINE",
"307 0 LINE"
);
},
{
closed = 1;
nodes = (
"307 0 LINE",
"486 1454 LINE",
"264 1454 LINE",
"85 0 LINE"
);
}
);
width = 1200;
},
{
anchors = (
{
name = bottom;
position = "{438, 0}";
},
{
name = center;
position = "{256, 727}";
},
{
name = top;
position = "{667, 1454}";
}
);
layerId = "BF6BC6F6-4B2A-4E9B-9E28-8B62B2F12FD9";
paths = (
{
closed = 1;
nodes = (
"444 0 LINE SMOOTH",
"907 0 OFFCURVE",
"1201 363 OFFCURVE",
"1201 870 CURVE SMOOTH",
"1201 1269 OFFCURVE",
"1019 1454 OFFCURVE",
"624 1454 CURVE SMOOTH",
"543 1454 LINE",
"414 1167 LINE",
"546 1167 LINE SMOOTH",
"797 1167 OFFCURVE",
"876 1098 OFFCURVE",
"876 845 CURVE SMOOTH",
"876 500 OFFCURVE",
"730 285 OFFCURVE",
"459 285 CURVE SMOOTH",
"312 285 LINE",
"364 0 LINE"
);
},
{
closed = 1;
nodes = (
"364 0 LINE",
"543 1454 LINE",
"228 1454 LINE",
"49 0 LINE"
);
}
);
width = 1200;
},
{
anchors = (
{
name = bottom;
position = "{548, 0}";
},
{
name = center;
position = "{235, 727}";
},
{
name = top;
position = "{686, 1454}";
}
);
layerId = "099DAB3F-15EF-4A0D-A0EC-988B8C582406";
paths = (
{
closed = 1;
nodes = (
"434 0 LINE SMOOTH",
"879 0 OFFCURVE",
"1175 359 OFFCURVE",
"1175 895 CURVE SMOOTH",
"1175 1281 OFFCURVE",
"966 1454 OFFCURVE",
"612 1454 CURVE SMOOTH",
"461 1454 LINE",
"386 1280 LINE",
"613 1280 LINE SMOOTH",
"855 1280 OFFCURVE",
"984 1157 OFFCURVE",
"984 877 CURVE SMOOTH",
"984 451 OFFCURVE",
"785 174 OFFCURVE",
"478 174 CURVE SMOOTH",
"258 174 LINE",
"282 0 LINE"
);
},
{
closed = 1;
nodes = (
"282 0 LINE",
"461 1454 LINE",
"275 1454 LINE",
"96 0 LINE"
);
}
);
width = 1200;
}
);
unicode = 0044;
userData = {
KernOnName = D;
};
},
{
glyphname = E;
lastChange = "2022-05-06 15:57:35 +0000";
layers = (
{
anchors = (
{
name = bottom;
position = "{609, 0}";
},
{
name = ogonek;
position = "{997, 0}";
},
{
name = top;
position = "{727, 1454}";
},
{
name = topleft;
position = "{189, 1454}";
}
);
layerId = "0D9D1AFE-BAFC-449A-A530-9FCA9CDF2E2E";
paths = (
{
closed = 1;
nodes = (
"997 0 LINE",
"1011 113 LINE",
"237 113 LINE",
"278 52 LINE",
"362 732 LINE",
"310 705 LINE",
"949 705 LINE",
"962 818 LINE",
"323 818 LINE",
"369 789 LINE",
"443 1391 LINE",
"388 1340 LINE",
"1109 1340 LINE",
"1123 1454 LINE",
"326 1454 LINE",
"147 0 LINE"
);
}
);
width = 1200;
},
{
anchors = (
{
name = bottom;
position = "{651, 0}";
},
{
name = ogonek;
position = "{1047, 0}";
},
{
name = top;
position = "{777, 1454}";
},
{
name = topleft;
position = "{215, 1454}";
}
);
layerId = "09AB1441-CF14-483D-884E-606841830E4D";
paths = (
{
closed = 1;
nodes = (
"1047 0 LINE",
"1071 195 LINE",
"299 195 LINE",
"385 78 LINE",
"467 746 LINE",
"402 668 LINE",
"996 668 LINE",
"1019 858 LINE",
"380 858 LINE",
"472 789 LINE",
"542 1357 LINE",
"430 1264 LINE",
"1166 1264 LINE",
"1190 1454 LINE",
"332 1454 LINE",
"153 0 LINE"
);
}
);
width = 1200;
},
{
anchors = (
{
name = bottom;
position = "{629, 0}";
},
{
name = ogonek;
position = "{1079, 0}";
},
{
name = top;
position = "{801, 1454}";
},
{
name = topleft;
position = "{299, 1454}";
}
);
layerId = "BF6BC6F6-4B2A-4E9B-9E28-8B62B2F12FD9";
paths = (
{
closed = 1;
nodes = (
"1075 0 LINE",
"1110 286 LINE",
"360 286 LINE",
"450 211 LINE",
"507 679 LINE",
"414 617 LINE",
"1031 617 LINE",
"1063 881 LINE",
"433 881 LINE",
"524 818 LINE",
"577 1250 LINE",
"469 1176 LINE",
"1187 1176 LINE",
"1222 1454 LINE",
"295 1454 LINE",
"116 0 LINE"
);
}
);
width = 1200;
},
{
anchors = (
{
name = bottom;
position = "{635, 0}";
},
{
name = ogonek;
position = "{1028, 0}";
},
{
name = top;
position = "{758, 1454}";
},
{
name = topleft;
position = "{205, 1454}";
}
);
layerId = "099DAB3F-15EF-4A0D-A0EC-988B8C582406";
paths = (
{
closed = 1;
nodes = (
"1028 0 LINE",
"1049 164 LINE",
"276 164 LINE",
"345 68 LINE",
"428 741 LINE",
"368 682 LINE",
"978 682 LINE",
"998 843 LINE",
"359 843 LINE",
"433 789 LINE",
"505 1370 LINE",
"414 1293 LINE",
"1145 1293 LINE",
"1165 1454 LINE",
"330 1454 LINE",
"151 0 LINE"
);
}
);
width = 1200;
}
);
unicode = 0045;
userData = {
KernOnName = E;
};
},
{
glyphname = F;
lastChange = "2022-05-06 15:57:35 +0000";
layers = (
{
anchors = (
{
name = bottom;
position = "{610, 0}";
},
{
name = top;
position = "{789, 1454}";
}
);
layerId = "0D9D1AFE-BAFC-449A-A530-9FCA9CDF2E2E";
paths = (
{
closed = 1;
nodes = (
"302 0 LINE",
"389 707 LINE",
"355 685 LINE",
"1051 685 LINE",
"1065 798 LINE",
"371 798 LINE",
"397 775 LINE",
"473 1394 LINE",
"427 1340 LINE",
"1217 1340 LINE",
"1231 1454 LINE",
"355 1454 LINE",
"176 0 LINE"
);
}
);
width = 1200;
},
{
anchors = (
{
name = bottom;
position = "{598, 0}";
},
{
name = top;
position = "{777, 1454}";
}
);
layerId = "09AB1441-CF14-483D-884E-606841830E4D";
paths = (
{
closed = 1;
nodes = (
"378 0 LINE",
"464 699 LINE",
"427 641 LINE",
"1015 641 LINE",
"1038 831 LINE",
"381 831 LINE",
"471 759 LINE",
"545 1357 LINE",
"433 1264 LINE",
"1176 1264 LINE",
"1200 1454 LINE",
"332 1454 LINE",
"153 0 LINE"
);
}
);
width = 1200;
},
{
anchors = (
{
name = bottom;
position = "{590, 0}";
},
{
name = top;
position = "{769, 1454}";
}
);
layerId = "BF6BC6F6-4B2A-4E9B-9E28-8B62B2F12FD9";
paths = (
{
closed = 1;
nodes = (
"440 0 LINE",
"522 667 LINE",
"395 574 LINE",
"1042 574 LINE",
"1077 846 LINE",
"356 846 LINE",
"529 725 LINE",
"607 1360 LINE",
"395 1173 LINE",
"1193 1173 LINE",
"1226 1454 LINE",
"304 1454 LINE",
"125 0 LINE"
);
}
);
width = 1200;
},
{
anchors = (
{
name = bottom;
position = "{603, 0}";
},
{
name = top;
position = "{782, 1454}";
}
);
layerId = "099DAB3F-15EF-4A0D-A0EC-988B8C582406";
paths = (
{
closed = 1;
nodes = (
"350 0 LINE",
"436 702 LINE",
"400 658 LINE",
"1029 658 LINE",
"1048 819 LINE",
"377 819 LINE",
"443 765 LINE",
"518 1371 LINE",
"431 1293 LINE",
"1191 1293 LINE",
"1212 1454 LINE",
"341 1454 LINE",
"162 0 LINE"
);
}
);
width = 1200;
}
);
unicode = 0046;
userData = {
KernOnName = F;
};
},
{
glyphname = G;
lastChange = "2022-05-06 15:57:35 +0000";
layers = (
{
anchors = (
{
name = bottom;
position = "{577, 0}";
},
{
name = top;
position = "{736, 1454}";
}
);
layerId = "0D9D1AFE-BAFC-449A-A530-9FCA9CDF2E2E";
paths = (
{
closed = 1;
nodes = (
"760 -30 OFFCURVE",
"877 14 OFFCURVE",
"1016 114 CURVE",
"1092 734 LINE",
"667 734 LINE",
"651 611 LINE",
"951 611 LINE",
"899 179 LINE",
"822 116 OFFCURVE",
"728 86 OFFCURVE",
"590 86 CURVE SMOOTH",
"351 86 OFFCURVE",
"225 289 OFFCURVE",
"225 597 CURVE SMOOTH",
"225 1091 OFFCURVE",
"425 1361 OFFCURVE",
"727 1361 CURVE SMOOTH",
"956 1361 OFFCURVE",
"1003 1177 OFFCURVE",
"995 1047 CURVE",
"1120 1047 LINE",
"1138 1349 OFFCURVE",
"965 1481 OFFCURVE",
"754 1481 CURVE SMOOTH",
"351 1481 OFFCURVE",
"96 1162 OFFCURVE",
"96 573 CURVE SMOOTH",
"96 211 OFFCURVE",
"270 -30 OFFCURVE",
"577 -30 CURVE SMOOTH"
);
}
);
width = 1200;
},
{
anchors = (
{
name = bottom;
position = "{586, 0}";
},
{
name = top;
position = "{748, 1454}";
}
);
layerId = "09AB1441-CF14-483D-884E-606841830E4D";
paths = (
{
closed = 1;
nodes = (
"738 -29 OFFCURVE",
"898 8 OFFCURVE",
"1044 128 CURVE",
"1122 770 LINE",
"681 770 LINE",
"656 568 LINE",
"894 568 LINE",
"856 250 LINE",
"783 186 OFFCURVE",
"682 178 OFFCURVE",
"602 178 CURVE SMOOTH",
"429 178 OFFCURVE",
"336 359 OFFCURVE",
"336 610 CURVE SMOOTH",
"336 1023 OFFCURVE",
"487 1274 OFFCURVE",
"725 1274 CURVE SMOOTH",
"849 1274 OFFCURVE",
"953 1208 OFFCURVE",
"948 1027 CURVE",
"1165 1027 LINE",
"1172 1379 OFFCURVE",
"982 1481 OFFCURVE",
"767 1481 CURVE SMOOTH",
"367 1481 OFFCURVE",
"108 1137 OFFCURVE",
"108 578 CURVE SMOOTH",
"108 253 OFFCURVE",
"270 -29 OFFCURVE",
"599 -29 CURVE SMOOTH"
);
}
);
width = 1200;
},
{
anchors = (
{
name = bottom;
position = "{598, 0}";
},
{
name = top;
position = "{767, 1454}";
}
);
layerId = "BF6BC6F6-4B2A-4E9B-9E28-8B62B2F12FD9";
paths = (
{
closed = 1;
nodes = (
"766 -28 OFFCURVE",
"958 53 OFFCURVE",
"1066 180 CURVE",
"1156 813 LINE",
"670 813 LINE",
"631 539 LINE",
"831 539 LINE",
"802 330 LINE",
"747 288 OFFCURVE",
"679 267 OFFCURVE",
"607 267 CURVE SMOOTH",
"476 267 OFFCURVE",
"411 392 OFFCURVE",
"414 598 CURVE SMOOTH",
"421 973 OFFCURVE",
"538 1186 OFFCURVE",
"736 1186 CURVE SMOOTH",
"846 1186 OFFCURVE",
"912 1120 OFFCURVE",
"897 990 CURVE",
"1186 990 LINE",
"1225 1310 OFFCURVE",
"1074 1483 OFFCURVE",
"775 1481 CURVE SMOOTH",
"372 1479 OFFCURVE",
"102 1131 OFFCURVE",
"92 592 CURVE SMOOTH",
"86 215 OFFCURVE",
"267 -28 OFFCURVE",
"580 -28 CURVE SMOOTH"
);
}
);
width = 1200;
},
{
anchors = (
{
name = bottom;
position = "{583, 0}";
},
{
name = top;
position = "{744, 1454}";
}
);
layerId = "099DAB3F-15EF-4A0D-A0EC-988B8C582406";
paths = (
{
closed = 1;
nodes = (
"746 -29 OFFCURVE",
"890 10 OFFCURVE",
"1034 123 CURVE",
"1111 757 LINE",
"676 757 LINE",
"654 584 LINE",
"915 584 LINE",
"872 223 LINE",
"798 160 OFFCURVE",
"699 144 OFFCURVE",
"598 144 CURVE SMOOTH",
"400 144 OFFCURVE",
"294 333 OFFCURVE",
"294 605 CURVE SMOOTH",
"294 1049 OFFCURVE",
"464 1307 OFFCURVE",
"726 1307 CURVE SMOOTH",
"889 1307 OFFCURVE",
"972 1196 OFFCURVE",
"966 1035 CURVE",
"1148 1035 LINE",
"1159 1368 OFFCURVE",
"976 1481 OFFCURVE",
"762 1481 CURVE SMOOTH",
"361 1481 OFFCURVE",
"104 1146 OFFCURVE",
"104 576 CURVE SMOOTH",
"104 237 OFFCURVE",
"270 -29 OFFCURVE",
"591 -29 CURVE SMOOTH"
);
}
);
width = 1200;
}
);
unicode = 0047;
userData = {
KernOnName = G;
};
},
{
glyphname = H;
lastChange = "2022-05-06 15:57:35 +0000";
layers = (
{
anchors = (
{
name = bottom;
position = "{603, 0}";
},
{
name = center;
position = "{692, 727}";
},
{
name = top;
position = "{782, 1454}";
},
{
name = topleft;
position = "{143, 1454}";
}
);
layerId = "0D9D1AFE-BAFC-449A-A530-9FCA9CDF2E2E";
paths = (
{
closed = 1;
nodes = (
"1001 0 LINE",
"1163 1454 LINE",
"1038 1454 LINE",
"876 0 LINE"
);
},
{
closed = 1;
nodes = (
"208 0 LINE",
"370 1454 LINE",
"245 1454 LINE",
"83 0 LINE"
);
},
{
closed = 1;
nodes = (
"990 686 LINE",
"1005 804 LINE",
"279 804 LINE",
"264 686 LINE"
);
}
);
width = 1200;
},
{
anchors = (
{
name = bottom;
position = "{601, 0}";
},
{
name = center;
position = "{690, 727}";
},
{
name = top;
position = "{780, 1454}";
},
{
name = topleft;
position = "{151, 1454}";
}
);
layerId = "09AB1441-CF14-483D-884E-606841830E4D";
paths = (
{
closed = 1;
nodes = (
"1004 0 LINE",
"1173 1454 LINE",
"949 1454 LINE",
"780 0 LINE"
);
},
{
closed = 1;
nodes = (
"288 0 LINE",
"457 1454 LINE",
"233 1454 LINE",
"64 0 LINE"
);
},
{
closed = 1;
nodes = (
"892 647 LINE",
"920 847 LINE",
"325 847 LINE",
"300 647 LINE"
);
}
);
width = 1200;
},
{
anchors = (
{
name = bottom;
position = "{591, 0}";
},
{
name = center;
position = "{679, 727}";
},
{
name = top;
position = "{770, 1454}";
},
{
name = topleft;
position = "{162, 1454}";
}
);
layerId = "BF6BC6F6-4B2A-4E9B-9E28-8B62B2F12FD9";
paths = (
{
closed = 1;
nodes = (
"1055 0 LINE",
"1225 1454 LINE",
"910 1454 LINE",
"740 0 LINE"
);
},
{
closed = 1;
nodes = (
"346 0 LINE",
"516 1454 LINE",
"201 1454 LINE",
"31 0 LINE"
);
},
{
closed = 1;
nodes = (
"867 608 LINE",
"901 886 LINE",
"363 886 LINE",
"329 608 LINE"
);
}
);
width = 1200;
},
{
anchors = (
{
name = bottom;
position = "{602, 0}";
},
{
name = center;
position = "{691, 727}";
},
{
name = top;
position = "{781, 1454}";
},
{
name = topleft;
position = "{148, 1454}";
}
);
layerId = "099DAB3F-15EF-4A0D-A0EC-988B8C582406";
paths = (
{
closed = 1;
nodes = (
"1003 0 LINE",
"1169 1454 LINE",
"982 1454 LINE",
"816 0 LINE"
);
},
{
closed = 1;
nodes = (
"258 0 LINE",
"424 1454 LINE",
"238 1454 LINE",
"71 0 LINE"
);
},
{
closed = 1;
nodes = (
"929 662 LINE",
"952 831 LINE",
"308 831 LINE",
"287 662 LINE"
);
}
);
width = 1200;
}
);
unicode = 0048;
userData = {
KernOnName = H;
};
},
{
glyphname = Hbar;
lastChange = "2022-05-06 15:57:35 +0000";
layers = (
{
layerId = "0D9D1AFE-BAFC-449A-A530-9FCA9CDF2E2E";
paths = (
{
closed = 1;
nodes = (
"999 0 LINE",
"1177 1454 LINE",
"1053 1454 LINE",
"875 0 LINE"
);
},
{
closed = 1;
nodes = (
"205 0 LINE",
"383 1454 LINE",
"259 1454 LINE",
"81 0 LINE"
);
},
{
closed = 1;
nodes = (
"994 581 LINE",
"1011 696 LINE",
"241 696 LINE",
"227 581 LINE"
);
},
{
closed = 1;
nodes = (
"1263 979 LINE",
"1280 1092 LINE",
"68 1092 LINE",
"54 979 LINE"
);
}
);
width = 1200;
},
{
layerId = "09AB1441-CF14-483D-884E-606841830E4D";
paths = (
{
closed = 1;
nodes = (
"1009 0 LINE",
"1187 1454 LINE",
"964 1454 LINE",
"786 0 LINE"
);
},
{
closed = 1;
nodes = (
"294 0 LINE",
"472 1454 LINE",
"249 1454 LINE",
"71 0 LINE"
);
},
{
closed = 1;
nodes = (
"913 470 LINE",
"940 666 LINE",
"275 666 LINE",
"251 470 LINE"
);
},
{
closed = 1;
nodes = (
"1268 897 LINE",
"1293 1093 LINE",
"55 1093 LINE",
"31 897 LINE"
);
}
);
width = 1200;
},
{
layerId = "BF6BC6F6-4B2A-4E9B-9E28-8B62B2F12FD9";
paths = (
{
closed = 1;
nodes = (
"1043 0 LINE",
"1221 1454 LINE",
"905 1454 LINE",
"727 0 LINE"
);
},
{
closed = 1;
nodes = (
"353 0 LINE",
"531 1454 LINE",
"215 1454 LINE",
"37 0 LINE"
);
},
{
closed = 1;
nodes = (
"880 382 LINE",
"915 630 LINE",
"316 630 LINE",
"284 382 LINE"
);
},
{
closed = 1;
nodes = (
"1269 836 LINE",
"1304 1091 LINE",
"44 1091 LINE",
"12 836 LINE"
);
}
);
width = 1200;
},
{
layerId = "099DAB3F-15EF-4A0D-A0EC-988B8C582406";
paths = (
{
closed = 1;
nodes = (
"1005 0 LINE",
"1183 1454 LINE",
"997 1454 LINE",
"819 0 LINE"
);
},
{
closed = 1;
nodes = (
"261 0 LINE",
"439 1454 LINE",
"253 1454 LINE",
"75 0 LINE"
);
},
{
closed = 1;
nodes = (
"943 512 LINE",
"967 677 LINE",
"262 677 LINE",
"242 512 LINE"
);
},
{
closed = 1;
nodes = (
"1266 928 LINE",
"1288 1093 LINE",
"60 1093 LINE",
"40 928 LINE"
);
}
);
width = 1200;
}
);
unicode = 0126;
},
{
glyphname = I;
lastChange = "2022-05-06 15:57:35 +0000";
layers = (
{
anchors = (
{
name = bottom;
position = "{514, 0}";
},
{
name = ogonek;
position = "{970, 0}";
},
{
name = top;
position = "{719, 1454}";
},
{
name = topleft;
position = "{273, 1454}";
}
);
layerId = "0D9D1AFE-BAFC-449A-A530-9FCA9CDF2E2E";
paths = (
{
closed = 1;
nodes = (
"970 0 LINE",
"984 116 LINE",
"558 116 LINE",
"585 126 OFFCURVE",
"614 158 OFFCURVE",
"621 215 CURVE SMOOTH",
"759 1338 LINE",
"1134 1338 LINE",
"1149 1454 LINE",
"273 1454 LINE",
"258 1338 LINE",
"683 1338 LINE",
"654 1327 OFFCURVE",
"627 1293 OFFCURVE",
"620 1239 CURVE SMOOTH",
"482 116 LINE",
"108 116 LINE",
"94 0 LINE"
);
}
);
width = 1200;
},
{
anchors = (
{
name = bottom;
position = "{562, 0}";
},
{
name = ogonek;
position = "{1015, 0}";
},
{
name = top;
position = "{779, 1454}";
},
{
name = topleft;
position = "{304, 1454}";
}
);
layerId = "09AB1441-CF14-483D-884E-606841830E4D";
paths = (
{
closed = 1;
nodes = (
"1015 0 LINE",
"1040 206 LINE",
"656 206 LINE",
"692 217 OFFCURVE",
"714 248 OFFCURVE",
"719 289 CURVE SMOOTH",
"837 1248 LINE",
"1168 1248 LINE",
"1194 1454 LINE",
"304 1454 LINE",
"278 1248 LINE",
"661 1248 LINE",
"624 1236 OFFCURVE",
"603 1205 OFFCURVE",
"598 1165 CURVE SMOOTH",
"480 206 LINE",
"150 206 LINE",
"125 0 LINE"
);
}
);
width = 1200;
},
{
anchors = (
{
name = bottom;
position = "{550, 0}";
},
{
name = ogonek;
position = "{1020, 0}";
},
{
name = top;
position = "{749, 1454}";
},
{
name = topleft;
position = "{243, 1454}";
}
);
layerId = "BF6BC6F6-4B2A-4E9B-9E28-8B62B2F12FD9";
paths = (
{
closed = 1;
nodes = (
"1020 0 LINE",
"1053 269 LINE",
"655 269 LINE",
"716 279 OFFCURVE",
"749 310 OFFCURVE",
"759 390 CURVE SMOOTH",
"856 1185 LINE",
"1165 1185 LINE",
"1199 1454 LINE",
"269 1454 LINE",
"235 1185 LINE",
"632 1185 LINE",
"572 1175 OFFCURVE",
"539 1145 OFFCURVE",
"529 1064 CURVE SMOOTH",
"431 269 LINE",
"123 269 LINE",
"90 0 LINE"
);
}
);
width = 1200;
},
{
anchors = (
{
name = bottom;
position = "{544, 0}";
},
{
name = ogonek;
position = "{998, 0}";
},
{
name = top;
position = "{757, 1454}";
},
{
name = topleft;
position = "{292, 1454}";
}
);
layerId = "099DAB3F-15EF-4A0D-A0EC-988B8C582406";
paths = (
{
closed = 1;
nodes = (
"998 0 LINE",
"1019 172 LINE",
"619 172 LINE",
"652 183 OFFCURVE",
"677 214 OFFCURVE",
"682 261 CURVE SMOOTH",
"808 1282 LINE",
"1155 1282 LINE",
"1177 1454 LINE",
"292 1454 LINE",
"271 1282 LINE",
"669 1282 LINE",
"635 1270 OFFCURVE",
"612 1238 OFFCURVE",
"606 1193 CURVE SMOOTH",
"481 172 LINE",
"134 172 LINE",
"113 0 LINE"
);
}
);
width = 1200;
}
);
unicode = 0049;
userData = {
KernOnName = I;
};
},
{
glyphname = IJ;
lastChange = "2022-05-06 15:57:35 +0000";
layers = (
{
anchors = (
{
name = bottom;
position = "{600, 0}";
},
{
name = ogonek;
position = "{1061, 0}";
},
{
name = top;
position = "{779, 1454}";
},
{
name = topleft;
position = "{199, 1454}";
}
);
layerId = "0D9D1AFE-BAFC-449A-A530-9FCA9CDF2E2E";
paths = (
{
closed = 1;
nodes = (
"560 562 LINE",
"574 676 LINE",
"338 676 LINE",
"367 687 OFFCURVE",
"394 721 OFFCURVE",
"401 775 CURVE SMOOTH",
"471 1340 LINE",
"656 1340 LINE",
"670 1454 LINE",
"174 1454 LINE",
"160 1340 LINE",
"395 1340 LINE",
"367 1330 OFFCURVE",
"338 1297 OFFCURVE",
"331 1241 CURVE SMOOTH",
"262 676 LINE",
"78 676 LINE",
"64 562 LINE"
);
},
{
closed = 1;
nodes = (
"855 -30 OFFCURVE",
"1043 113 OFFCURVE",
"1086 461 CURVE SMOOTH",
"1208 1454 LINE",
"1081 1454 LINE",
"961 484 LINE SMOOTH",
"928 216 OFFCURVE",
"807 89 OFFCURVE",
"610 89 CURVE SMOOTH",
"413 89 OFFCURVE",
"325 200 OFFCURVE",
"338 395 CURVE",
"211 395 LINE",
"187 138 OFFCURVE",
"398 -30 OFFCURVE",
"613 -30 CURVE SMOOTH"
);
}
);
width = 1200;
},
{
anchors = (
{
name = bottom;
position = "{600, 0}";
},
{
name = ogonek;
position = "{1059, 0}";
},
{
name = top;
position = "{778, 1454}";
},
{
name = topleft;
position = "{198, 1454}";
}
);
layerId = "09AB1441-CF14-483D-884E-606841830E4D";
paths = (
{
closed = 1;
nodes = (
"653 515 LINE",
"678 721 LINE",
"434 721 LINE",
"470 732 OFFCURVE",
"492 763 OFFCURVE",
"497 804 CURVE SMOOTH",
"552 1248 LINE",
"753 1248 LINE",
"778 1454 LINE",
"158 1454 LINE",
"133 1248 LINE",
"376 1248 LINE",
"340 1237 OFFCURVE",
"318 1206 OFFCURVE",
"313 1165 CURVE SMOOTH",
"258 721 LINE",
"68 721 LINE",
"43 515 LINE"
);
},
{
closed = 1;
nodes = (
"894 -30 OFFCURVE",
"1068 113 OFFCURVE",
"1111 461 CURVE SMOOTH",
"1233 1454 LINE",
"999 1454 LINE",
"878 467 LINE SMOOTH",
"846 206 OFFCURVE",
"759 176 OFFCURVE",
"618 176 CURVE SMOOTH",
"489 176 OFFCURVE",
"437 242 OFFCURVE",
"433 395 CURVE",
"217 395 LINE",
"188 96 OFFCURVE",
"409 -30 OFFCURVE",
"597 -30 CURVE SMOOTH"
);
}
);
width = 1200;
},
{
anchors = (
{
name = bottom;
position = "{600, 0}";
},
{
name = ogonek;
position = "{1085, 0}";
},
{
name = top;
position = "{778, 1454}";
},
{
name = topleft;
position = "{292, 1454}";
}
);
layerId = "BF6BC6F6-4B2A-4E9B-9E28-8B62B2F12FD9";
paths = (
{
closed = 1;
nodes = (
"660 580 LINE",
"695 862 LINE",
"459 862 LINE",
"520 872 OFFCURVE",
"553 903 OFFCURVE",
"563 983 CURVE SMOOTH",
"586 1172 LINE",
"733 1172 LINE",
"767 1454 LINE",
"157 1454 LINE",
"123 1172 LINE",
"368 1172 LINE",
"308 1162 OFFCURVE",
"274 1133 OFFCURVE",
"264 1051 CURVE SMOOTH",
"241 862 LINE",
"85 862 LINE",
"50 580 LINE"
);
},
{
closed = 1;
nodes = (
"899 -30 OFFCURVE",
"1081 142 OFFCURVE",
"1124 497 CURVE SMOOTH",
"1241 1454 LINE",
"927 1454 LINE",
"807 477 LINE SMOOTH",
"786 304 OFFCURVE",
"722 256 OFFCURVE",
"598 256 CURVE SMOOTH",
"461 256 OFFCURVE",
"412 312 OFFCURVE",
"437 485 CURVE",
"125 485 LINE",
"78 127 OFFCURVE",
"330 -30 OFFCURVE",
"569 -30 CURVE SMOOTH"
);
}
);
width = 1200;
},
{
anchors = (
{
name = bottom;
position = "{600, 0}";
},
{
name = ogonek;
position = "{1060, 0}";
},
{
name = top;
position = "{778, 1454}";
},
{
name = topleft;
position = "{198, 1454}";
}
);
layerId = "099DAB3F-15EF-4A0D-A0EC-988B8C582406";
paths = (
{
closed = 1;
nodes = (
"618 533 LINE",
"639 704 LINE",
"398 704 LINE",
"431 715 OFFCURVE",
"455 747 OFFCURVE",
"461 793 CURVE SMOOTH",
"522 1283 LINE",
"717 1283 LINE",
"738 1454 LINE",
"164 1454 LINE",
"143 1283 LINE",
"383 1283 LINE",
"350 1272 OFFCURVE",
"326 1240 OFFCURVE",
"320 1194 CURVE SMOOTH",
"260 704 LINE",
"72 704 LINE",
"51 533 LINE"
);
},
{
closed = 1;
nodes = (
"879 -30 OFFCURVE",
"1059 113 OFFCURVE",
"1102 461 CURVE SMOOTH",
"1224 1454 LINE",
"1030 1454 LINE",
"909 473 LINE SMOOTH",
"877 210 OFFCURVE",
"777 143 OFFCURVE",
"615 143 CURVE SMOOTH",
"461 143 OFFCURVE",
"395 226 OFFCURVE",
"397 395 CURVE",
"215 395 LINE",
"188 112 OFFCURVE",
"405 -30 OFFCURVE",
"603 -30 CURVE SMOOTH"
);
}
);
width = 1200;
}
);
unicode = 0132;
},
{
glyphname = J;
lastChange = "2022-05-06 15:57:35 +0000";
layers = (
{
anchors = (
{
name = bottom;
position = "{551, 0}";
},
{
name = top;
position = "{1071, 1454}";
}
);
layerId = "0D9D1AFE-BAFC-449A-A530-9FCA9CDF2E2E";
paths = (
{
closed = 1;
nodes = (
"768 -30 OFFCURVE",
"972 113 OFFCURVE",
"1020 501 CURVE SMOOTH",
"1137 1454 LINE",
"1010 1454 LINE",
"896 521 LINE SMOOTH",
"858 213 OFFCURVE",
"718 87 OFFCURVE",
"489 87 CURVE SMOOTH",
"289 87 OFFCURVE",
"121 200 OFFCURVE",
"214 515 CURVE",
"86 515 LINE",
"-13 138 OFFCURVE",
"213 -30 OFFCURVE",
"476 -30 CURVE SMOOTH"
);
}
);
width = 1200;
},
{
anchors = (
{
name = bottom;
position = "{550, 0}";
},
{
name = top;
position = "{1083, 1454}";
}
);
layerId = "09AB1441-CF14-483D-884E-606841830E4D";
paths = (
{
closed = 1;
nodes = (
"803 -30 OFFCURVE",
"1021 103 OFFCURVE",
"1073 531 CURVE SMOOTH",
"1186 1454 LINE",
"954 1454 LINE",
"837 501 LINE SMOOTH",
"802 213 OFFCURVE",
"654 176 OFFCURVE",
"541 176 CURVE SMOOTH",
"381 176 OFFCURVE",
"267 245 OFFCURVE",
"301 515 CURVE",
"85 515 LINE",
"-4 139 OFFCURVE",
"247 -30 OFFCURVE",
"518 -30 CURVE SMOOTH"
);
}
);
width = 1200;
},
{
anchors = (
{
name = bottom;
position = "{544, 0}";
},
{
name = top;
position = "{1050, 1454}";
}
);
layerId = "BF6BC6F6-4B2A-4E9B-9E28-8B62B2F12FD9";
paths = (
{
closed = 1;
nodes = (
"850 -30 OFFCURVE",
"1051 142 OFFCURVE",
"1098 527 CURVE SMOOTH",
"1211 1454 LINE",
"887 1454 LINE",
"771 507 LINE SMOOTH",
"750 334 OFFCURVE",
"682 256 OFFCURVE",
"538 256 CURVE SMOOTH",
"421 256 OFFCURVE",
"341 312 OFFCURVE",
"372 555 CURVE",
"54 555 LINE",
"8 127 OFFCURVE",
"190 -30 OFFCURVE",
"509 -30 CURVE SMOOTH"
);
}
);
width = 1200;
},
{
anchors = (
{
name = bottom;
position = "{550, 0}";
},
{
name = top;
position = "{1079, 1454}";
}
);
layerId = "099DAB3F-15EF-4A0D-A0EC-988B8C582406";
paths = (
{
closed = 1;
nodes = (
"790 -30 OFFCURVE",
"1003 107 OFFCURVE",
"1053 520 CURVE SMOOTH",
"1168 1454 LINE",
"975 1454 LINE",
"859 509 LINE SMOOTH",
"823 213 OFFCURVE",
"678 143 OFFCURVE",
"522 143 CURVE SMOOTH",
"347 143 OFFCURVE",
"212 228 OFFCURVE",
"268 515 CURVE",
"85 515 LINE",
"-7 139 OFFCURVE",
"234 -30 OFFCURVE",
"502 -30 CURVE SMOOTH"
);
}
);
width = 1200;
}
);
unicode = 004A;
userData = {
KernOnName = J;
};
},
{
glyphname = K;
lastChange = "2022-05-06 15:57:35 +0000";
layers = (
{
anchors = (
{
name = bottom;
position = "{576, 0}";
},
{
name = top;
position = "{774, 1454}";
}
);
layerId = "0D9D1AFE-BAFC-449A-A530-9FCA9CDF2E2E";
paths = (
{
closed = 1;
nodes = (
"609 742 LINE",
"664 790 LINE",
"1264 1454 LINE",
"1110 1454 LINE",
"606 891 LINE",
"280 537 LINE",
"303 423 LINE"
);
},
{
closed = 1;
nodes = (
"254 0 LINE",
"433 1454 LINE",
"308 1454 LINE",
"129 0 LINE"
);
},
{
closed = 1;
nodes = (
"1115 0 LINE",
"663 865 LINE",
"566 780 LINE",
"971 0 LINE"
);
}
);
width = 1200;
},
{
anchors = (
{
name = bottom;
position = "{602, 0}";
},
{
name = top;
position = "{772, 1454}";
}
);
layerId = "09AB1441-CF14-483D-884E-606841830E4D";
paths = (
{
closed = 1;
nodes = (
"690 725 LINE",
"758 783 LINE",
"1320 1454 LINE",
"1055 1454 LINE",
"691 1000 LINE",
"385 629 LINE",
"386 398 LINE"
);
},
{
closed = 1;
nodes = (
"344 0 LINE",
"523 1454 LINE",
"301 1454 LINE",
"122 0 LINE"
);
},
{
closed = 1;
nodes = (
"1166 0 LINE",
"778 889 LINE",
"584 782 LINE",
"920 0 LINE"
);
}
);
width = 1200;
},
{
anchors = (
{
name = bottom;
position = "{591, 0}";
},
{
name = top;
position = "{736, 1454}";
}
);
layerId = "BF6BC6F6-4B2A-4E9B-9E28-8B62B2F12FD9";
paths = (
{
closed = 1;
nodes = (
"689 669 LINE",
"815 795 LINE",
"1350 1454 LINE",
"988 1454 LINE",
"642 982 LINE",
"446 724 LINE",
"395 328 LINE"
);
},
{
closed = 1;
nodes = (
"391 0 LINE",
"574 1454 LINE",
"259 1454 LINE",
"76 0 LINE"
);
},
{
closed = 1;
nodes = (
"1195 0 LINE",
"795 920 LINE",
"555 736 LINE",
"834 0 LINE"
);
}
);
width = 1200;
},
{
anchors = (
{
name = bottom;
position = "{592, 0}";
},
{
name = top;
position = "{773, 1454}";
}
);
layerId = "099DAB3F-15EF-4A0D-A0EC-988B8C582406";
paths = (
{
closed = 1;
nodes = (
"660 731 LINE",
"723 786 LINE",
"1299 1454 LINE",
"1076 1454 LINE",
"659 959 LINE",
"346 595 LINE",
"355 407 LINE"
);
},
{
closed = 1;
nodes = (
"310 0 LINE",
"489 1454 LINE",
"304 1454 LINE",
"125 0 LINE"
);
},
{
closed = 1;
nodes = (
"1147 0 LINE",
"735 880 LINE",
"577 781 LINE",
"939 0 LINE"
);
}
);
width = 1200;
}
);
unicode = 004B;
userData = {
KernOnName = K;
};
},
{
glyphname = L;
lastChange = "2022-05-06 15:57:35 +0000";
layers = (
{
anchors = (
{
name = bottom;
position = "{614, 0}";
},
{
name = center;
position = "{313, 744}";
},
{
name = top;
position = "{427, 1454}";
},
{
name = topright;
position = "{863, 1091}";
}
);
layerId = "0D9D1AFE-BAFC-449A-A530-9FCA9CDF2E2E";
paths = (
{
closed = 1;
nodes = (
"1069 0 LINE",
"1083 117 LINE",
"228 117 LINE",
"309 58 LINE",
"481 1454 LINE",
"352 1454 LINE",
"173 0 LINE"
);
}
);
width = 1200;
},
{
anchors = (
{
name = bottom;
position = "{638, 0}";
},
{
name = center;
position = "{355, 774}";
},
{
name = top;
position = "{469, 1454}";
},
{
name = topright;
position = "{835, 1091}";
}
);
layerId = "09AB1441-CF14-483D-884E-606841830E4D";
paths = (
{
closed = 1;
nodes = (
"1061 0 LINE",
"1087 208 LINE",
"308 208 LINE",
"406 98 LINE",
"573 1454 LINE",
"342 1454 LINE",
"163 0 LINE"
);
}
);
width = 1200;
},
{
anchors = (
{
name = bottom;
position = "{659, 0}";
},
{
name = center;
position = "{404, 774}";
},
{
name = top;
position = "{539, 1454}";
},
{
name = topright;
position = "{871, 1091}";
}
);
layerId = "BF6BC6F6-4B2A-4E9B-9E28-8B62B2F12FD9";
paths = (
{
closed = 1;
nodes = (
"1065 0 LINE",
"1100 281 LINE",
"346 281 LINE",
"516 98 LINE",
"688 1454 LINE",
"365 1454 LINE",
"181 0 LINE"
);
}
);
width = 1200;
},
{
anchors = (
{
name = bottom;
position = "{629, 0}";
},
{
name = center;
position = "{339, 763}";
},
{
name = top;
position = "{453, 1454}";
},
{
name = topright;
position = "{846, 1091}";
}
);
layerId = "099DAB3F-15EF-4A0D-A0EC-988B8C582406";
paths = (
{
closed = 1;
nodes = (
"1064 0 LINE",
"1086 174 LINE",
"278 174 LINE",
"370 83 LINE",
"539 1454 LINE",
"346 1454 LINE",
"167 0 LINE"
);
}
);
width = 1200;
}
);
unicode = 004C;
userData = {
KernOnName = L;
};
},
{
glyphname = M;
lastChange = "2022-05-06 15:57:35 +0000";
layers = (
{
anchors = (
{
name = bottom;
position = "{601, 0}";
},
{
name = top;
position = "{780, 1454}";
}
);
layerId = "0D9D1AFE-BAFC-449A-A530-9FCA9CDF2E2E";
paths = (
{
closed = 1;
nodes = (
"152 0 LINE",
"276 849 LINE",
"341 1364 LINE",
"347 1364 LINE",
"408 1016 LINE",
"549 416 LINE",
"624 416 LINE",
"904 1016 LINE",
"1050 1364 LINE",
"1055 1364 LINE",
"994 849 LINE",
"910 0 LINE",
"1031 0 LINE",
"1174 1454 LINE",
"978 1454 LINE",
"713 842 LINE",
"606 578 LINE",
"603 578 LINE",
"560 842 LINE",
"442 1454 LINE",
"246 1454 LINE",
"31 0 LINE"
);
}
);
width = 1200;
},
{
anchors = (
{
name = bottom;
position = "{601, 0}";
},
{
name = top;
position = "{780, 1454}";
}
);
layerId = "09AB1441-CF14-483D-884E-606841830E4D";
paths = (
{
closed = 1;
nodes = (
"224 0 LINE",
"289 412 LINE",
"380 1274 LINE",
"396 1274 LINE",
"430 954 LINE",
"523 370 LINE",
"667 370 LINE",
"896 954 LINE",
"1008 1274 LINE",
"1024 1274 LINE",
"908 412 LINE",
"870 0 LINE",
"1069 0 LINE",
"1221 1454 LINE",
"908 1454 LINE",
"703 876 LINE",
"628 633 LINE",
"624 633 LINE",
"610 876 LINE",
"543 1454 LINE",
"231 1454 LINE",
"25 0 LINE"
);
}
);
width = 1200;
},
{
anchors = (
{
name = bottom;
position = "{625, 0}";
},
{
name = top;
position = "{804, 1454}";
}
);
layerId = "BF6BC6F6-4B2A-4E9B-9E28-8B62B2F12FD9";
paths = (
{
closed = 1;
nodes = (
"268 0 LINE",
"348 735 LINE",
"377 1225 LINE",
"395 1225 LINE",
"425 891 LINE",
"445 352 LINE",
"719 352 LINE",
"881 891 LINE",
"991 1225 LINE",
"1008 1225 LINE",
"920 735 LINE",
"820 0 LINE",
"1105 0 LINE",
"1244 1454 LINE",
"818 1454 LINE",
"660 845 LINE",
"631 680 LINE",
"624 680 LINE",
"633 846 LINE",
"622 1454 LINE",
"198 1454 LINE",
"-17 0 LINE"
);
}
);
width = 1200;
},
{
anchors = (
{
name = bottom;
position = "{601, 0}";
},
{
name = top;
position = "{780, 1454}";
}
);
layerId = "099DAB3F-15EF-4A0D-A0EC-988B8C582406";
paths = (
{
closed = 1;
nodes = (
"197 0 LINE",
"284 576 LINE",
"365 1308 LINE",
"378 1308 LINE",
"422 977 LINE",
"533 387 LINE",
"651 387 LINE",
"899 977 LINE",
"1024 1308 LINE",
"1036 1308 LINE",
"940 576 LINE",
"885 0 LINE",
"1055 0 LINE",
"1203 1454 LINE",
"934 1454 LINE",
"707 863 LINE",
"620 612 LINE",
"616 612 LINE",
"591 863 LINE",
"505 1454 LINE",
"237 1454 LINE",
"27 0 LINE"
);
}
);
width = 1200;
}
);
unicode = 004D;
userData = {
KernOnName = M;
};
},
{
glyphname = N;
lastChange = "2022-05-06 15:57:35 +0000";
layers = (
{
anchors = (
{
name = bottom;
position = "{574, 0}";
},
{
name = top;
position = "{780, 1454}";
}
);
layerId = "0D9D1AFE-BAFC-449A-A530-9FCA9CDF2E2E";
paths = (
{
closed = 1;
nodes = (
"197 0 LINE",
"314 950 LINE",
"348 1375 LINE",
"356 1375 LINE",
"492 950 LINE",
"801 0 LINE",
"994 0 LINE",
"1173 1454 LINE",
"1052 1454 LINE",
"935 502 LINE",
"901 79 LINE",
"896 79 LINE",
"758 502 LINE",
"448 1454 LINE",
"255 1454 LINE",
"76 0 LINE"
);
}
);
width = 1200;
},
{
anchors = (
{
name = bottom;
position = "{612, 0}";
},
{
name = top;
position = "{777, 1454}";
}
);
layerId = "09AB1441-CF14-483D-884E-606841830E4D";
paths = (
{
closed = 1;
nodes = (
"294 0 LINE",
"398 849 LINE",
"410 1174 LINE",
"418 1174 LINE",
"496 873 LINE",
"752 0 LINE",
"1018 0 LINE",
"1197 1454 LINE",
"981 1454 LINE",
"873 582 LINE",
"870 266 LINE",
"862 266 LINE",
"781 572 LINE",
"523 1454 LINE",
"257 1454 LINE",
"78 0 LINE"
);
}
);
width = 1200;
},
{
anchors = (
{
name = bottom;
position = "{574, 0}";
},
{
name = top;
position = "{746, 1454}";
}
);
layerId = "BF6BC6F6-4B2A-4E9B-9E28-8B62B2F12FD9";
paths = (
{
closed = 1;
nodes = (
"326 0 LINE",
"406 649 LINE",
"409 1141 LINE",
"418 1141 LINE",
"480 804 LINE",
"648 0 LINE",
"1050 0 LINE",
"1230 1454 LINE",
"934 1454 LINE",
"851 789 LINE",
"847 286 LINE",
"841 286 LINE",
"777 650 LINE",
"608 1454 LINE",
"210 1454 LINE",
"30 0 LINE"
);
}
);
width = 1200;
},
{
anchors = (
{
name = bottom;
position = "{598, 0}";
},
{
name = top;
position = "{778, 1454}";
}
);
layerId = "099DAB3F-15EF-4A0D-A0EC-988B8C582406";
paths = (
{
closed = 1;
nodes = (
"258 0 LINE",
"367 887 LINE",
"387 1249 LINE",
"395 1249 LINE",
"495 902 LINE",
"770 0 LINE",
"1009 0 LINE",
"1188 1454 LINE",
"1008 1454 LINE",
"896 552 LINE",
"882 196 LINE",
"875 196 LINE",
"772 546 LINE",
"495 1454 LINE",
"256 1454 LINE",
"77 0 LINE"
);
}
);
width = 1200;
}
);
unicode = 004E;
userData = {
KernOnName = N;
};
},
{
glyphname = Eng;
lastChange = "2022-05-06 15:57:35 +0000";
layers = (
{
layerId = "0D9D1AFE-BAFC-449A-A530-9FCA9CDF2E2E";
paths = (
{
closed = 1;
nodes = (
"836 -454 OFFCURVE",
"959 -288 OFFCURVE",
"994 0 CURVE SMOOTH",
"1173 1454 LINE",
"1051 1454 LINE",
"935 502 LINE",
"902 58 LINE",
"898 58 LINE",
"758 502 LINE",
"449 1454 LINE",
"255 1454 LINE",
"76 0 LINE",
"197 0 LINE",
"315 949 LINE",
"348 1375 LINE",
"357 1375 LINE",
"492 949 LINE",
"825 -59 LINE",
"854 -157 OFFCURVE",
"756 -335 OFFCURVE",
"616 -335 CURVE SMOOTH",
"562 -335 OFFCURVE",
"534 -332 OFFCURVE",
"472 -307 CURVE",
"457 -430 LINE",
"518 -453 OFFCURVE",
"540 -454 OFFCURVE",
"602 -454 CURVE SMOOTH"
);
}
);
width = 1200;
},
{
layerId = "09AB1441-CF14-483D-884E-606841830E4D";
paths = (
{
closed = 1;
nodes = (
"823 -465 OFFCURVE",
"975 -327 OFFCURVE",
"1021 0 CURVE",
"1200 1454 LINE",
"983 1454 LINE",
"875 582 LINE",
"872 266 LINE",
"862 266 LINE",
"783 572 LINE",
"523 1454 LINE",
"256 1454 LINE",
"77 0 LINE",
"295 0 LINE",
"399 849 LINE",
"412 1174 LINE",
"421 1174 LINE",
"494 873 LINE",
"755 -5 LINE",
"784 -154 OFFCURVE",
"700 -259 OFFCURVE",
"605 -259 CURVE SMOOTH",
"545 -259 OFFCURVE",
"505 -244 OFFCURVE",
"468 -230 CURVE",
"443 -436 LINE",
"481 -450 OFFCURVE",
"526 -465 OFFCURVE",
"595 -465 CURVE SMOOTH"
);
}
);
width = 1200;
},
{
layerId = "BF6BC6F6-4B2A-4E9B-9E28-8B62B2F12FD9";
paths = (
{
closed = 1;
nodes = (
"847 -513 OFFCURVE",
"1011 -334 OFFCURVE",
"1052 0 CURVE SMOOTH",
"1231 1454 LINE",
"936 1454 LINE",
"848 790 LINE",
"868 168 LINE",
"858 168 LINE",
"781 648 LINE",
"609 1454 LINE",
"212 1454 LINE",
"33 0 LINE",
"328 0 LINE",
"408 648 LINE",
"411 1141 LINE",
"420 1141 LINE",
"483 800 LINE",
"660 0 LINE",
"717 -168 OFFCURVE",
"669 -246 OFFCURVE",
"568 -246 CURVE SMOOTH",
"534 -246 OFFCURVE",
"484 -244 OFFCURVE",
"436 -227 CURVE",
"397 -491 LINE",
"441 -502 OFFCURVE",
"492 -513 OFFCURVE",
"542 -513 CURVE SMOOTH"
);
}
);
width = 1200;
},
{
layerId = "099DAB3F-15EF-4A0D-A0EC-988B8C582406";
paths = (
{
closed = 1;
nodes = (
"828 -461 OFFCURVE",
"969 -312 OFFCURVE",
"1011 0 CURVE SMOOTH",
"1190 1454 LINE",
"1009 1454 LINE",
"898 552 LINE",
"883 188 LINE",
"876 188 LINE",
"774 546 LINE",
"495 1454 LINE",
"256 1454 LINE",
"77 0 LINE",
"258 0 LINE",
"368 887 LINE",
"388 1249 LINE",
"397 1249 LINE",
"493 902 LINE",
"781 -25 LINE",
"810 -155 OFFCURVE",
"721 -288 OFFCURVE",
"609 -288 CURVE SMOOTH",
"551 -288 OFFCURVE",
"516 -277 OFFCURVE",
"470 -259 CURVE",
"448 -434 LINE",
"495 -451 OFFCURVE",
"531 -461 OFFCURVE",
"598 -461 CURVE SMOOTH"
);
}
);
width = 1200;
}
);
unicode = 014A;
},
{
glyphname = O;
lastChange = "2022-05-06 15:57:35 +0000";
layers = (
{
anchors = (
{
name = bottom;
position = "{501, 0}";
},
{
name = center;
position = "{617, 727}";
},
{
name = ogonek;
position = "{646, 0}";
},
{
name = tail;
position = "{633, 0}";
},
{
name = top;
position = "{703, 1454}";
},
{
name = topleft;
position = "{113, 1454}";
},
{
name = topright;
position = "{1412, 1454}";
}
);
layerId = "0D9D1AFE-BAFC-449A-A530-9FCA9CDF2E2E";
paths = (
{
closed = 1;
nodes = (
"891 -30 OFFCURVE",
"1139 370 OFFCURVE",
"1139 921 CURVE SMOOTH",
"1139 1286 OFFCURVE",
"972 1483 OFFCURVE",
"703 1483 CURVE SMOOTH",
"341 1483 OFFCURVE",
"99 1100 OFFCURVE",
"99 547 CURVE SMOOTH",
"99 180 OFFCURVE",
"264 -30 OFFCURVE",
"534 -30 CURVE SMOOTH"
);
},
{
closed = 1;
nodes = (
"322 85 OFFCURVE",
"228 259 OFFCURVE",
"228 558 CURVE SMOOTH",
"228 1028 OFFCURVE",
"416 1367 OFFCURVE",
"688 1367 CURVE SMOOTH",
"914 1367 OFFCURVE",
"1010 1204 OFFCURVE",
"1010 907 CURVE SMOOTH",
"1010 440 OFFCURVE",
"817 85 OFFCURVE",
"549 85 CURVE SMOOTH"
);
}
);
width = 1200;
},
{
anchors = (
{
name = bottom;
position = "{530, 0}";
},
{
name = center;
position = "{621, 727}";
},
{
name = ogonek;
position = "{672, 0}";
},
{
name = tail;
position = "{579, 0}";
},
{
name = top;
position = "{709, 1454}";
},
{
name = topleft;
position = "{58, 1454}";
},
{
name = topright;
position = "{1360, 1454}";
}
);
layerId = "09AB1441-CF14-483D-884E-606841830E4D";
paths = (
{
closed = 1;
nodes = (
"894 -30 OFFCURVE",
"1151 360 OFFCURVE",
"1151 916 CURVE SMOOTH",
"1151 1283 OFFCURVE",
"988 1483 OFFCURVE",
"710 1483 CURVE SMOOTH",
"341 1483 OFFCURVE",
"85 1100 OFFCURVE",
"85 545 CURVE SMOOTH",
"85 171 OFFCURVE",
"249 -30 OFFCURVE",
"524 -30 CURVE SMOOTH"
);
},
{
closed = 1;
nodes = (
"399 177 OFFCURVE",
"311 282 OFFCURVE",
"311 539 CURVE SMOOTH",
"311 988 OFFCURVE",
"457 1276 OFFCURVE",
"685 1276 CURVE SMOOTH",
"839 1276 OFFCURVE",
"925 1175 OFFCURVE",
"925 925 CURVE SMOOTH",
"925 473 OFFCURVE",
"776 177 OFFCURVE",
"550 177 CURVE SMOOTH"
);
}
);
width = 1200;
},
{
anchors = (
{
name = bottom;
position = "{524, 0}";
},
{
name = center;
position = "{621, 727}";
},
{
name = ogonek;
position = "{631, 0}";
},
{
name = tail;
position = "{572, 0}";
},
{
name = top;
position = "{722, 1454}";
},
{
name = topleft;
position = "{63, 1454}";
},
{
name = topright;
position = "{1364, 1454}";
}
);
layerId = "BF6BC6F6-4B2A-4E9B-9E28-8B62B2F12FD9";
paths = (
{
closed = 1;
nodes = (
"911 -30 OFFCURVE",
"1174 347 OFFCURVE",
"1174 925 CURVE SMOOTH",
"1174 1280 OFFCURVE",
"1021 1483 OFFCURVE",
"722 1483 CURVE SMOOTH",
"330 1483 OFFCURVE",
"71 1114 OFFCURVE",
"71 537 CURVE SMOOTH",
"71 186 OFFCURVE",
"224 -30 OFFCURVE",
"522 -30 CURVE SMOOTH"
);
},
{
closed = 1;
nodes = (
"447 262 OFFCURVE",
"392 357 OFFCURVE",
"393 551 CURVE SMOOTH",
"395 952 OFFCURVE",
"514 1191 OFFCURVE",
"683 1191 CURVE SMOOTH",
"798 1191 OFFCURVE",
"853 1100 OFFCURVE",
"852 910 CURVE SMOOTH",
"850 512 OFFCURVE",
"727 262 OFFCURVE",
"561 262 CURVE SMOOTH"
);
}
);
width = 1200;
},
{
anchors = (
{
name = bottom;
position = "{519, 0}";
},
{
name = center;
position = "{620, 727}";
},
{
name = ogonek;
position = "{662, 0}";
},
{
name = tail;
position = "{599, 0}";
},
{
name = top;
position = "{707, 1454}";
},
{
name = topleft;
position = "{79, 1454}";
},
{
name = topright;
position = "{1380, 1454}";
}
);
layerId = "099DAB3F-15EF-4A0D-A0EC-988B8C582406";
paths = (
{
closed = 1;
nodes = (
"893 -30 OFFCURVE",
"1147 364 OFFCURVE",
"1147 918 CURVE SMOOTH",
"1147 1284 OFFCURVE",
"982 1483 OFFCURVE",
"707 1483 CURVE SMOOTH",
"341 1483 OFFCURVE",
"90 1100 OFFCURVE",
"90 546 CURVE SMOOTH",
"90 174 OFFCURVE",
"255 -30 OFFCURVE",
"528 -30 CURVE SMOOTH"
);
},
{
closed = 1;
nodes = (
"370 143 OFFCURVE",
"280 273 OFFCURVE",
"280 546 CURVE SMOOTH",
"280 1003 OFFCURVE",
"442 1310 OFFCURVE",
"686 1310 CURVE SMOOTH",
"867 1310 OFFCURVE",
"957 1186 OFFCURVE",
"957 918 CURVE SMOOTH",
"957 461 OFFCURVE",
"791 143 OFFCURVE",
"550 143 CURVE SMOOTH"
);
}
);
width = 1200;
}
);
unicode = 004F;
userData = {
KernOnName = O;
};
},
{
glyphname = OE;
lastChange = "2022-05-06 15:57:35 +0000";
layers = (
{
anchors = (
{
name = bottom;
position = "{580, 0}";
},
{
name = center;
position = "{470, 727}";
},
{
name = top;
position = "{690, 1454}";
}
);
layerId = "0D9D1AFE-BAFC-449A-A530-9FCA9CDF2E2E";
paths = (
{
closed = 1;
nodes = (
"468 -20 OFFCURVE",
"628 206 OFFCURVE",
"636 458 CURVE",
"622 449 LINE",
"568 0 LINE",
"1119 0 LINE",
"1134 119 LINE",
"681 119 LINE",
"754 702 LINE",
"1111 702 LINE",
"1125 818 LINE",
"767 818 LINE",
"830 1336 LINE",
"1227 1336 LINE",
"1242 1454 LINE",
"747 1454 LINE",
"687 981 LINE",
"706 980 LINE",
"763 1258 OFFCURVE",
"663 1483 OFFCURVE",
"486 1483 CURVE SMOOTH",
"227 1483 OFFCURVE",
"20 1048 OFFCURVE",
"20 509 CURVE SMOOTH",
"20 195 OFFCURVE",
"116 -20 OFFCURVE",
"301 -20 CURVE SMOOTH"
);
},
{
closed = 1;
nodes = (
"185 99 OFFCURVE",
"122 249 OFFCURVE",
"122 492 CURVE SMOOTH",
"122 974 OFFCURVE",
"280 1364 OFFCURVE",
"477 1364 CURVE SMOOTH",
"601 1364 OFFCURVE",
"671 1204 OFFCURVE",
"671 947 CURVE SMOOTH",
"671 493 OFFCURVE",
"508 99 OFFCURVE",
"322 99 CURVE SMOOTH"
);
}
);
width = 1200;
},
{
anchors = (
{
name = bottom;
position = "{600, 0}";
},
{
name = center;
position = "{494, 727}";
},
{
name = top;
position = "{700, 1454}";
}
);
layerId = "09AB1441-CF14-483D-884E-606841830E4D";
paths = (
{
closed = 1;
nodes = (
"464 -20 OFFCURVE",
"606 106 OFFCURVE",
"622 385 CURVE",
"593 385 LINE",
"549 0 LINE",
"1114 0 LINE",
"1140 212 LINE",
"745 212 LINE",
"799 651 LINE",
"1109 651 LINE",
"1134 858 LINE",
"824 858 LINE",
"872 1244 LINE",
"1238 1244 LINE",
"1264 1454 LINE",
"728 1454 LINE",
"672 1026 LINE",
"708 1026 LINE",
"751 1245 OFFCURVE",
"703 1483 OFFCURVE",
"513 1483 CURVE SMOOTH",
"244 1483 OFFCURVE",
"46 1061 OFFCURVE",
"46 488 CURVE SMOOTH",
"46 161 OFFCURVE",
"148 -20 OFFCURVE",
"328 -20 CURVE SMOOTH"
);
},
{
closed = 1;
nodes = (
"273 187 OFFCURVE",
"226 280 OFFCURVE",
"226 475 CURVE SMOOTH",
"226 933 OFFCURVE",
"347 1276 OFFCURVE",
"509 1276 CURVE SMOOTH",
"599 1276 OFFCURVE",
"652 1171 OFFCURVE",
"652 960 CURVE SMOOTH",
"652 549 OFFCURVE",
"523 187 OFFCURVE",
"375 187 CURVE SMOOTH"
);
}
);
width = 1200;
},
{
anchors = (
{
name = bottom;
position = "{600, 0}";
},
{
name = center;
position = "{490, 727}";
},
{
name = top;
position = "{700, 1454}";
}
);
layerId = "BF6BC6F6-4B2A-4E9B-9E28-8B62B2F12FD9";
paths = (
{
closed = 1;
nodes = (
"470 -20 OFFCURVE",
"572 111 OFFCURVE",
"604 287 CURVE",
"575 306 LINE",
"537 0 LINE",
"1145 0 LINE",
"1179 279 LINE",
"794 279 LINE",
"835 611 LINE",
"1139 611 LINE",
"1172 877 LINE",
"868 877 LINE",
"905 1177 LINE",
"1266 1177 LINE",
"1300 1454 LINE",
"716 1454 LINE",
"681 1169 LINE",
"729 1198 LINE",
"725 1369 OFFCURVE",
"659 1483 OFFCURVE",
"518 1483 CURVE SMOOTH",
"231 1483 OFFCURVE",
"28 1070 OFFCURVE",
"28 487 CURVE SMOOTH",
"28 180 OFFCURVE",
"119 -20 OFFCURVE",
"334 -20 CURVE SMOOTH"
);
},
{
closed = 1;
nodes = (
"309 258 OFFCURVE",
"277 341 OFFCURVE",
"277 486 CURVE SMOOTH",
"277 896 OFFCURVE",
"374 1185 OFFCURVE",
"511 1185 CURVE SMOOTH",
"597 1185 OFFCURVE",
"629 1108 OFFCURVE",
"629 967 CURVE SMOOTH",
"629 580 OFFCURVE",
"524 258 OFFCURVE",
"396 258 CURVE SMOOTH"
);
}
);
width = 1200;
},
{
anchors = (
{
name = bottom;
position = "{593, 0}";
},
{
name = center;
position = "{485, 727}";
},
{
name = top;
position = "{696, 1454}";
}
);
layerId = "099DAB3F-15EF-4A0D-A0EC-988B8C582406";
paths = (
{
closed = 1;
nodes = (
"466 -20 OFFCURVE",
"614 144 OFFCURVE",
"627 412 CURVE",
"604 409 LINE",
"556 0 LINE",
"1116 0 LINE",
"1138 177 LINE",
"721 177 LINE",
"782 670 LINE",
"1110 670 LINE",
"1131 843 LINE",
"803 843 LINE",
"856 1279 LINE",
"1234 1279 LINE",
"1256 1454 LINE",
"735 1454 LINE",
"678 1009 LINE",
"707 1009 LINE",
"756 1250 OFFCURVE",
"688 1483 OFFCURVE",
"503 1483 CURVE SMOOTH",
"238 1483 OFFCURVE",
"36 1056 OFFCURVE",
"36 496 CURVE SMOOTH",
"36 174 OFFCURVE",
"136 -20 OFFCURVE",
"318 -20 CURVE SMOOTH"
);
},
{
closed = 1;
nodes = (
"240 154 OFFCURVE",
"187 268 OFFCURVE",
"187 481 CURVE SMOOTH",
"187 948 OFFCURVE",
"322 1309 OFFCURVE",
"497 1309 CURVE SMOOTH",
"600 1309 OFFCURVE",
"659 1183 OFFCURVE",
"659 955 CURVE SMOOTH",
"659 528 OFFCURVE",
"517 154 OFFCURVE",
"355 154 CURVE SMOOTH"
);
}
);
width = 1200;
}
);
unicode = 0152;
},
{
glyphname = P;
lastChange = "2022-05-06 15:57:35 +0000";
layers = (
{
anchors = (
{
name = bottom;
position = "{595, 0}";
},
{
name = top;
position = "{774, 1454}";
}
);
layerId = "0D9D1AFE-BAFC-449A-A530-9FCA9CDF2E2E";
paths = (
{
closed = 1;
nodes = (
"620 574 LINE SMOOTH",
"987 574 OFFCURVE",
"1187 784 OFFCURVE",
"1187 1117 CURVE SMOOTH",
"1187 1295 OFFCURVE",
"1053 1454 OFFCURVE",
"649 1454 CURVE SMOOTH",
"640 1454 OFFCURVE",
"406 1454 OFFCURVE",
"312 1454 CURVE",
"384 1336 LINE",
"650 1336 LINE SMOOTH",
"970 1336 OFFCURVE",
"1049 1264 OFFCURVE",
"1049 1087 CURVE SMOOTH",
"1049 835 OFFCURVE",
"906 691 OFFCURVE",
"646 691 CURVE SMOOTH",
"311 691 LINE",
"236 656 LINE",
"302 627 LINE",
"299 600 OFFCURVE",
"322 574 OFFCURVE",
"375 574 CURVE"
);
},
{
closed = 1;
nodes = (
"226 0 LINE",
"405 1454 LINE",
"280 1454 LINE",
"101 0 LINE"
);
}
);
width = 1200;
},
{
anchors = (
{
name = bottom;
position = "{598, 0}";
},
{
name = top;
position = "{777, 1454}";
}
);
layerId = "09AB1441-CF14-483D-884E-606841830E4D";
paths = (
{
closed = 1;
nodes = (
"667 498 LINE SMOOTH",
"1028 498 OFFCURVE",
"1233 741 OFFCURVE",
"1233 1082 CURVE SMOOTH",
"1233 1343 OFFCURVE",
"1064 1454 OFFCURVE",
"762 1454 CURVE SMOOTH",
"685 1454 OFFCURVE",
"502 1454 OFFCURVE",
"409 1454 CURVE",
"469 1245 LINE",
"746 1245 LINE SMOOTH",
"914 1245 OFFCURVE",
"1002 1196 OFFCURVE",
"1002 1039 CURVE SMOOTH",
"1002 824 OFFCURVE",
"889 702 OFFCURVE",
"694 702 CURVE SMOOTH",
"405 702 LINE",
"328 646 LINE",
"390 576 LINE",
"384 526 OFFCURVE",
"412 498 OFFCURVE",
"447 498 CURVE"
);
},
{
closed = 1;
nodes = (
"319 0 LINE",
"501 1454 LINE",
"277 1454 LINE",
"95 0 LINE"
);
}
);
width = 1200;
},
{
anchors = (
{
name = bottom;
position = "{591, 0}";
},
{
name = top;
position = "{770, 1454}";
}
);
layerId = "BF6BC6F6-4B2A-4E9B-9E28-8B62B2F12FD9";
paths = (
{
closed = 1;
nodes = (
"641 483 LINE SMOOTH",
"1009 483 OFFCURVE",
"1231 724 OFFCURVE",
"1231 1079 CURVE SMOOTH",
"1231 1338 OFFCURVE",
"1064 1454 OFFCURVE",
"759 1454 CURVE SMOOTH",
"690 1454 OFFCURVE",
"551 1454 OFFCURVE",
"474 1454 CURVE",
"527 1192 LINE",
"690 1192 LINE SMOOTH",
"830 1192 OFFCURVE",
"901 1139 OFFCURVE",
"901 1020 CURVE SMOOTH",
"901 836 OFFCURVE",
"811 742 OFFCURVE",
"638 742 CURVE SMOOTH",
"477 742 LINE",
"401 685 LINE",
"456 569 LINE",
"450 518 OFFCURVE",
"479 483 OFFCURVE",
"523 483 CURVE SMOOTH"
);
},
{
closed = 1;
nodes = (
"379 0 LINE",
"565 1454 LINE",
"249 1454 LINE",
"63 0 LINE"
);
}
);
width = 1200;
},
{
anchors = (
{
name = bottom;
position = "{597, 0}";
},
{
name = top;
position = "{776, 1454}";
}
);
layerId = "099DAB3F-15EF-4A0D-A0EC-988B8C582406";
paths = (
{
closed = 1;
nodes = (
"649 527 LINE SMOOTH",
"1013 527 OFFCURVE",
"1216 757 OFFCURVE",
"1216 1095 CURVE SMOOTH",
"1216 1325 OFFCURVE",
"1060 1454 OFFCURVE",
"720 1454 CURVE SMOOTH",
"668 1454 OFFCURVE",
"466 1454 OFFCURVE",
"373 1454 CURVE",
"437 1279 LINE",
"710 1279 LINE SMOOTH",
"935 1279 OFFCURVE",
"1020 1222 OFFCURVE",
"1020 1057 CURVE SMOOTH",
"1020 828 OFFCURVE",
"895 698 OFFCURVE",
"676 698 CURVE SMOOTH",
"370 698 LINE",
"294 650 LINE",
"357 595 LINE",
"352 554 OFFCURVE",
"378 527 OFFCURVE",
"420 527 CURVE"
);
},
{
closed = 1;
nodes = (
"284 0 LINE",
"465 1454 LINE",
"278 1454 LINE",
"97 0 LINE"
);
}
);
width = 1200;
}
);
unicode = 0050;
userData = {
KernOnName = P;
};
},
{
glyphname = Thorn;
lastChange = "2022-05-06 15:57:35 +0000";
layers = (
{
layerId = "0D9D1AFE-BAFC-449A-A530-9FCA9CDF2E2E";
paths = (
{
closed = 1;
nodes = (
"238 0 LINE",
"417 1454 LINE",
"292 1454 LINE",
"113 0 LINE"
);
},
{
closed = 1;
nodes = (
"588 276 LINE SMOOTH",
"955 276 OFFCURVE",
"1155 486 OFFCURVE",
"1155 789 CURVE SMOOTH",
"1155 1007 OFFCURVE",
"1011 1156 OFFCURVE",
"617 1156 CURVE",
"300 1156 LINE",
"342 1038 LINE",
"618 1038 LINE SMOOTH",
"898 1038 OFFCURVE",
"1017 966 OFFCURVE",
"1017 769 CURVE SMOOTH",
"1017 537 OFFCURVE",
"854 393 OFFCURVE",
"614 393 CURVE SMOOTH",
"269 393 LINE",
"214 358 LINE",
"280 329 LINE",
"277 302 OFFCURVE",
"300 276 OFFCURVE",
"353 276 CURVE"
);
}
);
width = 1200;
},
{
layerId = "09AB1441-CF14-483D-884E-606841830E4D";
paths = (
{
closed = 1;
nodes = (
"315 0 LINE",
"494 1454 LINE",
"270 1454 LINE",
"91 0 LINE"
);
},
{
closed = 1;
nodes = (
"621 248 LINE SMOOTH",
"982 248 OFFCURVE",
"1187 491 OFFCURVE",
"1187 832 CURVE SMOOTH",
"1187 1093 OFFCURVE",
"1018 1204 OFFCURVE",
"716 1204 CURVE",
"383 1204 LINE",
"413 995 LINE",
"700 995 LINE SMOOTH",
"868 995 OFFCURVE",
"956 946 OFFCURVE",
"956 789 CURVE SMOOTH",
"956 574 OFFCURVE",
"843 452 OFFCURVE",
"648 452 CURVE SMOOTH",
"359 452 LINE",
"302 396 LINE",
"356 326 LINE",
"350 276 OFFCURVE",
"406 248 OFFCURVE",
"441 248 CURVE"
);
}
);
width = 1200;
},
{
layerId = "BF6BC6F6-4B2A-4E9B-9E28-8B62B2F12FD9";
paths = (
{
closed = 1;
nodes = (
"372 0 LINE",
"551 1454 LINE",
"235 1454 LINE",
"56 0 LINE"
);
},
{
closed = 1;
nodes = (
"607 232 LINE SMOOTH",
"975 232 OFFCURVE",
"1197 473 OFFCURVE",
"1197 828 CURVE SMOOTH",
"1197 1087 OFFCURVE",
"1015 1203 OFFCURVE",
"710 1203 CURVE",
"440 1203 LINE",
"433 941 LINE",
"641 941 LINE SMOOTH",
"781 941 OFFCURVE",
"867 888 OFFCURVE",
"867 769 CURVE SMOOTH",
"867 585 OFFCURVE",
"777 491 OFFCURVE",
"604 491 CURVE SMOOTH",
"413 491 LINE",
"367 434 LINE",
"411 318 LINE",
"405 267 OFFCURVE",
"465 232 OFFCURVE",
"509 232 CURVE SMOOTH"
);
}
);
width = 1200;
},
{
layerId = "099DAB3F-15EF-4A0D-A0EC-988B8C582406";
paths = (
{
closed = 1;
nodes = (
"286 0 LINE",
"465 1454 LINE",
"278 1454 LINE",
"99 0 LINE"
);
},
{
closed = 1;
nodes = (
"609 259 LINE SMOOTH",
"972 259 OFFCURVE",
"1175 489 OFFCURVE",
"1175 816 CURVE SMOOTH",
"1175 1061 OFFCURVE",
"1015 1186 OFFCURVE",
"679 1186 CURVE",
"352 1186 LINE",
"386 1011 LINE",
"669 1011 LINE SMOOTH",
"879 1011 OFFCURVE",
"979 954 OFFCURVE",
"979 782 CURVE SMOOTH",
"979 560 OFFCURVE",
"847 430 OFFCURVE",
"635 430 CURVE SMOOTH",
"325 430 LINE",
"269 382 LINE",
"328 327 LINE",
"323 286 OFFCURVE",
"366 259 OFFCURVE",
"408 259 CURVE"
);
}
);
width = 1200;
}
);
unicode = 00DE;
},
{
glyphname = R;
lastChange = "2022-05-06 15:57:35 +0000";
layers = (
{
anchors = (
{
name = bottom;
position = "{574, 0}";
},
{
name = top;
position = "{664, 1454}";
}
);
layerId = "0D9D1AFE-BAFC-449A-A530-9FCA9CDF2E2E";
paths = (
{
closed = 1;
nodes = (
"1100 0 LINE",
"817 595 LINE SMOOTH",
"802 626 OFFCURVE",
"781 654 OFFCURVE",
"742 651 CURVE",
"692 637 LINE",
"972 676 OFFCURVE",
"1126 858 OFFCURVE",
"1126 1137 CURVE SMOOTH",
"1126 1323 OFFCURVE",
"987 1454 OFFCURVE",
"718 1454 CURVE SMOOTH",
"624 1454 OFFCURVE",
"430 1454 OFFCURVE",
"336 1454 CURVE",
"414 1388 LINE",
"408 1336 LINE",
"715 1336 LINE SMOOTH",
"935 1336 OFFCURVE",
"994 1241 OFFCURVE",
"994 1123 CURVE SMOOTH",
"994 922 OFFCURVE",
"870 742 OFFCURVE",
"678 742 CURVE SMOOTH",
"279 742 LINE",
"275 710 LINE",
"236 639 LINE",
"303 624 LINE",
"659 624 LINE",
"950 0 LINE"
);
},
{
closed = 1;
nodes = (
"250 0 LINE",
"429 1454 LINE",
"304 1454 LINE",
"125 0 LINE"
);
}
);
width = 1200;
},
{
anchors = (
{
name = bottom;
position = "{584, 0}";
},
{
name = top;
position = "{678, 1454}";
}
);
layerId = "09AB1441-CF14-483D-884E-606841830E4D";
paths = (
{
closed = 1;
nodes = (
"1109 0 LINE",
"875 504 LINE SMOOTH",
"830 601 OFFCURVE",
"799 621 OFFCURVE",
"680 611 CURVE",
"698 598 LINE",
"1012 652 OFFCURVE",
"1138 860 OFFCURVE",
"1138 1120 CURVE SMOOTH",
"1138 1352 OFFCURVE",
"966 1454 OFFCURVE",
"678 1454 CURVE SMOOTH",
"604 1454 OFFCURVE",
"502 1454 OFFCURVE",
"411 1454 CURVE",
"476 1308 LINE",
"472 1262 LINE",
"680 1261 LINE SMOOTH",
"834 1260 OFFCURVE",
"904 1212 OFFCURVE",
"904 1076 CURVE SMOOTH",
"904 884 OFFCURVE",
"803 775 OFFCURVE",
"627 775 CURVE SMOOTH",
"357 775 LINE",
"353 743 LINE",
"305 595 LINE",
"369 580 LINE",
"600 580 LINE",
"863 0 LINE"
);
},
{
closed = 1;
nodes = (
"323 0 LINE",
"502 1454 LINE",
"282 1454 LINE",
"103 0 LINE"
);
}
);
width = 1200;
},
{
anchors = (
{
name = bottom;
position = "{589, 0}";
},
{
name = top;
position = "{685, 1454}";
}
);
layerId = "BF6BC6F6-4B2A-4E9B-9E28-8B62B2F12FD9";
paths = (
{
closed = 1;
nodes = (
"1139 0 LINE",
"927 555 LINE SMOOTH",
"899 627 OFFCURVE",
"836 642 OFFCURVE",
"760 642 CURVE",
"716 626 LINE",
"995 637 OFFCURVE",
"1167 842 OFFCURVE",
"1167 1098 CURVE SMOOTH",
"1167 1336 OFFCURVE",
"1002 1454 OFFCURVE",
"753 1454 CURVE SMOOTH",
"624 1454 OFFCURVE",
"548 1454 OFFCURVE",
"474 1454 CURVE",
"471 1334 LINE",
"528 1211 LINE",
"681 1210 LINE SMOOTH",
"763 1209 OFFCURVE",
"859 1192 OFFCURVE",
"859 1072 CURVE SMOOTH",
"859 924 OFFCURVE",
"767 836 OFFCURVE",
"611 836 CURVE SMOOTH",
"427 836 LINE",
"423 804 LINE",
"370 604 LINE",
"434 589 LINE",
"579 589 LINE",
"806 0 LINE"
);
},
{
closed = 1;
nodes = (
"380 0 LINE",
"559 1454 LINE",
"243 1454 LINE",
"64 0 LINE"
);
}
);
width = 1200;
},
{
anchors = (
{
name = bottom;
position = "{580, 0}";
},
{
name = top;
position = "{673, 1454}";
}
);
layerId = "099DAB3F-15EF-4A0D-A0EC-988B8C582406";
paths = (
{
closed = 1;
nodes = (
"1106 0 LINE",
"853 538 LINE SMOOTH",
"820 610 OFFCURVE",
"792 633 OFFCURVE",
"703 626 CURVE",
"696 613 LINE",
"997 661 OFFCURVE",
"1134 859 OFFCURVE",
"1134 1126 CURVE SMOOTH",
"1134 1341 OFFCURVE",
"974 1454 OFFCURVE",
"693 1454 CURVE SMOOTH",
"612 1454 OFFCURVE",
"475 1454 OFFCURVE",
"383 1454 CURVE",
"453 1338 LINE",
"448 1290 LINE",
"693 1289 LINE SMOOTH",
"872 1289 OFFCURVE",
"938 1223 OFFCURVE",
"938 1094 CURVE SMOOTH",
"938 898 OFFCURVE",
"828 763 OFFCURVE",
"646 763 CURVE SMOOTH",
"328 763 LINE",
"324 731 LINE",
"279 612 LINE",
"344 597 LINE",
"622 597 LINE",
"896 0 LINE"
);
},
{
closed = 1;
nodes = (
"296 0 LINE",
"475 1454 LINE",
"290 1454 LINE",
"111 0 LINE"
);
}
);
width = 1200;
}
);
unicode = 0052;
userData = {
KernOnName = R;
};
},
{
glyphname = S;
lastChange = "2022-05-06 15:57:35 +0000";
layers = (
{
anchors = (
{
name = bottom;
position = "{597, 0}";
},
{
name = top;
position = "{745, 1454}";
}
);
layerId = "0D9D1AFE-BAFC-449A-A530-9FCA9CDF2E2E";
paths = (
{
closed = 1;
nodes = (
"857 -20 OFFCURVE",
"1062 146 OFFCURVE",
"1066 389 CURVE SMOOTH",
"1070 641 OFFCURVE",
"853 709 OFFCURVE",
"658 785 CURVE SMOOTH",
"456 864 OFFCURVE",
"353 928 OFFCURVE",
"356 1067 CURVE SMOOTH",
"359 1245 OFFCURVE",
"486 1363 OFFCURVE",
"702 1363 CURVE SMOOTH",
"962 1363 OFFCURVE",
"997 1223 OFFCURVE",
"994 1091 CURVE",
"1120 1091 LINE",
"1126 1350 OFFCURVE",
"971 1477 OFFCURVE",
"719 1477 CURVE SMOOTH",
"425 1477 OFFCURVE",
"238 1302 OFFCURVE",
"234 1052 CURVE SMOOTH",
"230 855 OFFCURVE",
"398 762 OFFCURVE",
"603 682 CURVE SMOOTH",
"819 598 OFFCURVE",
"945 558 OFFCURVE",
"942 375 CURVE SMOOTH",
"939 227 OFFCURVE",
"793 95 OFFCURVE",
"574 95 CURVE SMOOTH",
"344 95 OFFCURVE",
"190 194 OFFCURVE",
"221 417 CURVE",
"95 417 LINE",
"55 130 OFFCURVE",
"287 -20 OFFCURVE",
"556 -20 CURVE SMOOTH"
);
}
);
width = 1200;
},
{
anchors = (
{
name = bottom;
position = "{538, -12}";
},
{
name = top;
position = "{738, 1454}";
}
);
layerId = "09AB1441-CF14-483D-884E-606841830E4D";
paths = (
{
closed = 1;
nodes = (
"889 -20 OFFCURVE",
"1090 169 OFFCURVE",
"1095 437 CURVE SMOOTH",
"1099 664 OFFCURVE",
"903 739 OFFCURVE",
"690 817 CURVE SMOOTH",
"482 893 OFFCURVE",
"412 953 OFFCURVE",
"414 1050 CURVE SMOOTH",
"416 1209 OFFCURVE",
"531 1278 OFFCURVE",
"694 1278 CURVE SMOOTH",
"856 1278 OFFCURVE",
"934 1196 OFFCURVE",
"934 1059 CURVE",
"1143 1059 LINE",
"1149 1341 OFFCURVE",
"993 1477 OFFCURVE",
"701 1477 CURVE SMOOTH",
"394 1477 OFFCURVE",
"203 1295 OFFCURVE",
"198 1037 CURVE SMOOTH",
"195 839 OFFCURVE",
"365 706 OFFCURVE",
"584 637 CURVE SMOOTH",
"777 576 OFFCURVE",
"878 530 OFFCURVE",
"875 406 CURVE SMOOTH",
"873 271 OFFCURVE",
"749 179 OFFCURVE",
"571 179 CURVE SMOOTH",
"410 179 OFFCURVE",
"269 238 OFFCURVE",
"294 450 CURVE",
"76 450 LINE",
"34 110 OFFCURVE",
"296 -20 OFFCURVE",
"553 -20 CURVE SMOOTH"
);
}
);
width = 1200;
},
{
anchors = (
{
name = bottom;
position = "{567, 0}";
},
{
name = top;
position = "{730, 1454}";
}
);
layerId = "BF6BC6F6-4B2A-4E9B-9E28-8B62B2F12FD9";
paths = (
{
closed = 1;
nodes = (
"885 -20 OFFCURVE",
"1106 160 OFFCURVE",
"1111 440 CURVE SMOOTH",
"1116 697 OFFCURVE",
"914 755 OFFCURVE",
"711 850 CURVE SMOOTH",
"552 924 OFFCURVE",
"494 964 OFFCURVE",
"496 1052 CURVE SMOOTH",
"498 1168 OFFCURVE",
"583 1208 OFFCURVE",
"692 1208 CURVE SMOOTH",
"797 1208 OFFCURVE",
"863 1144 OFFCURVE",
"848 1028 CURVE",
"1140 1028 LINE",
"1170 1324 OFFCURVE",
"1003 1477 OFFCURVE",
"729 1477 CURVE SMOOTH",
"398 1477 OFFCURVE",
"191 1304 OFFCURVE",
"185 1029 CURVE SMOOTH",
"181 821 OFFCURVE",
"324 704 OFFCURVE",
"543 606 CURVE SMOOTH",
"714 529 OFFCURVE",
"793 496 OFFCURVE",
"791 399 CURVE SMOOTH",
"790 307 OFFCURVE",
"709 247 OFFCURVE",
"577 247 CURVE SMOOTH",
"408 247 OFFCURVE",
"357 331 OFFCURVE",
"377 470 CURVE",
"77 470 LINE",
"20 133 OFFCURVE",
"293 -20 OFFCURVE",
"533 -20 CURVE SMOOTH"
);
}
);
width = 1200;
},
{
anchors = (
{
name = bottom;
position = "{560, -8}";
},
{
name = top;
position = "{741, 1454}";
}
);
layerId = "099DAB3F-15EF-4A0D-A0EC-988B8C582406";
paths = (
{
closed = 1;
nodes = (
"877 -20 OFFCURVE",
"1080 160 OFFCURVE",
"1084 419 CURVE SMOOTH",
"1088 655 OFFCURVE",
"884 728 OFFCURVE",
"678 805 CURVE SMOOTH",
"472 882 OFFCURVE",
"390 944 OFFCURVE",
"392 1056 CURVE SMOOTH",
"395 1223 OFFCURVE",
"514 1310 OFFCURVE",
"697 1310 CURVE SMOOTH",
"896 1310 OFFCURVE",
"958 1206 OFFCURVE",
"957 1071 CURVE",
"1134 1071 LINE",
"1140 1344 OFFCURVE",
"985 1477 OFFCURVE",
"708 1477 CURVE SMOOTH",
"406 1477 OFFCURVE",
"216 1298 OFFCURVE",
"212 1043 CURVE SMOOTH",
"208 845 OFFCURVE",
"377 727 OFFCURVE",
"591 654 CURVE SMOOTH",
"793 584 OFFCURVE",
"903 541 OFFCURVE",
"900 394 CURVE SMOOTH",
"898 255 OFFCURVE",
"766 148 OFFCURVE",
"572 148 CURVE SMOOTH",
"385 148 OFFCURVE",
"239 222 OFFCURVE",
"267 438 CURVE",
"83 438 LINE",
"42 118 OFFCURVE",
"293 -20 OFFCURVE",
"554 -20 CURVE SMOOTH"
);
}
);
width = 1200;
}
);
unicode = 0053;
userData = {
KernOnName = S;
};
},
{
glyphname = Germandbls;
lastChange = "2022-05-06 15:57:35 +0000";
layers = (
{
layerId = "0D9D1AFE-BAFC-449A-A530-9FCA9CDF2E2E";
paths = (
{
closed = 1;
nodes = (
"447 -5 OFFCURVE",
"485 -10 OFFCURVE",
"560 -10 CURVE SMOOTH",
"905 -10 OFFCURVE",
"1132 181 OFFCURVE",
"1132 484 CURVE SMOOTH",
"1132 650 OFFCURVE",
"1034 818 OFFCURVE",
"719 817 CURVE",
"759 831 OFFCURVE",
"779 856 OFFCURVE",
"795 876 CURVE",
"1194 1454 LINE",
"253 1454 LINE",
"78 0 LINE",
"202 0 LINE",
"364 1347 LINE",
"902 1347 LINE",
"989 1361 LINE",
"922 1271 LINE",
"538 715 LINE",
"668 715 LINE SMOOTH",
"945 715 OFFCURVE",
"1001 622 OFFCURVE",
"1001 472 CURVE SMOOTH",
"1001 257 OFFCURVE",
"849 107 OFFCURVE",
"589 107 CURVE SMOOTH",
"505 107 OFFCURVE",
"461 114 OFFCURVE",
"393 120 CURVE",
"378 2 LINE"
);
}
);
width = 1200;
},
{
layerId = "09AB1441-CF14-483D-884E-606841830E4D";
paths = (
{
closed = 1;
nodes = (
"472 -7 OFFCURVE",
"541 -14 OFFCURVE",
"608 -14 CURVE SMOOTH",
"903 -14 OFFCURVE",
"1145 193 OFFCURVE",
"1145 490 CURVE SMOOTH",
"1145 648 OFFCURVE",
"1072 836 OFFCURVE",
"816 869 CURVE",
"875 869 OFFCURVE",
"927 931 OFFCURVE",
"963 991 CURVE SMOOTH",
"1237 1454 LINE",
"241 1454 LINE",
"68 0 LINE",
"290 0 LINE",
"438 1258 LINE",
"832 1258 LINE",
"888 1274 LINE",
"839 1193 LINE",
"549 705 LINE",
"638 705 LINE SMOOTH",
"823 705 OFFCURVE",
"917 617 OFFCURVE",
"917 479 CURVE SMOOTH",
"917 316 OFFCURVE",
"797 181 OFFCURVE",
"622 181 CURVE SMOOTH",
"556 181 OFFCURVE",
"501 189 OFFCURVE",
"449 207 CURVE",
"425 7 LINE"
);
}
);
width = 1200;
},
{
layerId = "BF6BC6F6-4B2A-4E9B-9E28-8B62B2F12FD9";
paths = (
{
closed = 1;
nodes = (
"495 -10 OFFCURVE",
"597 -11 OFFCURVE",
"602 -11 CURVE SMOOTH",
"948 -11 OFFCURVE",
"1173 200 OFFCURVE",
"1173 507 CURVE SMOOTH",
"1173 689 OFFCURVE",
"1086 825 OFFCURVE",
"881 866 CURVE",
"952 877 OFFCURVE",
"997 904 OFFCURVE",
"1038 976 CURVE SMOOTH",
"1310 1454 LINE",
"223 1454 LINE",
"40 0 LINE",
"341 0 LINE",
"502 1217 LINE",
"807 1217 LINE",
"884 1233 LINE",
"803 1114 LINE",
"517 668 LINE",
"570 668 LINE SMOOTH",
"777 668 OFFCURVE",
"852 624 OFFCURVE",
"852 489 CURVE SMOOTH",
"852 372 OFFCURVE",
"755 265 OFFCURVE",
"619 265 CURVE SMOOTH",
"577 265 OFFCURVE",
"513 272 OFFCURVE",
"490 278 CURVE",
"454 -1 LINE"
);
}
);
width = 1200;
},
{
layerId = "099DAB3F-15EF-4A0D-A0EC-988B8C582406";
paths = (
{
closed = 1;
nodes = (
"463 -6 OFFCURVE",
"520 -13 OFFCURVE",
"590 -13 CURVE SMOOTH",
"904 -13 OFFCURVE",
"1140 189 OFFCURVE",
"1140 488 CURVE SMOOTH",
"1140 649 OFFCURVE",
"1058 829 OFFCURVE",
"780 850 CURVE",
"832 855 OFFCURVE",
"872 903 OFFCURVE",
"900 948 CURVE",
"1221 1454 LINE",
"246 1454 LINE",
"72 0 LINE",
"257 0 LINE",
"410 1291 LINE",
"858 1291 LINE",
"926 1307 LINE",
"870 1222 LINE",
"545 709 LINE",
"649 709 LINE SMOOTH",
"869 709 OFFCURVE",
"949 619 OFFCURVE",
"949 476 CURVE SMOOTH",
"949 294 OFFCURVE",
"817 153 OFFCURVE",
"610 153 CURVE SMOOTH",
"537 153 OFFCURVE",
"486 161 OFFCURVE",
"428 174 CURVE",
"407 5 LINE"
);
}
);
width = 1200;
}
);
unicode = 1E9E;
userData = {
KernOnName = Germandbls;
};
},
{
glyphname = Schwa;
lastChange = "2022-05-06 15:57:35 +0000";
layers = (
{
anchors = (
{
name = bottom;
position = "{599, 0}";
},
{
name = top;
position = "{778, 1454}";
}
);
layerId = "0D9D1AFE-BAFC-449A-A530-9FCA9CDF2E2E";
paths = (
{
closed = 1;
nodes = (
"896 -30 OFFCURVE",
"1139 368 OFFCURVE",
"1139 920 CURVE SMOOTH",
"1139 1286 OFFCURVE",
"979 1483 OFFCURVE",
"691 1483 CURVE SMOOTH",
"470 1483 OFFCURVE",
"263 1339 OFFCURVE",
"181 1047 CURVE",
"312 1047 LINE",
"364 1196 OFFCURVE",
"493 1367 OFFCURVE",
"688 1367 CURVE SMOOTH",
"916 1367 OFFCURVE",
"1010 1211 OFFCURVE",
"1010 906 CURVE SMOOTH",
"1010 441 OFFCURVE",
"811 84 OFFCURVE",
"546 84 CURVE SMOOTH",
"323 84 OFFCURVE",
"210 276 OFFCURVE",
"230 625 CURVE",
"242 692 LINE",
"109 730 LINE",
"105 693 OFFCURVE",
"98 634 OFFCURVE",
"98 547 CURVE",
"99 184 OFFCURVE",
"267 -30 OFFCURVE",
"526 -30 CURVE SMOOTH"
);
},
{
closed = 1;
nodes = (
"1033 615 LINE",
"1048 730 LINE",
"109 730 LINE",
"126 615 LINE"
);
}
);
width = 1200;
},
{
anchors = (
{
name = bottom;
position = "{600, 0}";
},
{
name = top;
position = "{779, 1454}";
}
);
layerId = "09AB1441-CF14-483D-884E-606841830E4D";
paths = (
{
closed = 1;
nodes = (
"901 -29 OFFCURVE",
"1152 354 OFFCURVE",
"1152 913 CURVE SMOOTH",
"1152 1281 OFFCURVE",
"994 1481 OFFCURVE",
"704 1481 CURVE SMOOTH",
"437 1481 OFFCURVE",
"248 1290 OFFCURVE",
"172 1047 CURVE",
"400 1047 LINE",
"429 1145 OFFCURVE",
"520 1279 OFFCURVE",
"690 1279 CURVE SMOOTH",
"828 1279 OFFCURVE",
"929 1177 OFFCURVE",
"929 923 CURVE SMOOTH",
"929 460 OFFCURVE",
"785 173 OFFCURVE",
"553 173 CURVE SMOOTH",
"399 173 OFFCURVE",
"301 294 OFFCURVE",
"309 600 CURVE",
"316 673 LINE",
"99 770 LINE",
"91 731 OFFCURVE",
"80 668 OFFCURVE",
"80 602 CURVE",
"80 179 OFFCURVE",
"255 -29 OFFCURVE",
"528 -29 CURVE SMOOTH"
);
},
{
closed = 1;
nodes = (
"983 586 LINE",
"1008 770 LINE",
"99 770 LINE",
"108 586 LINE"
);
}
);
width = 1200;
},
{
anchors = (
{
name = bottom;
position = "{600, 0}";
},
{
name = top;
position = "{778, 1454}";
}
);
layerId = "BF6BC6F6-4B2A-4E9B-9E28-8B62B2F12FD9";
paths = (
{
closed = 1;
nodes = (
"913 -29 OFFCURVE",
"1174 360 OFFCURVE",
"1174 923 CURVE SMOOTH",
"1174 1281 OFFCURVE",
"1022 1483 OFFCURVE",
"721 1483 CURVE SMOOTH",
"343 1483 OFFCURVE",
"193 1216 OFFCURVE",
"173 1018 CURVE",
"484 1018 LINE",
"525 1162 OFFCURVE",
"597 1199 OFFCURVE",
"689 1199 CURVE SMOOTH",
"808 1199 OFFCURVE",
"854 1091 OFFCURVE",
"854 912 CURVE SMOOTH",
"854 512 OFFCURVE",
"744 256 OFFCURVE",
"560 256 CURVE SMOOTH",
"430 256 OFFCURVE",
"362 360 OFFCURVE",
"390 642 CURVE",
"397 729 LINE",
"102 816 LINE",
"96 781 OFFCURVE",
"90 745 OFFCURVE",
"84 710 CURVE",
"10 170 OFFCURVE",
"278 -29 OFFCURVE",
"526 -29 CURVE SMOOTH"
);
},
{
closed = 1;
nodes = (
"918 576 LINE",
"945 816 LINE",
"102 816 LINE",
"121 576 LINE"
);
}
);
width = 1200;
},
{
anchors = (
{
name = bottom;
position = "{600, 0}";
},
{
name = top;
position = "{779, 1454}";
}
);
layerId = "099DAB3F-15EF-4A0D-A0EC-988B8C582406";
paths = (
{
closed = 1;
nodes = (
"899 -29 OFFCURVE",
"1147 359 OFFCURVE",
"1147 916 CURVE SMOOTH",
"1147 1283 OFFCURVE",
"988 1482 OFFCURVE",
"699 1482 CURVE SMOOTH",
"449 1482 OFFCURVE",
"254 1308 OFFCURVE",
"175 1047 CURVE",
"367 1047 LINE",
"405 1164 OFFCURVE",
"510 1312 OFFCURVE",
"689 1312 CURVE SMOOTH",
"861 1312 OFFCURVE",
"959 1190 OFFCURVE",
"959 917 CURVE SMOOTH",
"959 453 OFFCURVE",
"795 140 OFFCURVE",
"550 140 CURVE SMOOTH",
"371 140 OFFCURVE",
"267 287 OFFCURVE",
"279 609 CURVE",
"288 680 LINE",
"103 755 LINE",
"96 717 OFFCURVE",
"87 655 OFFCURVE",
"87 581 CURVE",
"87 181 OFFCURVE",
"260 -29 OFFCURVE",
"527 -29 CURVE SMOOTH"
);
},
{
closed = 1;
nodes = (
"1002 597 LINE",
"1023 755 LINE",
"103 755 LINE",
"115 597 LINE"
);
}
);
width = 1200;
}
);
unicode = 018F;
},
{
glyphname = T;
lastChange = "2022-05-06 15:57:35 +0000";
layers = (
{
anchors = (
{
name = bottom;
position = "{534, 0}";
},
{
name = center;
position = "{596, 727}";
},
{
name = top;
position = "{697, 1454}";
}
);
layerId = "0D9D1AFE-BAFC-449A-A530-9FCA9CDF2E2E";
paths = (
{
closed = 1;
nodes = (
"566 0 LINE",
"736 1337 LINE",
"1171 1337 LINE",
"1186 1454 LINE",
"184 1454 LINE",
"169 1337 LINE",
"653 1337 LINE",
"627 1327 OFFCURVE",
"598 1295 OFFCURVE",
"591 1238 CURVE SMOOTH",
"433 0 LINE"
);
}
);
width = 1200;
},
{
anchors = (
{
name = bottom;
position = "{522, 0}";
},
{
name = center;
position = "{605, 727}";
},
{
name = top;
position = "{699, 1454}";
}
);
layerId = "09AB1441-CF14-483D-884E-606841830E4D";
paths = (
{
closed = 1;
nodes = (
"627 0 LINE",
"781 1254 LINE",
"1169 1254 LINE",
"1194 1454 LINE",
"194 1454 LINE",
"169 1254 LINE",
"610 1254 LINE",
"572 1242 OFFCURVE",
"552 1210 OFFCURVE",
"547 1171 CURVE SMOOTH",
"403 0 LINE"
);
}
);
width = 1200;
},
{
anchors = (
{
name = bottom;
position = "{530, 0}";
},
{
name = center;
position = "{611, 721}";
},
{
name = top;
position = "{729, 1454}";
}
);
layerId = "BF6BC6F6-4B2A-4E9B-9E28-8B62B2F12FD9";
paths = (
{
closed = 1;
nodes = (
"682 0 LINE",
"826 1173 LINE",
"1192 1173 LINE",
"1227 1454 LINE",
"175 1454 LINE",
"140 1173 LINE",
"606 1173 LINE",
"535 1163 OFFCURVE",
"501 1120 OFFCURVE",
"492 1048 CURVE SMOOTH",
"363 0 LINE"
);
}
);
width = 1200;
},
{
anchors = (
{
name = bottom;
position = "{527, 0}";
},
{
name = center;
position = "{602, 727}";
},
{
name = top;
position = "{698, 1454}";
}
);
layerId = "099DAB3F-15EF-4A0D-A0EC-988B8C582406";
paths = (
{
closed = 1;
nodes = (
"604 0 LINE",
"764 1285 LINE",
"1170 1285 LINE",
"1191 1454 LINE",
"190 1454 LINE",
"169 1285 LINE",
"626 1285 LINE",
"593 1274 OFFCURVE",
"569 1242 OFFCURVE",
"564 1196 CURVE SMOOTH",
"414 0 LINE"
);
}
);
width = 1200;
}
);
unicode = 0054;
userData = {
KernOnName = T;
};
},
{
glyphname = U;
lastChange = "2022-05-06 15:57:35 +0000";
layers = (
{
anchors = (
{
name = bottom;
position = "{530, 0}";
},
{
name = ogonek;
position = "{690, 0}";
},
{
name = top;
position = "{725, 1454}";
},
{
name = topright;
position = "{1367, 1454}";
}
);
layerId = "0D9D1AFE-BAFC-449A-A530-9FCA9CDF2E2E";
paths = (
{
closed = 1;
nodes = (
"850 -20 OFFCURVE",
"1041 170 OFFCURVE",
"1085 526 CURVE SMOOTH",
"1199 1454 LINE",
"1074 1454 LINE",
"960 524 LINE SMOOTH",
"921 204 OFFCURVE",
"762 97 OFFCURVE",
"545 97 CURVE SMOOTH",
"396 97 OFFCURVE",
"201 204 OFFCURVE",
"240 524 CURVE SMOOTH",
"354 1456 LINE",
"229 1456 LINE",
"115 526 LINE SMOOTH",
"71 170 OFFCURVE",
"285 -20 OFFCURVE",
"532 -20 CURVE SMOOTH"
);
}
);
width = 1200;
},
{
anchors = (
{
name = bottom;
position = "{542, 0}";
},
{
name = ogonek;
position = "{707, 2}";
},
{
name = top;
position = "{729, 1454}";
},
{
name = topright;
position = "{1381, 1454}";
}
);
layerId = "09AB1441-CF14-483D-884E-606841830E4D";
paths = (
{
closed = 1;
nodes = (
"805 -20 OFFCURVE",
"1040 126 OFFCURVE",
"1088 516 CURVE SMOOTH",
"1203 1454 LINE",
"979 1454 LINE",
"869 554 LINE SMOOTH",
"837 296 OFFCURVE",
"729 187 OFFCURVE",
"569 187 CURVE SMOOTH",
"400 187 OFFCURVE",
"314 281 OFFCURVE",
"347 554 CURVE SMOOTH",
"457 1456 LINE",
"233 1456 LINE",
"118 516 LINE SMOOTH",
"70 126 OFFCURVE",
"291 -20 OFFCURVE",
"542 -20 CURVE SMOOTH"
);
}
);
width = 1200;
},
{
anchors = (
{
name = bottom;
position = "{510, 0}";
},
{
name = ogonek;
position = "{729, 10}";
},
{
name = top;
position = "{730, 1454}";
},
{
name = topright;
position = "{1348, 1454}";
}
);
layerId = "BF6BC6F6-4B2A-4E9B-9E28-8B62B2F12FD9";
paths = (
{
closed = 1;
nodes = (
"846 -20 OFFCURVE",
"1076 179 OFFCURVE",
"1121 538 CURVE SMOOTH",
"1235 1454 LINE",
"921 1454 LINE",
"813 583 LINE SMOOTH",
"785 358 OFFCURVE",
"706 260 OFFCURVE",
"568 260 CURVE SMOOTH",
"407 260 OFFCURVE",
"370 362 OFFCURVE",
"397 583 CURVE SMOOTH",
"504 1456 LINE",
"190 1456 LINE",
"77 538 LINE SMOOTH",
"32 173 OFFCURVE",
"228 -20 OFFCURVE",
"530 -20 CURVE SMOOTH"
);
}
);
width = 1200;
},
{
anchors = (
{
name = bottom;
position = "{538, 0}";
},
{
name = ogonek;
position = "{701, 1}";
},
{
name = top;
position = "{728, 1454}";
},
{
name = topright;
position = "{1376, 1454}";
}
);
layerId = "099DAB3F-15EF-4A0D-A0EC-988B8C582406";
paths = (
{
closed = 1;
nodes = (
"822 -20 OFFCURVE",
"1040 143 OFFCURVE",
"1087 520 CURVE SMOOTH",
"1202 1454 LINE",
"1015 1454 LINE",
"903 543 LINE SMOOTH",
"869 262 OFFCURVE",
"741 153 OFFCURVE",
"560 153 CURVE SMOOTH",
"399 153 OFFCURVE",
"272 252 OFFCURVE",
"307 543 CURVE SMOOTH",
"418 1456 LINE",
"232 1456 LINE",
"117 520 LINE SMOOTH",
"70 143 OFFCURVE",
"289 -20 OFFCURVE",
"538 -20 CURVE SMOOTH"
);
}
);
width = 1200;
}
);
unicode = 0055;
userData = {
KernOnName = U;
};
},
{
glyphname = V;
lastChange = "2022-05-06 15:57:35 +0000";
layers = (
{
anchors = (
{
name = bottom;
position = "{601, 0}";
},
{
name = top;
position = "{780, 1454}";
}
);
layerId = "0D9D1AFE-BAFC-449A-A530-9FCA9CDF2E2E";
paths = (
{
closed = 1;
nodes = (
"615 0 LINE",
"1269 1454 LINE",
"1136 1454 LINE",
"654 347 LINE",
"553 124 LINE",
"546 124 LINE",
"499 347 LINE",
"287 1454 LINE",
"154 1454 LINE",
"452 0 LINE"
);
}
);
width = 1200;
},
{
anchors = (
{
name = bottom;
position = "{587, 0}";
},
{
name = top;
position = "{780, 1454}";
}
);
layerId = "09AB1441-CF14-483D-884E-606841830E4D";
paths = (
{
closed = 1;
nodes = (
"689 0 LINE",
"1294 1454 LINE",
"1037 1454 LINE",
"663 479 LINE",
"567 210 LINE",
"551 210 LINE",
"522 479 LINE",
"416 1454 LINE",
"161 1454 LINE",
"378 0 LINE"
);
}
);
width = 1200;
},
{
anchors = (
{
name = bottom;
position = "{529, 0}";
},
{
name = top;
position = "{708, 1454}";
}
);
layerId = "BF6BC6F6-4B2A-4E9B-9E28-8B62B2F12FD9";
paths = (
{
closed = 1;
nodes = (
"740 0 LINE",
"1313 1454 LINE",
"979 1454 LINE",
"667 586 LINE",
"564 268 LINE",
"558 268 LINE",
"530 586 LINE",
"452 1454 LINE",
"118 1454 LINE",
"314 0 LINE"
);
}
);
width = 1200;
},
{
anchors = (
{
name = bottom;
position = "{592, 0}";
},
{
name = top;
position = "{780, 1454}";
}
);
layerId = "099DAB3F-15EF-4A0D-A0EC-988B8C582406";
paths = (
{
closed = 1;
nodes = (
"661 0 LINE",
"1285 1454 LINE",
"1074 1454 LINE",
"660 430 LINE",
"562 178 LINE",
"549 178 LINE",
"513 430 LINE",
"368 1454 LINE",
"158 1454 LINE",
"406 0 LINE"
);
}
);
width = 1200;
}
);
unicode = 0056;
userData = {
KernOnName = V;
};
},
{
glyphname = W;
lastChange = "2022-05-06 15:57:35 +0000";
layers = (
{
anchors = (
{
name = bottom;
position = "{556, 0}";
},
{
name = top;
position = "{729, 1454}";
}
);
layerId = "0D9D1AFE-BAFC-449A-A530-9FCA9CDF2E2E";
paths = (
{
closed = 1;
nodes = (
"316 0 LINE",
"520 582 LINE SMOOTH",
"573 734 OFFCURVE",
"623 929 OFFCURVE",
"647 1012 CURVE",
"651 1012 LINE",
"657 859 OFFCURVE",
"656 735 OFFCURVE",
"672 582 CURVE SMOOTH",
"732 0 LINE",
"892 0 LINE",
"1308 1454 LINE",
"1184 1454 LINE",
"989 769 LINE SMOOTH",
"927 551 OFFCURVE",
"880 342 OFFCURVE",
"825 111 CURVE",
"816 111 LINE",
"785 597 LINE",
"746 1113 LINE",
"575 1113 LINE",
"411 597 LINE",
"255 111 LINE",
"247 111 LINE",
"246 330 OFFCURVE",
"258 550 OFFCURVE",
"249 769 CURVE SMOOTH",
"222 1454 LINE",
"98 1454 LINE",
"156 0 LINE"
);
}
);
width = 1200;
},
{
anchors = (
{
name = bottom;
position = "{561, 0}";
},
{
name = top;
position = "{689, 1454}";
}
);
layerId = "09AB1441-CF14-483D-884E-606841830E4D";
paths = (
{
closed = 1;
nodes = (
"393 0 LINE",
"521 464 LINE SMOOTH",
"564 618 OFFCURVE",
"598 751 OFFCURVE",
"631 901 CURVE",
"637 901 LINE",
"633 745 OFFCURVE",
"634 623 OFFCURVE",
"639 464 CURVE SMOOTH",
"655 0 LINE",
"931 0 LINE",
"1312 1454 LINE",
"1072 1454 LINE",
"845 397 LINE SMOOTH",
"830 328 OFFCURVE",
"810 286 OFFCURVE",
"793 191 CURVE",
"785 191 LINE",
"794 520 LINE",
"778 1115 LINE",
"540 1115 LINE",
"380 520 LINE",
"309 191 LINE",
"302 191 LINE",
"308 286 OFFCURVE",
"297 327 OFFCURVE",
"299 397 CURVE SMOOTH",
"333 1454 LINE",
"92 1454 LINE",
"117 0 LINE"
);
}
);
width = 1200;
},
{
anchors = (
{
name = bottom;
position = "{563, 0}";
},
{
name = top;
position = "{734, 1454}";
}
);
layerId = "BF6BC6F6-4B2A-4E9B-9E28-8B62B2F12FD9";
paths = (
{
closed = 1;
nodes = (
"443 0 LINE",
"552 435 LINE SMOOTH",
"584 561 OFFCURVE",
"611 655 OFFCURVE",
"644 866 CURVE",
"650 866 LINE",
"637 653 OFFCURVE",
"636 553 OFFCURVE",
"634 435 CURVE SMOOTH",
"627 0 LINE",
"967 0 LINE",
"1345 1454 LINE",
"1028 1454 LINE",
"838 405 LINE SMOOTH",
"829 355 OFFCURVE",
"821 308 OFFCURVE",
"809 191 CURVE",
"801 191 LINE",
"815 533 LINE",
"852 1134 LINE",
"515 1134 LINE",
"395 533 LINE",
"325 191 LINE",
"318 191 LINE",
"330 282 OFFCURVE",
"334 333 OFFCURVE",
"338 405 CURVE SMOOTH",
"401 1454 LINE",
"88 1454 LINE",
"110 0 LINE"
);
}
);
width = 1200;
},
{
anchors = (
{
name = bottom;
position = "{559, 0}";
},
{
name = top;
position = "{704, 1454}";
}
);
layerId = "099DAB3F-15EF-4A0D-A0EC-988B8C582406";
paths = (
{
closed = 1;
nodes = (
"364 0 LINE",
"521 508 LINE SMOOTH",
"567 662 OFFCURVE",
"607 818 OFFCURVE",
"637 943 CURVE",
"642 943 LINE",
"642 788 OFFCURVE",
"642 665 OFFCURVE",
"651 508 CURVE SMOOTH",
"684 0 LINE",
"916 0 LINE",
"1311 1454 LINE",
"1114 1454 LINE",
"899 537 LINE SMOOTH",
"866 412 OFFCURVE",
"836 307 OFFCURVE",
"805 161 CURVE",
"797 161 LINE",
"791 549 LINE",
"766 1114 LINE",
"553 1114 LINE",
"392 549 LINE",
"289 161 LINE",
"281 161 LINE",
"285 303 OFFCURVE",
"282 411 OFFCURVE",
"280 537 CURVE SMOOTH",
"291 1454 LINE",
"94 1454 LINE",
"132 0 LINE"
);
}
);
width = 1200;
}
);
unicode = 0057;
userData = {
KernOnName = W;
};
},
{
glyphname = X;
lastChange = "2022-05-06 15:57:35 +0000";
layers = (
{
anchors = (
{
name = bottom;
position = "{523, 0}";
},
{
name = top;
position = "{702, 1454}";
}
);
layerId = "0D9D1AFE-BAFC-449A-A530-9FCA9CDF2E2E";
paths = (
{
closed = 1;
nodes = (
"138 0 LINE",
"351 296 LINE",
"596 652 LINE",
"774 296 LINE",
"914 0 LINE",
"1067 0 LINE",
"697 720 LINE",
"1249 1454 LINE",
"1096 1454 LINE",
"877 1148 LINE",
"626 785 LINE",
"448 1148 LINE",
"302 1454 LINE",
"152 1454 LINE",
"523 729 LINE",
"-19 0 LINE"
);
}
);
width = 1200;
},
{
anchors = (
{
name = bottom;
position = "{600, 0}";
},
{
name = top;
position = "{779, 1454}";
}
);
layerId = "09AB1441-CF14-483D-884E-606841830E4D";
paths = (
{
closed = 1;
nodes = (
"267 0 LINE",
"452 296 LINE",
"620 574 LINE",
"723 298 LINE",
"849 0 LINE",
"1114 0 LINE",
"774 724 LINE",
"1293 1454 LINE",
"1012 1454 LINE",
"828 1146 LINE",
"662 882 LINE",
"558 1148 LINE",
"436 1454 LINE",
"170 1454 LINE",
"501 724 LINE",
"-9 0 LINE"
);
}
);
width = 1200;
},
{
anchors = (
{
name = bottom;
position = "{591, 0}";
},
{
name = top;
position = "{770, 1454}";
}
);
layerId = "BF6BC6F6-4B2A-4E9B-9E28-8B62B2F12FD9";
paths = (
{
closed = 1;
nodes = (
"307 0 LINE",
"498 313 LINE",
"628 552 LINE",
"701 315 LINE",
"816 0 LINE",
"1160 0 LINE",
"855 724 LINE",
"1331 1454 LINE",
"992 1454 LINE",
"816 1149 LINE",
"677 898 LINE",
"595 1151 LINE",
"493 1454 LINE",
"151 1454 LINE",
"451 724 LINE",
"-36 0 LINE"
);
}
);
width = 1200;
},
{
anchors = (
{
name = bottom;
position = "{571, 0}";
},
{
name = top;
position = "{750, 1454}";
}
);
layerId = "099DAB3F-15EF-4A0D-A0EC-988B8C582406";
paths = (
{
closed = 1;
nodes = (
"219 0 LINE",
"414 296 LINE",
"611 603 LINE",
"742 297 LINE",
"873 0 LINE",
"1096 0 LINE",
"745 723 LINE",
"1277 1454 LINE",
"1044 1454 LINE",
"846 1147 LINE",
"649 846 LINE",
"517 1148 LINE",
"386 1454 LINE",
"163 1454 LINE",
"509 726 LINE",
"-13 0 LINE"
);
}
);
width = 1200;
}
);
unicode = 0058;
userData = {
KernOnName = X;
};
},
{
glyphname = Y;
lastChange = "2022-05-06 15:57:35 +0000";
layers = (
{
anchors = (
{
name = bottom;
position = "{500, 0}";
},
{
name = top;
position = "{703, 1454}";
},
{
name = topleft;
position = "{107, 1454}";
}
);
layerId = "0D9D1AFE-BAFC-449A-A530-9FCA9CDF2E2E";
paths = (
{
closed = 1;
nodes = (
"642 520 LINE",
"1248 1454 LINE",
"1102 1454 LINE",
"838 1038 LINE",
"603 654 LINE",
"593 654 LINE",
"450 1038 LINE",
"298 1454 LINE",
"152 1454 LINE",
"528 520 LINE"
);
},
{
closed = 1;
nodes = (
"582 0 LINE",
"653 573 LINE",
"526 573 LINE",
"455 0 LINE"
);
}
);
width = 1200;
},
{
anchors = (
{
name = bottom;
position = "{599, 0}";
},
{
name = top;
position = "{700, 1454}";
},
{
name = topleft;
position = "{177, 1454}";
}
);
layerId = "09AB1441-CF14-483D-884E-606841830E4D";
paths = (
{
closed = 1;
nodes = (
"693 468 LINE",
"1287 1454 LINE",
"1035 1454 LINE",
"814 1067 LINE",
"626 724 LINE",
"608 724 LINE",
"506 1068 LINE",
"382 1454 LINE",
"129 1454 LINE",
"482 468 LINE"
);
},
{
closed = 1;
nodes = (
"639 0 LINE",
"712 591 LINE",
"493 591 LINE",
"420 0 LINE"
);
}
);
width = 1200;
},
{
anchors = (
{
name = bottom;
position = "{524, 0}";
},
{
name = top;
position = "{753, 1454}";
},
{
name = topleft;
position = "{159, 1454}";
}
);
layerId = "BF6BC6F6-4B2A-4E9B-9E28-8B62B2F12FD9";
paths = (
{
closed = 1;
nodes = (
"734 453 LINE",
"1315 1454 LINE",
"979 1454 LINE",
"766 1027 LINE",
"636 769 LINE",
"625 769 LINE",
"560 1028 LINE",
"451 1454 LINE",
"115 1454 LINE",
"450 453 LINE"
);
},
{
closed = 1;
nodes = (
"692 0 LINE",
"772 645 LINE",
"459 645 LINE",
"379 0 LINE"
);
}
);
width = 1200;
},
{
anchors = (
{
name = bottom;
position = "{562, 0}";
},
{
name = top;
position = "{701, 1454}";
},
{
name = topleft;
position = "{151, 1454}";
}
);
layerId = "099DAB3F-15EF-4A0D-A0EC-988B8C582406";
paths = (
{
closed = 1;
nodes = (
"674 488 LINE",
"1272 1454 LINE",
"1060 1454 LINE",
"823 1056 LINE",
"617 698 LINE",
"602 698 LINE",
"485 1057 LINE",
"351 1454 LINE",
"138 1454 LINE",
"499 488 LINE"
);
},
{
closed = 1;
nodes = (
"618 0 LINE",
"690 584 LINE",
"505 584 LINE",
"433 0 LINE"
);
}
);
width = 1200;
}
);
unicode = 0059;
userData = {
KernOnName = Y;
};
},
{
glyphname = Z;
lastChange = "2022-05-06 15:57:35 +0000";
layers = (
{
anchors = (
{
name = bottom;
position = "{530, 0}";
},
{
name = center;
position = "{699, 727}";
},
{
name = top;
position = "{719, 1454}";
}
);
layerId = "0D9D1AFE-BAFC-449A-A530-9FCA9CDF2E2E";
paths = (
{
closed = 1;
nodes = (
"978 0 LINE",
"993 113 LINE",
"458 113 LINE",
"230 106 LINE",
"418 357 LINE",
"1191 1454 LINE",
"286 1454 LINE",
"271 1341 LINE",
"758 1341 LINE",
"984 1344 LINE",
"873 1208 LINE",
"20 0 LINE"
);
}
);
width = 1200;
},
{
anchors = (
{
name = bottom;
position = "{546, 0}";
},
{
name = center;
position = "{689, 727}";
},
{
name = top;
position = "{759, 1454}";
}
);
layerId = "09AB1441-CF14-483D-884E-606841830E4D";
paths = (
{
closed = 1;
nodes = (
"1026 0 LINE",
"1049 191 LINE",
"515 191 LINE",
"367 178 LINE",
"459 282 LINE",
"1265 1454 LINE",
"294 1454 LINE",
"270 1263 LINE",
"799 1263 LINE",
"941 1269 LINE",
"827 1152 LINE",
"34 0 LINE"
);
}
);
width = 1200;
},
{
anchors = (
{
name = bottom;
position = "{540, 0}";
},
{
name = center;
position = "{629, 727}";
},
{
name = top;
position = "{731, 1454}";
}
);
layerId = "BF6BC6F6-4B2A-4E9B-9E28-8B62B2F12FD9";
paths = (
{
closed = 1;
nodes = (
"1028 0 LINE",
"1063 281 LINE",
"629 281 LINE",
"491 274 LINE",
"563 361 LINE",
"1259 1454 LINE",
"242 1454 LINE",
"207 1173 LINE",
"679 1173 LINE",
"800 1181 LINE",
"705 1084 LINE",
"15 0 LINE"
);
}
);
width = 1200;
},
{
anchors = (
{
name = bottom;
position = "{540, 0}";
},
{
name = center;
position = "{693, 727}";
},
{
name = top;
position = "{744, 1454}";
}
);
layerId = "099DAB3F-15EF-4A0D-A0EC-988B8C582406";
paths = (
{
closed = 1;
nodes = (
"1008 0 LINE",
"1028 162 LINE",
"494 162 LINE",
"316 151 LINE",
"444 310 LINE",
"1237 1454 LINE",
"291 1454 LINE",
"270 1292 LINE",
"784 1292 LINE",
"957 1297 LINE",
"844 1173 LINE",
"29 0 LINE"
);
}
);
width = 1200;
}
);
unicode = 005A;
userData = {
KernOnName = Z;
};
},
{
glyphname = G.ss06;
lastChange = "2022-05-06 15:57:35 +0000";
layers = (
{
anchors = (
{
name = bottom;
position = "{611, 0}";
},
{
name = top;
position = "{763, 1454}";
}
);
layerId = "0D9D1AFE-BAFC-449A-A530-9FCA9CDF2E2E";
paths = (
{
closed = 1;
nodes = (
"696 -30 OFFCURVE",
"845 46 OFFCURVE",
"915 152 CURVE",
"913 0 LINE",
"1006 0 LINE",
"1099 734 LINE",
"674 734 LINE",
"658 611 LINE",
"958 611 LINE",
"906 201 LINE",
"811 122 OFFCURVE",
"711 90 OFFCURVE",
"553 90 CURVE SMOOTH",
"391 90 OFFCURVE",
"232 260 OFFCURVE",
"232 570 CURVE SMOOTH",
"232 1070 OFFCURVE",
"432 1361 OFFCURVE",
"738 1361 CURVE SMOOTH",
"953 1361 OFFCURVE",
"1000 1238 OFFCURVE",
"1002 1047 CURVE",
"1127 1047 LINE",
"1125 1349 OFFCURVE",
"982 1481 OFFCURVE",
"765 1481 CURVE SMOOTH",
"358 1481 OFFCURVE",
"103 1142 OFFCURVE",
"103 543 CURVE SMOOTH",
"103 181 OFFCURVE",
"347 -30 OFFCURVE",
"554 -30 CURVE SMOOTH"
);
}
);
width = 1200;
},
{
anchors = (
{
name = bottom;
position = "{584, 0}";
},
{
name = top;
position = "{747, 1454}";
}
);
layerId = "09AB1441-CF14-483D-884E-606841830E4D";
paths = (
{
closed = 1;
nodes = (
"687 -29 OFFCURVE",
"813 63 OFFCURVE",
"854 197 CURVE",
"849 0 LINE",
"1015 0 LINE",
"1110 770 LINE",
"669 770 LINE",
"644 568 LINE",
"882 568 LINE",
"844 260 LINE",
"798 206 OFFCURVE",
"711 178 OFFCURVE",
"590 178 CURVE SMOOTH",
"417 178 OFFCURVE",
"324 329 OFFCURVE",
"324 580 CURVE SMOOTH",
"324 993 OFFCURVE",
"485 1274 OFFCURVE",
"723 1274 CURVE SMOOTH",
"869 1274 OFFCURVE",
"941 1195 OFFCURVE",
"936 1027 CURVE",
"1153 1027 LINE",
"1161 1388 OFFCURVE",
"980 1481 OFFCURVE",
"765 1481 CURVE SMOOTH",
"364 1481 OFFCURVE",
"96 1105 OFFCURVE",
"96 547 CURVE SMOOTH",
"96 193 OFFCURVE",
"285 -29 OFFCURVE",
"547 -29 CURVE SMOOTH"
);
}
);
width = 1200;
},
{
anchors = (
{
name = bottom;
position = "{556, 0}";
},
{
name = top;
position = "{743, 1454}";
}
);
layerId = "BF6BC6F6-4B2A-4E9B-9E28-8B62B2F12FD9";
paths = (
{
closed = 1;
nodes = (
"706 -28 OFFCURVE",
"814 69 OFFCURVE",
"857 200 CURVE",
"895 0 LINE",
"1033 0 LINE",
"1133 813 LINE",
"649 813 LINE",
"615 539 LINE",
"843 539 LINE",
"817 330 LINE",
"754 285 OFFCURVE",
"689 267 OFFCURVE",
"595 267 CURVE SMOOTH",
"464 267 OFFCURVE",
"397 374 OFFCURVE",
"397 579 CURVE SMOOTH",
"397 953 OFFCURVE",
"521 1186 OFFCURVE",
"718 1186 CURVE SMOOTH",
"822 1186 OFFCURVE",
"861 1137 OFFCURVE",
"872 990 CURVE",
"1161 990 LINE",
"1196 1315 OFFCURVE",
"1046 1483 OFFCURVE",
"753 1481 CURVE SMOOTH",
"347 1479 OFFCURVE",
"75 1110 OFFCURVE",
"75 565 CURVE SMOOTH",
"75 195 OFFCURVE",
"246 -28 OFFCURVE",
"543 -28 CURVE SMOOTH"
);
}
);
width = 1200;
},
{
anchors = (
{
name = bottom;
position = "{594, 0}";
},
{
name = top;
position = "{753, 1454}";
}
);
layerId = "099DAB3F-15EF-4A0D-A0EC-988B8C582406";
paths = (
{
closed = 1;
nodes = (
"690 -29 OFFCURVE",
"825 57 OFFCURVE",
"877 180 CURVE",
"873 0 LINE",
"1012 0 LINE",
"1106 757 LINE",
"671 757 LINE",
"649 584 LINE",
"911 584 LINE",
"867 238 LINE",
"803 175 OFFCURVE",
"711 145 OFFCURVE",
"576 145 CURVE SMOOTH",
"407 145 OFFCURVE",
"290 303 OFFCURVE",
"290 576 CURVE SMOOTH",
"290 1022 OFFCURVE",
"465 1307 OFFCURVE",
"729 1307 CURVE SMOOTH",
"901 1307 OFFCURVE",
"963 1211 OFFCURVE",
"961 1035 CURVE",
"1143 1035 LINE",
"1148 1373 OFFCURVE",
"981 1481 OFFCURVE",
"765 1481 CURVE SMOOTH",
"362 1481 OFFCURVE",
"99 1119 OFFCURVE",
"99 546 CURVE SMOOTH",
"99 189 OFFCURVE",
"308 -29 OFFCURVE",
"550 -29 CURVE SMOOTH"
);
}
);
width = 1200;
}
);
},
{
glyphname = J.ss07;
lastChange = "2022-05-06 15:57:35 +0000";
layers = (
{
anchors = (
{
name = bottom;
position = "{500, 0}";
},
{
name = top;
position = "{961, 1454}";
}
);
layerId = "0D9D1AFE-BAFC-449A-A530-9FCA9CDF2E2E";
paths = (
{
closed = 1;
nodes = (
"753 -30 OFFCURVE",
"987 113 OFFCURVE",
"1035 501 CURVE SMOOTH",
"1152 1454 LINE",
"612 1454 LINE",
"597 1333 LINE",
"1010 1333 LINE",
"911 521 LINE SMOOTH",
"873 213 OFFCURVE",
"733 87 OFFCURVE",
"504 87 CURVE SMOOTH",
"333 87 OFFCURVE",
"136 200 OFFCURVE",
"229 515 CURVE",
"101 515 LINE",
"2 138 OFFCURVE",
"228 -30 OFFCURVE",
"491 -30 CURVE SMOOTH"
);
}
);
width = 1200;
},
{
anchors = (
{
name = bottom;
position = "{499, 0}";
},
{
name = top;
position = "{938, 1454}";
}
);
layerId = "09AB1441-CF14-483D-884E-606841830E4D";
paths = (
{
closed = 1;
nodes = (
"784 -30 OFFCURVE",
"1002 103 OFFCURVE",
"1054 531 CURVE SMOOTH",
"1167 1454 LINE",
"542 1454 LINE",
"518 1254 LINE",
"911 1254 LINE",
"818 501 LINE SMOOTH",
"783 220 OFFCURVE",
"643 176 OFFCURVE",
"532 176 CURVE SMOOTH",
"392 176 OFFCURVE",
"278 245 OFFCURVE",
"312 515 CURVE",
"96 515 LINE",
"7 139 OFFCURVE",
"218 -30 OFFCURVE",
"509 -30 CURVE SMOOTH"
);
}
);
width = 1200;
},
{
anchors = (
{
name = bottom;
position = "{534, 0}";
},
{
name = top;
position = "{981, 1454}";
}
);
layerId = "BF6BC6F6-4B2A-4E9B-9E28-8B62B2F12FD9";
paths = (
{
closed = 1;
nodes = (
"851 -30 OFFCURVE",
"1052 142 OFFCURVE",
"1099 527 CURVE SMOOTH",
"1212 1454 LINE",
"553 1454 LINE",
"519 1175 LINE",
"854 1175 LINE",
"772 507 LINE SMOOTH",
"751 334 OFFCURVE",
"683 256 OFFCURVE",
"559 256 CURVE SMOOTH",
"442 256 OFFCURVE",
"362 312 OFFCURVE",
"393 555 CURVE",
"75 555 LINE",
"28 117 OFFCURVE",
"211 -30 OFFCURVE",
"530 -30 CURVE SMOOTH"
);
}
);
width = 1200;
},
{
anchors = (
{
name = bottom;
position = "{499, 0}";
},
{
name = top;
position = "{947, 1454}";
}
);
layerId = "099DAB3F-15EF-4A0D-A0EC-988B8C582406";
paths = (
{
closed = 1;
nodes = (
"772 -30 OFFCURVE",
"996 107 OFFCURVE",
"1047 520 CURVE SMOOTH",
"1161 1454 LINE",
"568 1454 LINE",
"548 1284 LINE",
"948 1284 LINE",
"853 509 LINE SMOOTH",
"817 217 OFFCURVE",
"677 143 OFFCURVE",
"522 143 CURVE SMOOTH",
"370 143 OFFCURVE",
"225 228 OFFCURVE",
"281 515 CURVE",
"98 515 LINE",
"5 139 OFFCURVE",
"222 -30 OFFCURVE",
"502 -30 CURVE SMOOTH"
);
}
);
width = 1200;
}
);
userData = {
KernOnName = J;
};
},
{
glyphname = IJ.ss08;
lastChange = "2022-05-06 15:57:35 +0000";
layers = (
{
anchors = (
{
name = bottom;
position = "{549, 0}";
},
{
name = ogonek;
position = "{1010, 0}";
},
{
name = top;
position = "{1145, 1454}";
},
{
name = topleft;
position = "{331, 1454}";
}
);
layerId = "0D9D1AFE-BAFC-449A-A530-9FCA9CDF2E2E";
paths = (
{
closed = 1;
nodes = (
"395 1454 LINE",
"268 1454 LINE",
"89 0 LINE",
"216 0 LINE"
);
},
{
closed = 1;
nodes = (
"865 -29 OFFCURVE",
"1020 94 OFFCURVE",
"1056 383 CURVE SMOOTH",
"1188 1454 LINE",
"1067 1454 LINE",
"1059 1392 LINE",
"1121 1333 LINE",
"1073 1322 OFFCURVE",
"1046 1283 OFFCURVE",
"1038 1218 CURVE SMOOTH",
"938 404 LINE SMOOTH",
"907 151 OFFCURVE",
"770 98 OFFCURVE",
"679 98 CURVE SMOOTH",
"568 98 OFFCURVE",
"469 112 OFFCURVE",
"383 149 CURVE",
"368 21 LINE",
"455 -14 OFFCURVE",
"582 -29 OFFCURVE",
"658 -29 CURVE SMOOTH"
);
},
{
closed = 1;
nodes = (
"1135 1333 LINE",
"1188 1454 LINE",
"637 1454 LINE",
"622 1333 LINE"
);
}
);
width = 1200;
},
{
anchors = (
{
name = bottom;
position = "{550, 0}";
},
{
name = ogonek;
position = "{1009, 0}";
},
{
name = top;
position = "{1097, 1454}";
},
{
name = topleft;
position = "{366, 1454}";
}
);
layerId = "09AB1441-CF14-483D-884E-606841830E4D";
paths = (
{
closed = 1;
nodes = (
"478 1454 LINE",
"249 1454 LINE",
"70 0 LINE",
"299 0 LINE"
);
},
{
closed = 1;
nodes = (
"921 -30 OFFCURVE",
"1046 130 OFFCURVE",
"1074 358 CURVE SMOOTH",
"1209 1454 LINE",
"963 1454 LINE",
"949 1345 LINE",
"1047 1246 LINE",
"975 1240 OFFCURVE",
"935 1182 OFFCURVE",
"920 1060 CURVE SMOOTH",
"833 348 LINE SMOOTH",
"817 216 OFFCURVE",
"756 189 OFFCURVE",
"653 189 CURVE SMOOTH",
"596 189 OFFCURVE",
"524 202 OFFCURVE",
"450 228 CURVE",
"424 20 LINE",
"505 -17 OFFCURVE",
"590 -30 OFFCURVE",
"651 -30 CURVE SMOOTH"
);
},
{
closed = 1;
nodes = (
"1143 1246 LINE",
"1209 1454 LINE",
"657 1454 LINE",
"631 1246 LINE"
);
}
);
width = 1200;
},
{
anchors = (
{
name = bottom;
position = "{540, 0}";
},
{
name = ogonek;
position = "{1025, 0}";
},
{
name = top;
position = "{1090, 1454}";
},
{
name = topleft;
position = "{345, 1454}";
}
);
layerId = "BF6BC6F6-4B2A-4E9B-9E28-8B62B2F12FD9";
paths = (
{
closed = 1;
nodes = (
"501 1454 LINE",
"184 1454 LINE",
"5 0 LINE",
"322 0 LINE"
);
},
{
closed = 1;
nodes = (
"990 -31 OFFCURVE",
"1092 142 OFFCURVE",
"1128 433 CURVE SMOOTH",
"1254 1454 LINE",
"936 1383 LINE",
"925 1293 LINE",
"1020 1175 LINE",
"947 1164 OFFCURVE",
"902 1105 OFFCURVE",
"891 1015 CURVE SMOOTH",
"819 428 LINE SMOOTH",
"800 271 OFFCURVE",
"712 247 OFFCURVE",
"639 247 CURVE SMOOTH",
"578 247 OFFCURVE",
"502 267 OFFCURVE",
"455 281 CURVE",
"421 10 LINE",
"482 -9 OFFCURVE",
"555 -31 OFFCURVE",
"682 -31 CURVE SMOOTH"
);
},
{
closed = 1;
nodes = (
"1164 1175 LINE",
"1254 1454 LINE",
"640 1454 LINE",
"605 1175 LINE"
);
}
);
width = 1200;
},
{
anchors = (
{
name = bottom;
position = "{550, 0}";
},
{
name = ogonek;
position = "{1009, 0}";
},
{
name = top;
position = "{1115, 1454}";
},
{
name = topleft;
position = "{353, 1454}";
}
);
layerId = "099DAB3F-15EF-4A0D-A0EC-988B8C582406";
paths = (
{
closed = 1;
nodes = (
"447 1454 LINE",
"256 1454 LINE",
"77 0 LINE",
"268 0 LINE"
);
},
{
closed = 1;
nodes = (
"900 -30 OFFCURVE",
"1036 117 OFFCURVE",
"1067 367 CURVE SMOOTH",
"1201 1454 LINE",
"1002 1454 LINE",
"990 1363 LINE",
"1075 1279 LINE",
"1012 1271 OFFCURVE",
"977 1220 OFFCURVE",
"964 1119 CURVE SMOOTH",
"872 369 LINE SMOOTH",
"851 192 OFFCURVE",
"761 155 OFFCURVE",
"663 155 CURVE SMOOTH",
"586 155 OFFCURVE",
"503 168 OFFCURVE",
"425 198 CURVE",
"403 20 LINE",
"486 -16 OFFCURVE",
"587 -30 OFFCURVE",
"654 -30 CURVE SMOOTH"
);
},
{
closed = 1;
nodes = (
"1140 1279 LINE",
"1201 1454 LINE",
"650 1454 LINE",
"628 1279 LINE"
);
}
);
width = 1200;
}
);
},
{
glyphname = J.ss08;
lastChange = "2022-05-06 15:57:35 +0000";
layers = (
{
anchors = (
{
name = bottom;
position = "{451, 0}";
},
{
name = top;
position = "{909, 1454}";
}
);
layerId = "0D9D1AFE-BAFC-449A-A530-9FCA9CDF2E2E";
paths = (
{
closed = 1;
nodes = (
"708 -30 OFFCURVE",
"933 103 OFFCURVE",
"980 488 CURVE SMOOTH",
"1099 1454 LINE",
"853 1454 LINE",
"930 1432 LINE",
"1028 1334 LINE",
"956 1328 OFFCURVE",
"949 1269 OFFCURVE",
"934 1148 CURVE SMOOTH",
"856 508 LINE SMOOTH",
"815 172 OFFCURVE",
"662 95 OFFCURVE",
"452 95 CURVE SMOOTH",
"292 95 OFFCURVE",
"160 135 OFFCURVE",
"93 184 CURVE",
"76 45 LINE",
"131 2 OFFCURVE",
"285 -30 OFFCURVE",
"446 -30 CURVE SMOOTH"
);
},
{
closed = 1;
nodes = (
"1044 1334 LINE",
"1099 1454 LINE",
"547 1454 LINE",
"532 1334 LINE"
);
}
);
width = 1200;
},
{
anchors = (
{
name = bottom;
position = "{434, 0}";
},
{
name = top;
position = "{882, 1454}";
}
);
layerId = "09AB1441-CF14-483D-884E-606841830E4D";
paths = (
{
closed = 1;
nodes = (
"815 -30 OFFCURVE",
"944 160 OFFCURVE",
"984 488 CURVE SMOOTH",
"1103 1454 LINE",
"857 1454 LINE",
"844 1345 LINE",
"957 1246 LINE",
"885 1240 OFFCURVE",
"846 1181 OFFCURVE",
"831 1060 CURVE SMOOTH",
"759 478 LINE SMOOTH",
"730 246 OFFCURVE",
"628 189 OFFCURVE",
"468 189 CURVE SMOOTH",
"327 189 OFFCURVE",
"192 232 OFFCURVE",
"107 268 CURVE",
"80 45 LINE",
"178 6 OFFCURVE",
"271 -30 OFFCURVE",
"466 -30 CURVE SMOOTH"
);
},
{
closed = 1;
nodes = (
"1033 1246 LINE",
"1103 1454 LINE",
"551 1454 LINE",
"525 1246 LINE"
);
}
);
width = 1200;
},
{
anchors = (
{
name = bottom;
position = "{482, 0}";
},
{
name = top;
position = "{867, 1454}";
}
);
layerId = "BF6BC6F6-4B2A-4E9B-9E28-8B62B2F12FD9";
paths = (
{
closed = 1;
nodes = (
"858 -31 OFFCURVE",
"960 142 OFFCURVE",
"996 433 CURVE SMOOTH",
"1122 1454 LINE",
"804 1383 LINE",
"783 1293 LINE",
"882 1175 LINE",
"809 1164 OFFCURVE",
"764 1105 OFFCURVE",
"753 1015 CURVE SMOOTH",
"681 428 LINE SMOOTH",
"662 271 OFFCURVE",
"570 247 OFFCURVE",
"497 247 CURVE SMOOTH",
"297 247 OFFCURVE",
"211 277 OFFCURVE",
"126 311 CURVE",
"93 40 LINE",
"191 1 OFFCURVE",
"284 -31 OFFCURVE",
"474 -31 CURVE SMOOTH"
);
},
{
closed = 1;
nodes = (
"1032 1175 LINE",
"1122 1454 LINE",
"458 1454 LINE",
"423 1175 LINE"
);
}
);
width = 1200;
},
{
anchors = (
{
name = bottom;
position = "{440, 0}";
},
{
name = top;
position = "{892, 1454}";
}
);
layerId = "099DAB3F-15EF-4A0D-A0EC-988B8C582406";
paths = (
{
closed = 1;
nodes = (
"775 -30 OFFCURVE",
"940 139 OFFCURVE",
"983 488 CURVE SMOOTH",
"1102 1454 LINE",
"856 1454 LINE",
"876 1378 LINE",
"984 1279 LINE",
"912 1273 OFFCURVE",
"885 1214 OFFCURVE",
"870 1093 CURVE SMOOTH",
"795 489 LINE SMOOTH",
"762 218 OFFCURVE",
"641 154 OFFCURVE",
"462 154 CURVE SMOOTH",
"314 154 OFFCURVE",
"180 196 OFFCURVE",
"102 237 CURVE",
"79 45 LINE",
"160 5 OFFCURVE",
"276 -30 OFFCURVE",
"459 -30 CURVE SMOOTH"
);
},
{
closed = 1;
nodes = (
"1037 1279 LINE",
"1102 1454 LINE",
"550 1454 LINE",
"528 1279 LINE"
);
}
);
width = 1200;
}
);
userData = {
KernOnName = J;
};
},
{
glyphname = M.ss09;
lastChange = "2022-05-06 15:57:35 +0000";
layers = (
{
anchors = (
{
name = bottom;
position = "{538, 0}";
},
{
name = top;
position = "{717, 1454}";
}
);
layerId = "0D9D1AFE-BAFC-449A-A530-9FCA9CDF2E2E";
paths = (
{
closed = 1;
nodes = (
"157 0 LINE",
"281 849 LINE",
"346 1364 LINE",
"352 1364 LINE",
"394 863 LINE",
"503 0 LINE",
"578 0 LINE",
"890 863 LINE",
"1055 1364 LINE",
"1060 1364 LINE",
"999 849 LINE",
"915 0 LINE",
"1036 0 LINE",
"1179 1454 LINE",
"983 1454 LINE",
"686 570 LINE",
"563 190 LINE",
"560 190 LINE",
"531 570 LINE",
"447 1454 LINE",
"251 1454 LINE",
"36 0 LINE"
);
}
);
width = 1200;
},
{
anchors = (
{
name = bottom;
position = "{538, 0}";
},
{
name = top;
position = "{717, 1454}";
}
);
layerId = "09AB1441-CF14-483D-884E-606841830E4D";
paths = (
{
closed = 1;
nodes = (
"212 0 LINE",
"277 412 LINE",
"368 1274 LINE",
"384 1274 LINE",
"402 823 LINE",
"466 0 LINE",
"610 0 LINE",
"868 823 LINE",
"996 1274 LINE",
"1012 1274 LINE",
"896 412 LINE",
"858 0 LINE",
"1057 0 LINE",
"1209 1454 LINE",
"896 1454 LINE",
"670 684 LINE",
"583 370 LINE",
"579 370 LINE",
"571 684 LINE",
"531 1454 LINE",
"219 1454 LINE",
"13 0 LINE"
);
}
);
width = 1200;
},
{
anchors = (
{
name = bottom;
position = "{547, 0}";
},
{
name = top;
position = "{726, 1454}";
}
);
layerId = "BF6BC6F6-4B2A-4E9B-9E28-8B62B2F12FD9";
paths = (
{
closed = 1;
nodes = (
"240 0 LINE",
"330 735 LINE",
"385 1265 LINE",
"393 1265 LINE",
"405 738 LINE",
"417 0 LINE",
"671 0 LINE",
"868 738 LINE",
"1009 1265 LINE",
"1016 1265 LINE",
"942 735 LINE",
"852 0 LINE",
"1117 0 LINE",
"1266 1454 LINE",
"834 1454 LINE",
"619 498 LINE",
"587 299 LINE",
"580 299 LINE",
"593 498 LINE",
"614 1454 LINE",
"184 1454 LINE",
"-25 0 LINE"
);
}
);
width = 1200;
},
{
anchors = (
{
name = bottom;
position = "{538, 0}";
},
{
name = top;
position = "{717, 1454}";
}
);
layerId = "099DAB3F-15EF-4A0D-A0EC-988B8C582406";
paths = (
{
closed = 1;
nodes = (
"191 0 LINE",
"279 576 LINE",
"360 1308 LINE",
"372 1308 LINE",
"399 838 LINE",
"480 0 LINE",
"598 0 LINE",
"876 838 LINE",
"1018 1308 LINE",
"1030 1308 LINE",
"935 576 LINE",
"879 0 LINE",
"1049 0 LINE",
"1198 1454 LINE",
"929 1454 LINE",
"676 641 LINE",
"576 303 LINE",
"572 303 LINE",
"556 641 LINE",
"500 1454 LINE",
"231 1454 LINE",
"22 0 LINE"
);
}
);
width = 1200;
}
);
userData = {
KernOnName = M;
};
},
{
glyphname = W.ss10;
lastChange = "2022-05-06 15:57:35 +0000";
layers = (
{
anchors = (
{
name = bottom;
position = "{559, 0}";
},
{
name = top;
position = "{708, 1454}";
}
);
layerId = "0D9D1AFE-BAFC-449A-A530-9FCA9CDF2E2E";
paths = (
{
closed = 1;
nodes = (
"331 0 LINE",
"555 749 LINE SMOOTH",
"617 955 OFFCURVE",
"645 1164 OFFCURVE",
"696 1371 CURVE",
"700 1371 LINE",
"699 1164 OFFCURVE",
"696 955 OFFCURVE",
"707 749 CURVE SMOOTH",
"747 0 LINE",
"907 0 LINE",
"1313 1454 LINE",
"1189 1454 LINE",
"1004 769 LINE SMOOTH",
"945 550 OFFCURVE",
"895 342 OFFCURVE",
"840 111 CURVE",
"831 111 LINE",
"821 769 LINE",
"794 1454 LINE",
"623 1454 LINE",
"447 769 LINE",
"270 111 LINE",
"262 111 LINE",
"261 330 OFFCURVE",
"276 550 OFFCURVE",
"264 769 CURVE SMOOTH",
"227 1454 LINE",
"103 1454 LINE",
"171 0 LINE"
);
}
);
width = 1200;
},
{
anchors = (
{
name = bottom;
position = "{541, 0}";
},
{
name = top;
position = "{719, 1454}";
}
);
layerId = "09AB1441-CF14-483D-884E-606841830E4D";
paths = (
{
closed = 1;
nodes = (
"410 0 LINE",
"551 568 LINE SMOOTH",
"604 783 OFFCURVE",
"644 1006 OFFCURVE",
"692 1255 CURVE",
"698 1255 LINE",
"685 1019 OFFCURVE",
"668 785 OFFCURVE",
"669 568 CURVE SMOOTH",
"672 0 LINE",
"948 0 LINE",
"1329 1454 LINE",
"1089 1454 LINE",
"872 475 LINE SMOOTH",
"851 380 OFFCURVE",
"827 287 OFFCURVE",
"810 191 CURVE",
"802 191 LINE",
"827 645 LINE",
"838 1454 LINE",
"600 1454 LINE",
"413 645 LINE",
"326 191 LINE",
"319 191 LINE",
"325 286 OFFCURVE",
"324 379 OFFCURVE",
"326 475 CURVE SMOOTH",
"350 1454 LINE",
"109 1454 LINE",
"134 0 LINE"
);
}
);
width = 1200;
},
{
anchors = (
{
name = bottom;
position = "{539, 0}";
},
{
name = top;
position = "{717, 1454}";
}
);
layerId = "BF6BC6F6-4B2A-4E9B-9E28-8B62B2F12FD9";
paths = (
{
closed = 1;
nodes = (
"429 0 LINE",
"559 568 LINE SMOOTH",
"609 787 OFFCURVE",
"644 1003 OFFCURVE",
"685 1215 CURVE",
"691 1215 LINE",
"679 997 OFFCURVE",
"660 784 OFFCURVE",
"657 568 CURVE SMOOTH",
"649 0 LINE",
"956 0 LINE",
"1347 1454 LINE",
"1057 1454 LINE",
"860 475 LINE SMOOTH",
"841 380 OFFCURVE",
"829 309 OFFCURVE",
"808 191 CURVE",
"800 191 LINE",
"825 645 LINE",
"843 1454 LINE",
"592 1454 LINE",
"411 645 LINE",
"324 191 LINE",
"317 191 LINE",
"323 286 OFFCURVE",
"329 379 OFFCURVE",
"334 475 CURVE SMOOTH",
"378 1454 LINE",
"87 1454 LINE",
"122 0 LINE"
);
}
);
width = 1200;
},
{
anchors = (
{
name = bottom;
position = "{548, 0}";
},
{
name = top;
position = "{715, 1454}";
}
);
layerId = "099DAB3F-15EF-4A0D-A0EC-988B8C582406";
paths = (
{
closed = 1;
nodes = (
"380 0 LINE",
"553 636 LINE SMOOTH",
"609 848 OFFCURVE",
"644 1065 OFFCURVE",
"694 1299 CURVE",
"699 1299 LINE",
"690 1073 OFFCURVE",
"679 849 OFFCURVE",
"683 636 CURVE SMOOTH",
"700 0 LINE",
"933 0 LINE",
"1323 1454 LINE",
"1127 1454 LINE",
"922 585 LINE SMOOTH",
"886 444 OFFCURVE",
"853 308 OFFCURVE",
"821 161 CURVE",
"813 161 LINE",
"825 692 LINE",
"822 1454 LINE",
"609 1454 LINE",
"426 692 LINE",
"305 161 LINE",
"298 161 LINE",
"301 303 OFFCURVE",
"306 443 OFFCURVE",
"303 585 CURVE SMOOTH",
"304 1454 LINE",
"107 1454 LINE",
"148 0 LINE"
);
}
);
width = 1200;
}
);
userData = {
KernOnName = W;
};
},
{
glyphname = a;
lastChange = "2022-05-06 15:57:35 +0000";
layers = (
{
anchors = (
{
name = bottom;
position = "{483, 0}";
},
{
name = ogonek;
position = "{944, 0}";
},
{
name = top;
position = "{742, 1091}";
}
);
layerId = "0D9D1AFE-BAFC-449A-A530-9FCA9CDF2E2E";
paths = (
{
closed = 1;
nodes = (
"907 0 LINE",
"1042 1075 LINE",
"918 1049 LINE",
"912 998 LINE",
"829 310 LINE",
"785 0 LINE"
);
},
{
closed = 1;
nodes = (
"589 -12 OFFCURVE",
"782 175 OFFCURVE",
"846 448 CURVE",
"880 520 LINE",
"865 610 LINE",
"755 288 OFFCURVE",
"586 104 OFFCURVE",
"399 104 CURVE SMOOTH",
"283 104 OFFCURVE",
"237 174 OFFCURVE",
"237 355 CURVE SMOOTH",
"237 717 OFFCURVE",
"415 999 OFFCURVE",
"734 999 CURVE SMOOTH",
"797 999 OFFCURVE",
"950 985 OFFCURVE",
"1003 969 CURVE",
"1042 1075 LINE",
"978 1094 OFFCURVE",
"816 1112 OFFCURVE",
"732 1112 CURVE SMOOTH",
"314 1112 OFFCURVE",
"107 705 OFFCURVE",
"107 345 CURVE SMOOTH",
"107 110 OFFCURVE",
"202 -12 OFFCURVE",
"376 -12 CURVE SMOOTH"
);
}
);
width = 1190;
},
{
anchors = (
{
name = bottom;
position = "{470, 0}";
},
{
name = ogonek;
position = "{961, 0}";
},
{
name = top;
position = "{727, 1091}";
}
);
layerId = "09AB1441-CF14-483D-884E-606841830E4D";
paths = (
{
closed = 1;
nodes = (
"943 0 LINE",
"1091 1074 LINE",
"910 1034 LINE",
"856 984 LINE",
"770 427 LINE",
"722 0 LINE"
);
},
{
closed = 1;
nodes = (
"587 -12 OFFCURVE",
"738 193 OFFCURVE",
"800 564 CURVE",
"838 683 LINE",
"817 737 LINE",
"741 370 OFFCURVE",
"611 171 OFFCURVE",
"449 171 CURVE SMOOTH",
"361 171 OFFCURVE",
"328 229 OFFCURVE",
"328 378 CURVE SMOOTH",
"328 674 OFFCURVE",
"464 925 OFFCURVE",
"717 925 CURVE SMOOTH",
"786 925 OFFCURVE",
"996 904 OFFCURVE",
"1026 891 CURVE",
"1091 1074 LINE",
"1033 1089 OFFCURVE",
"895 1112 OFFCURVE",
"736 1112 CURVE SMOOTH",
"371 1112 OFFCURVE",
"99 797 OFFCURVE",
"99 348 CURVE SMOOTH",
"99 102 OFFCURVE",
"179 -12 OFFCURVE",
"353 -12 CURVE SMOOTH"
);
}
);
width = 1200;
},
{
anchors = (
{
name = bottom;
position = "{559, 0}";
},
{
name = ogonek;
position = "{991, 0}";
},
{
name = top;
position = "{733, 1091}";
}
);
layerId = "BF6BC6F6-4B2A-4E9B-9E28-8B62B2F12FD9";
paths = (
{
closed = 1;
nodes = (
"988 0 LINE",
"1131 1063 LINE",
"817 1007 LINE",
"817 919 LINE",
"750 436 LINE",
"714 0 LINE"
);
},
{
closed = 1;
nodes = (
"568 -13 OFFCURVE",
"692 110 OFFCURVE",
"744 361 CURVE",
"795 459 LINE",
"766 532 LINE",
"701 374 OFFCURVE",
"622 242 OFFCURVE",
"485 242 CURVE SMOOTH",
"414 242 OFFCURVE",
"393 317 OFFCURVE",
"393 384 CURVE SMOOTH",
"393 647 OFFCURVE",
"477 874 OFFCURVE",
"717 874 CURVE SMOOTH",
"762 874 OFFCURVE",
"876 862 OFFCURVE",
"1034 843 CURVE",
"1131 1063 LINE",
"1033 1091 OFFCURVE",
"843 1112 OFFCURVE",
"742 1112 CURVE SMOOTH",
"272 1112 OFFCURVE",
"83 724 OFFCURVE",
"83 370 CURVE SMOOTH",
"83 109 OFFCURVE",
"208 -13 OFFCURVE",
"388 -13 CURVE SMOOTH"
);
}
);
width = 1200;
},
{
anchors = (
{
name = bottom;
position = "{475, 0}";
},
{
name = ogonek;
position = "{955, 0}";
},
{
name = top;
position = "{733, 1091}";
}
);
layerId = "099DAB3F-15EF-4A0D-A0EC-988B8C582406";
paths = (
{
closed = 1;
nodes = (
"930 0 LINE",
"1073 1074 LINE",
"913 1040 LINE",
"877 989 LINE",
"792 383 LINE",
"746 0 LINE"
);
},
{
closed = 1;
nodes = (
"588 -12 OFFCURVE",
"755 186 OFFCURVE",
"817 521 CURVE",
"854 622 LINE",
"835 689 LINE",
"746 339 OFFCURVE",
"602 146 OFFCURVE",
"430 146 CURVE SMOOTH",
"332 146 OFFCURVE",
"294 208 OFFCURVE",
"294 369 CURVE SMOOTH",
"294 690 OFFCURVE",
"446 953 OFFCURVE",
"723 953 CURVE SMOOTH",
"790 953 OFFCURVE",
"979 934 OFFCURVE",
"1017 920 CURVE",
"1073 1074 LINE",
"1012 1091 OFFCURVE",
"865 1112 OFFCURVE",
"735 1112 CURVE SMOOTH",
"350 1112 OFFCURVE",
"102 763 OFFCURVE",
"102 347 CURVE SMOOTH",
"102 105 OFFCURVE",
"188 -12 OFFCURVE",
"362 -12 CURVE SMOOTH"
);
}
);
width = 1196;
}
);
unicode = 0061;
userData = {
KernOnName = a;
};
},
{
glyphname = ae;
lastChange = "2022-05-06 15:57:35 +0000";
layers = (
{
anchors = (
{
name = bottom;
position = "{540, 0}";
},
{
name = top;
position = "{654, 1091}";
}
);
layerId = "0D9D1AFE-BAFC-449A-A530-9FCA9CDF2E2E";
paths = (
{
closed = 1;
nodes = (
"565 292 LINE",
"583 113 OFFCURVE",
"648 -12 OFFCURVE",
"805 -12 CURVE SMOOTH",
"986 -12 OFFCURVE",
"1133 112 OFFCURVE",
"1173 310 CURVE",
"1056 310 LINE",
"1021 175 OFFCURVE",
"943 100 OFFCURVE",
"828 100 CURVE SMOOTH",
"666 100 OFFCURVE",
"599 262 OFFCURVE",
"632 517 CURVE",
"1221 517 LINE",
"1229 559 OFFCURVE",
"1246 647 OFFCURVE",
"1249 713 CURVE SMOOTH",
"1257 952 OFFCURVE",
"1178 1113 OFFCURVE",
"982 1113 CURVE SMOOTH",
"861 1113 OFFCURVE",
"744 1036 OFFCURVE",
"643 788 CURVE"
);
},
{
closed = 1;
nodes = (
"689 832 OFFCURVE",
"800 998 OFFCURVE",
"961 998 CURVE SMOOTH",
"1131 998 OFFCURVE",
"1156 845 OFFCURVE",
"1123 625 CURVE",
"722 625 LINE SMOOTH",
"676 625 OFFCURVE",
"653 605 OFFCURVE",
"639 563 CURVE"
);
},
{
closed = 1;
nodes = (
"346 -12 OFFCURVE",
"489 245 OFFCURVE",
"537 510 CURVE",
"562 555 LINE",
"536 589 LINE",
"477 345 OFFCURVE",
"363 101 OFFCURVE",
"179 101 CURVE SMOOTH",
"133 101 OFFCURVE",
"74 147 OFFCURVE",
"82 372 CURVE SMOOTH",
"91 624 OFFCURVE",
"239 1017 OFFCURVE",
"483 1017 CURVE SMOOTH",
"547 1017 OFFCURVE",
"593 1011 OFFCURVE",
"636 976 CURVE",
"675 1036 LINE",
"709 1091 LINE",
"632 1104 OFFCURVE",
"568 1112 OFFCURVE",
"504 1112 CURVE SMOOTH",
"128 1112 OFFCURVE",
"-30 689 OFFCURVE",
"-42 345 CURVE SMOOTH",
"-52 75 OFFCURVE",
"35 -12 OFFCURVE",
"154 -12 CURVE SMOOTH"
);
},
{
closed = 1;
nodes = (
"551 0 LINE",
"709 1091 LINE",
"627 1054 LINE",
"584 997 LINE",
"536 589 LINE",
"437 0 LINE"
);
}
);
width = 1200;
},
{
anchors = (
{
name = bottom;
position = "{515, 0}";
},
{
name = top;
position = "{653, 1091}";
}
);
layerId = "09AB1441-CF14-483D-884E-606841830E4D";
paths = (
{
closed = 1;
nodes = (
"580 257 LINE",
"604 64 OFFCURVE",
"692 -13 OFFCURVE",
"847 -13 CURVE SMOOTH",
"979 -13 OFFCURVE",
"1144 105 OFFCURVE",
"1189 310 CURVE",
"979 310 LINE",
"960 244 OFFCURVE",
"895 171 OFFCURVE",
"803 171 CURVE SMOOTH",
"692 171 OFFCURVE",
"641 275 OFFCURVE",
"674 517 CURVE",
"1240 517 LINE",
"1252 557 OFFCURVE",
"1272 674 OFFCURVE",
"1274 728 CURVE SMOOTH",
"1283 977 OFFCURVE",
"1175 1113 OFFCURVE",
"987 1113 CURVE SMOOTH",
"874 1113 OFFCURVE",
"770 1062 OFFCURVE",
"685 909 CURVE"
);
},
{
closed = 1;
nodes = (
"730 802 OFFCURVE",
"784 925 OFFCURVE",
"944 925 CURVE SMOOTH",
"1072 925 OFFCURVE",
"1100 828 OFFCURVE",
"1076 676 CURVE",
"801 676 LINE SMOOTH",
"739 676 OFFCURVE",
"707 658 OFFCURVE",
"689 604 CURVE"
);
},
{
closed = 1;
nodes = (
"309 -12 OFFCURVE",
"434 165 OFFCURVE",
"513 444 CURVE",
"567 555 LINE",
"543 615 LINE",
"500 480 OFFCURVE",
"386 171 OFFCURVE",
"240 171 CURVE SMOOTH",
"175 171 OFFCURVE",
"121 222 OFFCURVE",
"129 373 CURVE SMOOTH",
"148 733 OFFCURVE",
"290 946 OFFCURVE",
"462 946 CURVE SMOOTH",
"510 946 OFFCURVE",
"563 932 OFFCURVE",
"587 916 CURVE",
"655 977 LINE",
"748 1091 LINE",
"730 1091 OFFCURVE",
"580 1112 OFFCURVE",
"484 1112 CURVE SMOOTH",
"173 1112 OFFCURVE",
"-28 820 OFFCURVE",
"-53 345 CURVE SMOOTH",
"-63 143 OFFCURVE",
"29 -12 OFFCURVE",
"144 -12 CURVE SMOOTH"
);
},
{
closed = 1;
nodes = (
"589 0 LINE",
"748 1091 LINE",
"655 1091 LINE",
"574 984 LINE",
"522 606 LINE",
"432 0 LINE"
);
}
);
width = 1200;
},
{
anchors = (
{
name = bottom;
position = "{445, 0}";
},
{
name = top;
position = "{645, 1091}";
}
);
layerId = "BF6BC6F6-4B2A-4E9B-9E28-8B62B2F12FD9";
paths = (
{
closed = 1;
nodes = (
"552 341 LINE",
"537 108 OFFCURVE",
"683 -14 OFFCURVE",
"842 -14 CURVE SMOOTH",
"972 -14 OFFCURVE",
"1159 149 OFFCURVE",
"1204 356 CURVE",
"934 356 LINE",
"923 278 OFFCURVE",
"865 225 OFFCURVE",
"789 225 CURVE SMOOTH",
"695 225 OFFCURVE",
"669 311 OFFCURVE",
"692 486 CURVE",
"1232 486 LINE",
"1238 510 OFFCURVE",
"1268 638 OFFCURVE",
"1274 720 CURVE SMOOTH",
"1291 967 OFFCURVE",
"1193 1113 OFFCURVE",
"1004 1113 CURVE SMOOTH",
"895 1113 OFFCURVE",
"743 1060 OFFCURVE",
"699 893 CURVE"
);
},
{
closed = 1;
nodes = (
"742 765 OFFCURVE",
"807 870 OFFCURVE",
"909 870 CURVE SMOOTH",
"988 870 OFFCURVE",
"1015 799 OFFCURVE",
"994 661 CURVE",
"845 661 LINE SMOOTH",
"765 661 OFFCURVE",
"724 632 OFFCURVE",
"704 560 CURVE"
);
},
{
closed = 1;
nodes = (
"258 -13 OFFCURVE",
"358 175 OFFCURVE",
"437 452 CURVE",
"497 555 LINE",
"463 615 LINE",
"422 458 OFFCURVE",
"315 242 OFFCURVE",
"256 242 CURVE SMOOTH",
"201 242 OFFCURVE",
"185 291 OFFCURVE",
"188 402 CURVE SMOOTH",
"192 682 OFFCURVE",
"324 878 OFFCURVE",
"464 878 CURVE SMOOTH",
"521 878 OFFCURVE",
"548 865 OFFCURVE",
"571 838 CURVE",
"638 893 LINE",
"749 1091 LINE",
"639 1113 OFFCURVE",
"563 1112 OFFCURVE",
"499 1112 CURVE SMOOTH",
"177 1112 OFFCURVE",
"-32 817 OFFCURVE",
"-64 358 CURVE SMOOTH",
"-79 153 OFFCURVE",
"4 -13 OFFCURVE",
"119 -13 CURVE SMOOTH"
);
},
{
closed = 1;
nodes = (
"574 0 LINE",
"749 1091 LINE",
"613 1068 LINE",
"504 919 LINE",
"409 328 LINE",
"359 0 LINE"
);
}
);
width = 1200;
},
{
anchors = (
{
name = bottom;
position = "{524, 0}";
},
{
name = top;
position = "{653, 1091}";
}
);
layerId = "099DAB3F-15EF-4A0D-A0EC-988B8C582406";
paths = (
{
closed = 1;
nodes = (
"574 270 LINE",
"596 82 OFFCURVE",
"676 -13 OFFCURVE",
"831 -13 CURVE SMOOTH",
"982 -13 OFFCURVE",
"1140 108 OFFCURVE",
"1183 310 CURVE",
"1008 310 LINE",
"983 218 OFFCURVE",
"913 144 OFFCURVE",
"812 144 CURVE SMOOTH",
"682 144 OFFCURVE",
"625 270 OFFCURVE",
"658 517 CURVE",
"1233 517 LINE",
"1243 558 OFFCURVE",
"1262 664 OFFCURVE",
"1265 722 CURVE SMOOTH",
"1273 968 OFFCURVE",
"1176 1113 OFFCURVE",
"985 1113 CURVE SMOOTH",
"869 1113 OFFCURVE",
"760 1052 OFFCURVE",
"669 864 CURVE"
);
},
{
closed = 1;
nodes = (
"715 813 OFFCURVE",
"790 952 OFFCURVE",
"950 952 CURVE SMOOTH",
"1094 952 OFFCURVE",
"1121 834 OFFCURVE",
"1094 657 CURVE",
"771 657 LINE SMOOTH",
"715 657 OFFCURVE",
"687 638 OFFCURVE",
"670 589 CURVE"
);
},
{
closed = 1;
nodes = (
"323 -12 OFFCURVE",
"455 195 OFFCURVE",
"522 469 CURVE",
"565 555 LINE",
"540 605 LINE",
"491 429 OFFCURVE",
"377 145 OFFCURVE",
"217 145 CURVE SMOOTH",
"159 145 OFFCURVE",
"103 194 OFFCURVE",
"111 373 CURVE SMOOTH",
"127 692 OFFCURVE",
"271 973 OFFCURVE",
"470 973 CURVE SMOOTH",
"524 973 OFFCURVE",
"574 962 OFFCURVE",
"605 939 CURVE",
"663 999 LINE",
"733 1091 LINE",
"693 1096 OFFCURVE",
"576 1112 OFFCURVE",
"492 1112 CURVE SMOOTH",
"156 1112 OFFCURVE",
"-29 771 OFFCURVE",
"-49 345 CURVE SMOOTH",
"-59 118 OFFCURVE",
"31 -12 OFFCURVE",
"148 -12 CURVE SMOOTH"
);
},
{
closed = 1;
nodes = (
"575 0 LINE",
"733 1091 LINE",
"645 1077 LINE",
"578 989 LINE",
"527 600 LINE",
"434 0 LINE"
);
}
);
width = 1200;
}
);
unicode = 00E6;
},
{
glyphname = b;
lastChange = "2022-05-06 15:57:35 +0000";
layers = (
{
anchors = (
{
name = bottom;
position = "{571, 0}";
},
{
name = top;
position = "{766, 1586}";
}
);
layerId = "0D9D1AFE-BAFC-449A-A530-9FCA9CDF2E2E";
paths = (
{
closed = 1;
nodes = (
"857 -12 OFFCURVE",
"1074 395 OFFCURVE",
"1074 751 CURVE SMOOTH",
"1074 992 OFFCURVE",
"970 1112 OFFCURVE",
"795 1112 CURVE SMOOTH",
"577 1112 OFFCURVE",
"378 925 OFFCURVE",
"312 652 CURVE",
"278 580 LINE",
"291 490 LINE",
"405 812 OFFCURVE",
"580 996 OFFCURVE",
"772 996 CURVE SMOOTH",
"890 996 OFFCURVE",
"941 926 OFFCURVE",
"941 739 CURVE SMOOTH",
"941 433 OFFCURVE",
"772 101 OFFCURVE",
"475 101 CURVE SMOOTH",
"384 101 OFFCURVE",
"284 117 OFFCURVE",
"244 145 CURVE",
"107 63 LINE",
"179 16 OFFCURVE",
"331 -12 OFFCURVE",
"466 -12 CURVE SMOOTH"
);
},
{
closed = 1;
nodes = (
"248 132 LINE",
"364 1068 LINE",
"424 1556 LINE",
"304 1556 LINE",
"107 63 LINE"
);
}
);
width = 1200;
},
{
anchors = (
{
name = bottom;
position = "{580, 0}";
},
{
name = top;
position = "{775, 1586}";
}
);
layerId = "09AB1441-CF14-483D-884E-606841830E4D";
paths = (
{
closed = 1;
nodes = (
"832 -12 OFFCURVE",
"1100 305 OFFCURVE",
"1100 749 CURVE SMOOTH",
"1100 999 OFFCURVE",
"1004 1112 OFFCURVE",
"828 1112 CURVE SMOOTH",
"595 1112 OFFCURVE",
"437 914 OFFCURVE",
"379 589 CURVE",
"334 417 LINE",
"355 363 LINE",
"432 730 OFFCURVE",
"568 929 OFFCURVE",
"733 929 CURVE SMOOTH",
"822 929 OFFCURVE",
"871 872 OFFCURVE",
"871 723 CURVE SMOOTH",
"871 410 OFFCURVE",
"708 175 OFFCURVE",
"490 175 CURVE SMOOTH",
"406 175 OFFCURVE",
"303 210 OFFCURVE",
"288 228 CURVE",
"105 100 LINE",
"145 62 OFFCURVE",
"291 -12 OFFCURVE",
"467 -12 CURVE SMOOTH"
);
},
{
closed = 1;
nodes = (
"336 200 LINE",
"441 1068 LINE",
"501 1556 LINE",
"277 1556 LINE",
"105 100 LINE"
);
}
);
width = 1200;
},
{
anchors = (
{
name = bottom;
position = "{565, 0}";
},
{
name = top;
position = "{760, 1586}";
}
);
layerId = "BF6BC6F6-4B2A-4E9B-9E28-8B62B2F12FD9";
paths = (
{
closed = 1;
nodes = (
"917 -13 OFFCURVE",
"1106 375 OFFCURVE",
"1106 729 CURVE SMOOTH",
"1106 990 OFFCURVE",
"981 1112 OFFCURVE",
"801 1112 CURVE SMOOTH",
"621 1112 OFFCURVE",
"489 989 OFFCURVE",
"437 738 CURVE",
"394 640 LINE",
"415 567 LINE",
"480 725 OFFCURVE",
"567 857 OFFCURVE",
"704 857 CURVE SMOOTH",
"775 857 OFFCURVE",
"796 822 OFFCURVE",
"796 715 CURVE SMOOTH",
"796 452 OFFCURVE",
"712 225 OFFCURVE",
"472 225 CURVE SMOOTH",
"427 225 OFFCURVE",
"322 237 OFFCURVE",
"274 256 CURVE",
"57 116 LINE",
"142 43 OFFCURVE",
"275 -13 OFFCURVE",
"447 -13 CURVE SMOOTH"
);
},
{
closed = 1;
nodes = (
"380 218 LINE",
"478 1016 LINE",
"545 1561 LINE",
"238 1561 LINE",
"57 116 LINE"
);
}
);
width = 1200;
},
{
anchors = (
{
name = bottom;
position = "{577, 0}";
},
{
name = top;
position = "{772, 1586}";
}
);
layerId = "099DAB3F-15EF-4A0D-A0EC-988B8C582406";
paths = (
{
closed = 1;
nodes = (
"841 -12 OFFCURVE",
"1090 339 OFFCURVE",
"1090 750 CURVE SMOOTH",
"1090 996 OFFCURVE",
"991 1112 OFFCURVE",
"816 1112 CURVE SMOOTH",
"588 1112 OFFCURVE",
"415 918 OFFCURVE",
"354 613 CURVE",
"313 478 LINE",
"331 411 LINE",
"422 761 OFFCURVE",
"573 954 OFFCURVE",
"748 954 CURVE SMOOTH",
"848 954 OFFCURVE",
"897 892 OFFCURVE",
"897 729 CURVE SMOOTH",
"897 419 OFFCURVE",
"732 147 OFFCURVE",
"484 147 CURVE SMOOTH",
"398 147 OFFCURVE",
"296 175 OFFCURVE",
"272 197 CURVE",
"106 86 LINE",
"158 45 OFFCURVE",
"306 -12 OFFCURVE",
"467 -12 CURVE SMOOTH"
);
},
{
closed = 1;
nodes = (
"303 175 LINE",
"412 1068 LINE",
"472 1556 LINE",
"287 1556 LINE",
"106 86 LINE"
);
}
);
width = 1200;
}
);
unicode = 0062;
userData = {
KernOnName = b;
};
},
{
glyphname = c;
lastChange = "2022-05-06 15:57:35 +0000";
layers = (
{
anchors = (
{
name = bottom;
position = "{551, 0}";
},
{
name = top;
position = "{701, 1091}";
}
);
layerId = "0D9D1AFE-BAFC-449A-A530-9FCA9CDF2E2E";
paths = (
{
closed = 1;
nodes = (
"796 -15 OFFCURVE",
"970 102 OFFCURVE",
"1015 329 CURVE",
"885 329 LINE",
"847 190 OFFCURVE",
"752 101 OFFCURVE",
"562 101 CURVE SMOOTH",
"355 101 OFFCURVE",
"255 229 OFFCURVE",
"255 462 CURVE SMOOTH",
"255 781 OFFCURVE",
"422 996 OFFCURVE",
"651 996 CURVE SMOOTH",
"825 996 OFFCURVE",
"943 906 OFFCURVE",
"939 730 CURVE",
"1062 730 LINE",
"1080 966 OFFCURVE",
"901 1112 OFFCURVE",
"674 1112 CURVE SMOOTH",
"347 1112 OFFCURVE",
"124 839 OFFCURVE",
"125 449 CURVE SMOOTH",
"125 179 OFFCURVE",
"282 -15 OFFCURVE",
"546 -15 CURVE SMOOTH"
);
}
);
width = 1200;
},
{
anchors = (
{
name = bottom;
position = "{578, 0}";
},
{
name = top;
position = "{690, 1091}";
}
);
layerId = "09AB1441-CF14-483D-884E-606841830E4D";
paths = (
{
closed = 1;
nodes = (
"803 -19 OFFCURVE",
"992 124 OFFCURVE",
"1015 335 CURVE",
"807 335 LINE",
"768 211 OFFCURVE",
"681 171 OFFCURVE",
"563 171 CURVE SMOOTH",
"431 171 OFFCURVE",
"336 268 OFFCURVE",
"336 463 CURVE SMOOTH",
"336 746 OFFCURVE",
"465 924 OFFCURVE",
"652 923 CURVE SMOOTH",
"797 922 OFFCURVE",
"866 824 OFFCURVE",
"858 686 CURVE",
"1076 686 LINE",
"1076 967 OFFCURVE",
"924 1112 OFFCURVE",
"674 1112 CURVE SMOOTH",
"356 1112 OFFCURVE",
"115 839 OFFCURVE",
"117 451 CURVE SMOOTH",
"119 155 OFFCURVE",
"300 -19 OFFCURVE",
"557 -19 CURVE SMOOTH"
);
}
);
width = 1200;
},
{
anchors = (
{
name = bottom;
position = "{601, 0}";
},
{
name = top;
position = "{679, 1091}";
}
);
layerId = "BF6BC6F6-4B2A-4E9B-9E28-8B62B2F12FD9";
paths = (
{
closed = 1;
nodes = (
"857 -19 OFFCURVE",
"1041 134 OFFCURVE",
"1058 360 CURVE",
"764 360 LINE",
"755 258 OFFCURVE",
"673 225 OFFCURVE",
"595 225 CURVE SMOOTH",
"481 225 OFFCURVE",
"418 297 OFFCURVE",
"418 464 CURVE SMOOTH",
"418 721 OFFCURVE",
"504 869 OFFCURVE",
"654 869 CURVE SMOOTH",
"756 869 OFFCURVE",
"818 803 OFFCURVE",
"796 653 CURVE",
"1094 653 LINE",
"1126 916 OFFCURVE",
"996 1112 OFFCURVE",
"679 1112 CURVE SMOOTH",
"337 1112 OFFCURVE",
"113 852 OFFCURVE",
"113 456 CURVE SMOOTH",
"113 169 OFFCURVE",
"265 -19 OFFCURVE",
"567 -19 CURVE SMOOTH"
);
}
);
width = 1200;
},
{
anchors = (
{
name = bottom;
position = "{568, 0}";
},
{
name = top;
position = "{694, 1091}";
}
);
layerId = "099DAB3F-15EF-4A0D-A0EC-988B8C582406";
paths = (
{
closed = 1;
nodes = (
"800 -18 OFFCURVE",
"984 116 OFFCURVE",
"1015 333 CURVE",
"836 333 LINE",
"798 203 OFFCURVE",
"708 145 OFFCURVE",
"563 145 CURVE SMOOTH",
"403 145 OFFCURVE",
"306 253 OFFCURVE",
"306 463 CURVE SMOOTH",
"306 759 OFFCURVE",
"449 951 OFFCURVE",
"652 950 CURVE SMOOTH",
"808 950 OFFCURVE",
"895 855 OFFCURVE",
"888 703 CURVE",
"1071 703 LINE",
"1078 967 OFFCURVE",
"915 1112 OFFCURVE",
"674 1112 CURVE SMOOTH",
"353 1112 OFFCURVE",
"118 839 OFFCURVE",
"120 450 CURVE SMOOTH",
"121 164 OFFCURVE",
"293 -18 OFFCURVE",
"553 -18 CURVE SMOOTH"
);
}
);
width = 1200;
}
);
unicode = 0063;
userData = {
KernOnName = c;
};
},
{
glyphname = d;
lastChange = "2022-05-06 15:57:35 +0000";
layers = (
{
anchors = (
{
name = bottom;
position = "{586, 0}";
},
{
name = center;
position = "{893, 1341}";
},
{
name = top;
position = "{781, 1586}";
},
{
name = topright;
position = "{1098, 1091}";
}
);
layerId = "0D9D1AFE-BAFC-449A-A530-9FCA9CDF2E2E";
paths = (
{
closed = 1;
nodes = (
"612 -12 OFFCURVE",
"797 178 OFFCURVE",
"875 478 CURVE",
"903 520 LINE",
"894 624 LINE",
"779 293 OFFCURVE",
"610 104 OFFCURVE",
"422 104 CURVE SMOOTH",
"306 104 OFFCURVE",
"254 174 OFFCURVE",
"254 355 CURVE SMOOTH",
"254 720 OFFCURVE",
"444 999 OFFCURVE",
"757 999 CURVE SMOOTH",
"820 999 OFFCURVE",
"964 985 OFFCURVE",
"1017 969 CURVE",
"1053 1075 LINE",
"1003 1094 OFFCURVE",
"839 1112 OFFCURVE",
"755 1112 CURVE SMOOTH",
"332 1112 OFFCURVE",
"123 705 OFFCURVE",
"123 345 CURVE SMOOTH",
"123 110 OFFCURVE",
"217 -12 OFFCURVE",
"399 -12 CURVE SMOOTH"
);
},
{
closed = 1;
nodes = (
"939 0 LINE",
"1128 1556 LINE",
"1008 1556 LINE",
"854 321 LINE",
"813 0 LINE"
);
}
);
width = 1200;
},
{
anchors = (
{
name = bottom;
position = "{583, 0}";
},
{
name = center;
position = "{923, 1360}";
},
{
name = top;
position = "{778, 1586}";
},
{
name = topright;
position = "{1150, 1091}";
}
);
layerId = "09AB1441-CF14-483D-884E-606841830E4D";
paths = (
{
closed = 1;
nodes = (
"620 -12 OFFCURVE",
"777 193 OFFCURVE",
"839 564 CURVE",
"871 683 LINE",
"850 737 LINE",
"775 370 OFFCURVE",
"644 171 OFFCURVE",
"482 171 CURVE SMOOTH",
"394 171 OFFCURVE",
"351 229 OFFCURVE",
"351 378 CURVE SMOOTH",
"351 674 OFFCURVE",
"491 925 OFFCURVE",
"744 925 CURVE SMOOTH",
"813 925 OFFCURVE",
"1023 904 OFFCURVE",
"1029 891 CURVE",
"1112 1074 LINE",
"1078 1089 OFFCURVE",
"922 1112 OFFCURVE",
"763 1112 CURVE SMOOTH",
"398 1112 OFFCURVE",
"122 797 OFFCURVE",
"122 348 CURVE SMOOTH",
"122 102 OFFCURVE",
"212 -12 OFFCURVE",
"386 -12 CURVE SMOOTH"
);
},
{
closed = 1;
nodes = (
"982 0 LINE",
"1173 1556 LINE",
"949 1556 LINE",
"832 598 LINE",
"757 0 LINE"
);
}
);
width = 1200;
},
{
anchors = (
{
name = bottom;
position = "{583, 0}";
},
{
name = center;
position = "{918, 1329}";
},
{
name = top;
position = "{778, 1586}";
},
{
name = topright;
position = "{1218, 1091}";
}
);
layerId = "BF6BC6F6-4B2A-4E9B-9E28-8B62B2F12FD9";
paths = (
{
closed = 1;
nodes = (
"575 -13 OFFCURVE",
"712 110 OFFCURVE",
"764 361 CURVE",
"806 459 LINE",
"785 532 LINE",
"720 374 OFFCURVE",
"629 242 OFFCURVE",
"492 242 CURVE SMOOTH",
"421 242 OFFCURVE",
"400 307 OFFCURVE",
"400 384 CURVE SMOOTH",
"400 647 OFFCURVE",
"484 874 OFFCURVE",
"724 874 CURVE SMOOTH",
"769 874 OFFCURVE",
"874 862 OFFCURVE",
"922 843 CURVE",
"1143 1063 LINE",
"1055 1091 OFFCURVE",
"850 1112 OFFCURVE",
"749 1112 CURVE SMOOTH",
"279 1112 OFFCURVE",
"90 724 OFFCURVE",
"90 370 CURVE SMOOTH",
"90 139 OFFCURVE",
"215 -13 OFFCURVE",
"395 -13 CURVE SMOOTH"
);
},
{
closed = 1;
nodes = (
"1022 0 LINE",
"1214 1561 LINE",
"907 1561 LINE",
"765 380 LINE",
"718 0 LINE"
);
}
);
width = 1200;
},
{
anchors = (
{
name = bottom;
position = "{584, 0}";
},
{
name = center;
position = "{912, 1353}";
},
{
name = top;
position = "{779, 1586}";
},
{
name = topright;
position = "{1131, 1091}";
}
);
layerId = "099DAB3F-15EF-4A0D-A0EC-988B8C582406";
paths = (
{
closed = 1;
nodes = (
"617 -12 OFFCURVE",
"785 187 OFFCURVE",
"853 532 CURVE",
"883 622 LINE",
"867 695 LINE",
"777 341 OFFCURVE",
"631 146 OFFCURVE",
"460 146 CURVE SMOOTH",
"361 146 OFFCURVE",
"315 208 OFFCURVE",
"315 369 CURVE SMOOTH",
"315 691 OFFCURVE",
"473 953 OFFCURVE",
"749 953 CURVE SMOOTH",
"816 953 OFFCURVE",
"1001 934 OFFCURVE",
"1025 920 CURVE",
"1090 1074 LINE",
"1050 1091 OFFCURVE",
"891 1112 OFFCURVE",
"760 1112 CURVE SMOOTH",
"373 1112 OFFCURVE",
"122 763 OFFCURVE",
"122 347 CURVE SMOOTH",
"122 105 OFFCURVE",
"214 -12 OFFCURVE",
"391 -12 CURVE SMOOTH"
);
},
{
closed = 1;
nodes = (
"966 0 LINE",
"1156 1556 LINE",
"971 1556 LINE",
"840 494 LINE",
"778 0 LINE"
);
}
);
width = 1200;
}
);
unicode = 0064;
userData = {
KernOnName = d;
};
},
{
glyphname = eth;
lastChange = "2022-05-06 15:57:35 +0000";
layers = (
{
layerId = "0D9D1AFE-BAFC-449A-A530-9FCA9CDF2E2E";
paths = (
{
closed = 1;
nodes = (
"854 -15 OFFCURVE",
"1068 306 OFFCURVE",
"1068 802 CURVE SMOOTH",
"1068 1043 OFFCURVE",
"998 1249 OFFCURVE",
"885 1428 CURVE",
"1052 1536 LINE",
"1072 1660 LINE",
"838 1497 LINE",
"803 1545 OFFCURVE",
"768 1588 OFFCURVE",
"713 1646 CURVE",
"547 1647 LINE",
"624 1587 OFFCURVE",
"691 1505 OFFCURVE",
"739 1435 CURVE",
"566 1317 LINE",
"551 1193 LINE",
"785 1366 LINE",
"880 1213 OFFCURVE",
"941 1022 OFFCURVE",
"944 808 CURVE",
"889 956 OFFCURVE",
"773 1013 OFFCURVE",
"642 1013 CURVE SMOOTH",
"334 1013 OFFCURVE",
"116 753 OFFCURVE",
"116 416 CURVE SMOOTH",
"116 135 OFFCURVE",
"303 -15 OFFCURVE",
"525 -15 CURVE SMOOTH"
);
},
{
closed = 1;
nodes = (
"362 101 OFFCURVE",
"245 219 OFFCURVE",
"245 429 CURVE SMOOTH",
"245 709 OFFCURVE",
"401 897 OFFCURVE",
"634 897 CURVE SMOOTH",
"838 897 OFFCURVE",
"905 755 OFFCURVE",
"926 689 CURVE",
"928 684 OFFCURVE",
"930 671 OFFCURVE",
"930 646 CURVE SMOOTH",
"930 348 OFFCURVE",
"781 101 OFFCURVE",
"539 101 CURVE SMOOTH"
);
}
);
width = 1200;
},
{
layerId = "09AB1441-CF14-483D-884E-606841830E4D";
paths = (
{
closed = 1;
nodes = (
"874 -15 OFFCURVE",
"1085 298 OFFCURVE",
"1077 782 CURVE SMOOTH",
"1073 1011 OFFCURVE",
"1004 1217 OFFCURVE",
"908 1391 CURVE",
"1019 1445 LINE",
"1046 1664 LINE",
"817 1533 LINE",
"785 1577 OFFCURVE",
"752 1612 OFFCURVE",
"723 1646 CURVE",
"466 1646 LINE",
"533 1582 OFFCURVE",
"591 1508 OFFCURVE",
"640 1439 CURVE",
"517 1361 LINE",
"493 1139 LINE",
"718 1280 LINE",
"805 1149 OFFCURVE",
"863 1010 OFFCURVE",
"866 882 CURVE",
"828 961 OFFCURVE",
"741 1032 OFFCURVE",
"595 1032 CURVE SMOOTH",
"313 1032 OFFCURVE",
"98 771 OFFCURVE",
"104 437 CURVE SMOOTH",
"109 160 OFFCURVE",
"282 -15 OFFCURVE",
"538 -15 CURVE SMOOTH"
);
},
{
closed = 1;
nodes = (
"425 188 OFFCURVE",
"326 261 OFFCURVE",
"323 439 CURVE SMOOTH",
"318 689 OFFCURVE",
"441 841 OFFCURVE",
"630 841 CURVE SMOOTH",
"721 841 OFFCURVE",
"805 802 OFFCURVE",
"850 747 CURVE",
"852 745 OFFCURVE",
"854 735 OFFCURVE",
"854 716 CURVE SMOOTH",
"854 408 OFFCURVE",
"743 188 OFFCURVE",
"555 188 CURVE SMOOTH"
);
}
);
width = 1200;
},
{
layerId = "BF6BC6F6-4B2A-4E9B-9E28-8B62B2F12FD9";
paths = (
{
closed = 1;
nodes = (
"906 -15 OFFCURVE",
"1123 299 OFFCURVE",
"1123 792 CURVE SMOOTH",
"1123 1024 OFFCURVE",
"1048 1189 OFFCURVE",
"963 1363 CURVE",
"1131 1428 LINE",
"1109 1640 LINE",
"861 1536 LINE",
"829 1580 OFFCURVE",
"796 1618 OFFCURVE",
"769 1646 CURVE",
"435 1620 LINE",
"497 1566 OFFCURVE",
"552 1502 OFFCURVE",
"605 1427 CURVE",
"465 1380 LINE",
"498 1161 LINE",
"710 1254 LINE",
"766 1144 OFFCURVE",
"807 1024 OFFCURVE",
"818 919 CURVE",
"783 998 OFFCURVE",
"713 1065 OFFCURVE",
"580 1065 CURVE SMOOTH",
"313 1065 OFFCURVE",
"102 796 OFFCURVE",
"102 453 CURVE SMOOTH",
"102 169 OFFCURVE",
"270 -15 OFFCURVE",
"550 -15 CURVE SMOOTH"
);
},
{
closed = 1;
nodes = (
"472 242 OFFCURVE",
"420 310 OFFCURVE",
"420 450 CURVE SMOOTH",
"420 696 OFFCURVE",
"504 830 OFFCURVE",
"655 830 CURVE SMOOTH",
"738 830 OFFCURVE",
"775 793 OFFCURVE",
"803 748 CURVE",
"808 717 OFFCURVE",
"811 677 OFFCURVE",
"811 643 CURVE SMOOTH",
"811 396 OFFCURVE",
"724 242 OFFCURVE",
"584 242 CURVE SMOOTH"
);
}
);
width = 1200;
},
{
layerId = "099DAB3F-15EF-4A0D-A0EC-988B8C582406";
paths = (
{
closed = 1;
nodes = (
"867 -15 OFFCURVE",
"1079 301 OFFCURVE",
"1074 790 CURVE SMOOTH",
"1071 1023 OFFCURVE",
"1002 1229 OFFCURVE",
"899 1405 CURVE",
"1031 1479 LINE",
"1056 1663 LINE",
"825 1520 LINE",
"792 1565 OFFCURVE",
"758 1603 OFFCURVE",
"719 1646 CURVE",
"496 1646 LINE",
"567 1584 OFFCURVE",
"629 1507 OFFCURVE",
"677 1438 CURVE",
"535 1345 LINE",
"515 1159 LINE",
"743 1312 LINE",
"833 1173 OFFCURVE",
"892 1015 OFFCURVE",
"895 854 CURVE",
"851 959 OFFCURVE",
"753 1025 OFFCURVE",
"613 1025 CURVE SMOOTH",
"321 1025 OFFCURVE",
"105 764 OFFCURVE",
"109 429 CURVE SMOOTH",
"112 151 OFFCURVE",
"290 -15 OFFCURVE",
"533 -15 CURVE SMOOTH"
);
},
{
closed = 1;
nodes = (
"401 155 OFFCURVE",
"296 245 OFFCURVE",
"294 435 CURVE SMOOTH",
"291 697 OFFCURVE",
"426 862 OFFCURVE",
"632 862 CURVE SMOOTH",
"765 862 OFFCURVE",
"843 784 OFFCURVE",
"879 725 CURVE",
"881 722 OFFCURVE",
"883 711 OFFCURVE",
"883 690 CURVE SMOOTH",
"883 386 OFFCURVE",
"757 155 OFFCURVE",
"549 155 CURVE SMOOTH"
);
}
);
width = 1200;
}
);
unicode = 00F0;
},
{
glyphname = e;
lastChange = "2022-05-06 15:57:35 +0000";
layers = (
{
anchors = (
{
name = bottom;
position = "{565, 0}";
},
{
name = ogonek;
position = "{718, 9}";
},
{
name = top;
position = "{674, 1091}";
}
);
layerId = "0D9D1AFE-BAFC-449A-A530-9FCA9CDF2E2E";
paths = (
{
closed = 1;
nodes = (
"795 -15 OFFCURVE",
"953 108 OFFCURVE",
"988 270 CURVE",
"857 270 LINE",
"835 175 OFFCURVE",
"737 100 OFFCURVE",
"581 100 CURVE SMOOTH",
"369 100 OFFCURVE",
"251 258 OFFCURVE",
"270 517 CURVE",
"1029 517 LINE",
"1099 836 OFFCURVE",
"1011 1113 OFFCURVE",
"672 1113 CURVE SMOOTH",
"346 1113 OFFCURVE",
"146 814 OFFCURVE",
"146 466 CURVE SMOOTH",
"146 155 OFFCURVE",
"319 -15 OFFCURVE",
"559 -15 CURVE SMOOTH"
);
},
{
closed = 1;
nodes = (
"303 798 OFFCURVE",
"434 1001 OFFCURVE",
"652 1001 CURVE SMOOTH",
"885 1001 OFFCURVE",
"953 844 OFFCURVE",
"917 625 CURVE",
"371 625 LINE SMOOTH",
"324 625 OFFCURVE",
"288 615 OFFCURVE",
"273 556 CURVE"
);
}
);
width = 1200;
},
{
anchors = (
{
name = bottom;
position = "{596, 0}";
},
{
name = ogonek;
position = "{754, 10}";
},
{
name = top;
position = "{683, 1091}";
}
);
layerId = "09AB1441-CF14-483D-884E-606841830E4D";
paths = (
{
closed = 1;
nodes = (
"827 -15 OFFCURVE",
"979 101 OFFCURVE",
"1025 310 CURVE",
"809 310 LINE",
"780 207 OFFCURVE",
"704 175 OFFCURVE",
"581 175 CURVE SMOOTH",
"478 175 OFFCURVE",
"324 256 OFFCURVE",
"348 504 CURVE",
"1051 504 LINE",
"1117 859 OFFCURVE",
"998 1113 OFFCURVE",
"658 1113 CURVE SMOOTH",
"352 1113 OFFCURVE",
"130 841 OFFCURVE",
"130 458 CURVE SMOOTH",
"130 150 OFFCURVE",
"332 -15 OFFCURVE",
"557 -15 CURVE SMOOTH"
);
},
{
closed = 1;
nodes = (
"382 800 OFFCURVE",
"483 923 OFFCURVE",
"646 923 CURVE SMOOTH",
"800 923 OFFCURVE",
"860 832 OFFCURVE",
"846 663 CURVE",
"485 663 LINE SMOOTH",
"418 663 OFFCURVE",
"377 646 OFFCURVE",
"360 587 CURVE"
);
}
);
width = 1200;
},
{
anchors = (
{
name = bottom;
position = "{629, 0}";
},
{
name = ogonek;
position = "{800, 32}";
},
{
name = top;
position = "{707, 1091}";
}
);
layerId = "BF6BC6F6-4B2A-4E9B-9E28-8B62B2F12FD9";
paths = (
{
closed = 1;
nodes = (
"813 -15 OFFCURVE",
"1012 131 OFFCURVE",
"1049 356 CURVE",
"752 356 LINE",
"739 270 OFFCURVE",
"668 221 OFFCURVE",
"586 221 CURVE SMOOTH",
"455 221 OFFCURVE",
"396 297 OFFCURVE",
"417 489 CURVE",
"1071 489 LINE",
"1149 845 OFFCURVE",
"1054 1113 OFFCURVE",
"695 1113 CURVE SMOOTH",
"351 1113 OFFCURVE",
"119 851 OFFCURVE",
"116 449 CURVE SMOOTH",
"114 164 OFFCURVE",
"276 -15 OFFCURVE",
"566 -15 CURVE SMOOTH"
);
},
{
closed = 1;
nodes = (
"442 783 OFFCURVE",
"534 874 OFFCURVE",
"668 874 CURVE SMOOTH",
"785 874 OFFCURVE",
"821 805 OFFCURVE",
"806 661 CURVE",
"560 661 LINE SMOOTH",
"493 661 OFFCURVE",
"440 640 OFFCURVE",
"420 561 CURVE"
);
}
);
width = 1200;
},
{
anchors = (
{
name = bottom;
position = "{584, 0}";
},
{
name = ogonek;
position = "{741, 10}";
},
{
name = top;
position = "{680, 1091}";
}
);
layerId = "099DAB3F-15EF-4A0D-A0EC-988B8C582406";
paths = (
{
closed = 1;
nodes = (
"815 -15 OFFCURVE",
"969 104 OFFCURVE",
"1011 295 CURVE",
"827 295 LINE",
"801 195 OFFCURVE",
"716 147 OFFCURVE",
"581 147 CURVE SMOOTH",
"437 147 OFFCURVE",
"297 257 OFFCURVE",
"319 509 CURVE",
"1043 509 LINE",
"1110 850 OFFCURVE",
"1003 1113 OFFCURVE",
"663 1113 CURVE SMOOTH",
"350 1113 OFFCURVE",
"136 831 OFFCURVE",
"136 461 CURVE SMOOTH",
"136 152 OFFCURVE",
"327 -15 OFFCURVE",
"558 -15 CURVE SMOOTH"
);
},
{
closed = 1;
nodes = (
"352 799 OFFCURVE",
"465 952 OFFCURVE",
"648 952 CURVE SMOOTH",
"832 952 OFFCURVE",
"895 837 OFFCURVE",
"873 649 CURVE",
"442 649 LINE SMOOTH",
"383 649 OFFCURVE",
"344 634 OFFCURVE",
"327 575 CURVE"
);
}
);
width = 1200;
}
);
unicode = 0065;
userData = {
KernOnName = e;
};
},
{
glyphname = schwa;
lastChange = "2022-05-06 15:57:35 +0000";
layers = (
{
anchors = (
{
name = bottom;
position = "{526, 0}";
},
{
name = ogonek;
position = "{482, 1082}";
},
{
name = top;
position = "{635, 1091}";
}
);
layerId = "0D9D1AFE-BAFC-449A-A530-9FCA9CDF2E2E";
paths = (
{
closed = 1;
nodes = (
"405 1106 OFFCURVE",
"247 983 OFFCURVE",
"212 821 CURVE",
"343 821 LINE",
"365 916 OFFCURVE",
"463 991 OFFCURVE",
"619 991 CURVE SMOOTH",
"841 991 OFFCURVE",
"949 833 OFFCURVE",
"930 574 CURVE",
"171 574 LINE",
"101 255 OFFCURVE",
"189 -22 OFFCURVE",
"528 -22 CURVE SMOOTH",
"854 -22 OFFCURVE",
"1043 277 OFFCURVE",
"1054 625 CURVE SMOOTH",
"1064 936 OFFCURVE",
"891 1106 OFFCURVE",
"641 1106 CURVE SMOOTH"
);
},
{
closed = 1;
nodes = (
"897 293 OFFCURVE",
"766 90 OFFCURVE",
"548 90 CURVE SMOOTH",
"315 90 OFFCURVE",
"247 247 OFFCURVE",
"283 466 CURVE",
"829 466 LINE SMOOTH",
"876 466 OFFCURVE",
"912 476 OFFCURVE",
"927 535 CURVE"
);
}
);
width = 1200;
},
{
anchors = (
{
name = bottom;
position = "{517, 0}";
},
{
name = ogonek;
position = "{446, 1081}";
},
{
name = top;
position = "{604, 1091}";
}
);
layerId = "09AB1441-CF14-483D-884E-606841830E4D";
paths = (
{
closed = 1;
nodes = (
"403 1106 OFFCURVE",
"231 990 OFFCURVE",
"185 781 CURVE",
"401 781 LINE",
"430 884 OFFCURVE",
"506 916 OFFCURVE",
"629 916 CURVE SMOOTH",
"732 916 OFFCURVE",
"886 835 OFFCURVE",
"862 587 CURVE",
"159 587 LINE",
"93 232 OFFCURVE",
"212 -22 OFFCURVE",
"552 -22 CURVE SMOOTH",
"858 -22 OFFCURVE",
"1080 250 OFFCURVE",
"1080 633 CURVE SMOOTH",
"1080 941 OFFCURVE",
"878 1106 OFFCURVE",
"643 1106 CURVE SMOOTH"
);
},
{
closed = 1;
nodes = (
"828 291 OFFCURVE",
"727 168 OFFCURVE",
"564 168 CURVE SMOOTH",
"410 168 OFFCURVE",
"350 259 OFFCURVE",
"364 428 CURVE",
"725 428 LINE SMOOTH",
"792 428 OFFCURVE",
"833 445 OFFCURVE",
"850 504 CURVE"
);
}
);
width = 1200;
},
{
anchors = (
{
name = bottom;
position = "{493, 0}";
},
{
name = ogonek;
position = "{400, 1059}";
},
{
name = top;
position = "{571, 1091}";
}
);
layerId = "BF6BC6F6-4B2A-4E9B-9E28-8B62B2F12FD9";
paths = (
{
closed = 1;
nodes = (
"407 1106 OFFCURVE",
"208 960 OFFCURVE",
"171 735 CURVE",
"468 735 LINE",
"481 821 OFFCURVE",
"552 870 OFFCURVE",
"634 870 CURVE SMOOTH",
"765 870 OFFCURVE",
"824 794 OFFCURVE",
"803 602 CURVE",
"149 602 LINE",
"71 246 OFFCURVE",
"166 -22 OFFCURVE",
"525 -22 CURVE SMOOTH",
"869 -22 OFFCURVE",
"1101 240 OFFCURVE",
"1104 642 CURVE SMOOTH",
"1106 927 OFFCURVE",
"944 1106 OFFCURVE",
"654 1106 CURVE SMOOTH"
);
},
{
closed = 1;
nodes = (
"778 308 OFFCURVE",
"686 217 OFFCURVE",
"552 217 CURVE SMOOTH",
"435 217 OFFCURVE",
"399 286 OFFCURVE",
"414 430 CURVE",
"660 430 LINE SMOOTH",
"727 430 OFFCURVE",
"780 451 OFFCURVE",
"800 530 CURVE"
);
}
);
width = 1200;
},
{
anchors = (
{
name = bottom;
position = "{520, 0}";
},
{
name = ogonek;
position = "{460, 1081}";
},
{
name = top;
position = "{616, 1091}";
}
);
layerId = "099DAB3F-15EF-4A0D-A0EC-988B8C582406";
paths = (
{
closed = 1;
nodes = (
"404 1106 OFFCURVE",
"237 987 OFFCURVE",
"195 796 CURVE",
"379 796 LINE",
"406 896 OFFCURVE",
"490 944 OFFCURVE",
"625 944 CURVE SMOOTH",
"773 944 OFFCURVE",
"910 834 OFFCURVE",
"888 582 CURVE",
"164 582 LINE",
"96 241 OFFCURVE",
"203 -22 OFFCURVE",
"543 -22 CURVE SMOOTH",
"857 -22 OFFCURVE",
"1066 260 OFFCURVE",
"1070 630 CURVE SMOOTH",
"1074 939 OFFCURVE",
"883 1106 OFFCURVE",
"642 1106 CURVE SMOOTH"
);
},
{
closed = 1;
nodes = (
"854 292 OFFCURVE",
"742 139 OFFCURVE",
"558 139 CURVE SMOOTH",
"374 139 OFFCURVE",
"311 255 OFFCURVE",
"334 442 CURVE",
"764 442 LINE SMOOTH",
"824 442 OFFCURVE",
"863 457 OFFCURVE",
"879 516 CURVE"
);
}
);
width = 1200;
}
);
unicode = 0259;
},
{
glyphname = f;
lastChange = "2022-05-06 15:57:35 +0000";
layers = (
{
anchors = (
{
name = bottom;
position = "{574, -30}";
},
{
name = top;
position = "{790, 1586}";
}
);
guideLines = (
{
angle = 82.4199;
position = "{503, 471}";
}
);
layerId = "0D9D1AFE-BAFC-449A-A530-9FCA9CDF2E2E";
paths = (
{
closed = 1;
nodes = (
"554 20 LINE",
"561 83 LINE",
"503 108 LINE",
"550 118 OFFCURVE",
"567 146 OFFCURVE",
"571 182 CURVE SMOOTH",
"691 1248 LINE SMOOTH",
"718 1491 OFFCURVE",
"858 1545 OFFCURVE",
"1005 1545 CURVE SMOOTH",
"1124 1545 OFFCURVE",
"1197 1514 OFFCURVE",
"1232 1495 CURVE",
"1247 1617 LINE",
"1208 1636 OFFCURVE",
"1138 1664 OFFCURVE",
"1002 1664 CURVE SMOOTH",
"790 1664 OFFCURVE",
"603 1543 OFFCURVE",
"571 1278 CURVE SMOOTH",
"543 1047 LINE",
"599 976 LINE",
"552 962 OFFCURVE",
"525 915 OFFCURVE",
"519 858 CURVE SMOOTH",
"426 20 LINE"
);
},
{
closed = 1;
nodes = (
"895 0 LINE",
"906 108 LINE",
"185 108 LINE",
"174 0 LINE"
);
},
{
closed = 1;
nodes = (
"1051 976 LINE",
"1065 1092 LINE",
"258 1092 LINE",
"244 976 LINE"
);
}
);
width = 1200;
},
{
anchors = (
{
name = bottom;
position = "{578, 0}";
},
{
name = top;
position = "{773, 1586}";
}
);
guideLines = (
{
angle = 83.5616;
position = "{501, 986}";
},
{
angle = 83.5616;
position = "{748, 1279}";
}
);
layerId = "09AB1441-CF14-483D-884E-606841830E4D";
paths = (
{
closed = 1;
nodes = (
"595 20 LINE",
"607 133 LINE",
"546 176 LINE",
"587 186 OFFCURVE",
"611 211 OFFCURVE",
"616 259 CURVE SMOOTH",
"721 1279 LINE SMOOTH",
"735 1419 OFFCURVE",
"842 1469 OFFCURVE",
"997 1469 CURVE SMOOTH",
"1066 1469 OFFCURVE",
"1159 1434 OFFCURVE",
"1199 1408 CURVE",
"1226 1618 LINE",
"1187 1638 OFFCURVE",
"1106 1669 OFFCURVE",
"999 1669 CURVE SMOOTH",
"720 1669 OFFCURVE",
"535 1540 OFFCURVE",
"506 1274 CURVE SMOOTH",
"481 1047 LINE",
"595 894 LINE",
"480 883 OFFCURVE",
"452 818 OFFCURVE",
"441 698 CURVE SMOOTH",
"377 15 LINE"
);
},
{
closed = 1;
nodes = (
"891 0 LINE",
"909 176 LINE",
"157 176 LINE",
"139 0 LINE"
);
},
{
closed = 1;
nodes = (
"1036 894 LINE",
"1062 1092 LINE",
"227 1092 LINE",
"203 894 LINE"
);
}
);
width = 1200;
},
{
anchors = (
{
name = bottom;
position = "{581, 0}";
},
{
name = top;
position = "{776, 1586}";
}
);
guideLines = (
{
angle = 83.6979;
position = "{425, 381}";
}
);
layerId = "BF6BC6F6-4B2A-4E9B-9E28-8B62B2F12FD9";
paths = (
{
closed = 1;
nodes = (
"663 20 LINE",
"676 173 LINE",
"606 227 LINE",
"656 240 OFFCURVE",
"689 290 OFFCURVE",
"697 370 CURVE SMOOTH",
"779 1206 LINE SMOOTH",
"798 1400 OFFCURVE",
"874 1444 OFFCURVE",
"1003 1444 CURVE SMOOTH",
"1090 1444 OFFCURVE",
"1173 1423 OFFCURVE",
"1214 1388 CURVE",
"1248 1665 LINE",
"1193 1694 OFFCURVE",
"1117 1722 OFFCURVE",
"999 1722 CURVE SMOOTH",
"695 1722 OFFCURVE",
"521 1562 OFFCURVE",
"479 1218 CURVE SMOOTH",
"458 1047 LINE",
"569 830 LINE",
"472 819 OFFCURVE",
"428 760 OFFCURVE",
"421 678 CURVE SMOOTH",
"363 20 LINE"
);
},
{
closed = 1;
nodes = (
"910 0 LINE",
"933 227 LINE",
"137 227 LINE",
"114 0 LINE"
);
},
{
closed = 1;
nodes = (
"1076 830 LINE",
"1108 1092 LINE",
"219 1092 LINE",
"188 830 LINE"
);
}
);
width = 1200;
},
{
anchors = (
{
name = bottom;
position = "{577, -11}";
},
{
name = top;
position = "{779, 1586}";
}
);
layerId = "099DAB3F-15EF-4A0D-A0EC-988B8C582406";
paths = (
{
closed = 1;
nodes = (
"580 20 LINE",
"590 114 LINE",
"530 151 LINE",
"573 161 OFFCURVE",
"595 187 OFFCURVE",
"599 230 CURVE SMOOTH",
"710 1267 LINE SMOOTH",
"729 1446 OFFCURVE",
"848 1498 OFFCURVE",
"1000 1498 CURVE SMOOTH",
"1088 1498 OFFCURVE",
"1173 1464 OFFCURVE",
"1211 1441 CURVE",
"1234 1618 LINE",
"1195 1637 OFFCURVE",
"1118 1667 OFFCURVE",
"1000 1667 CURVE SMOOTH",
"746 1667 OFFCURVE",
"561 1541 OFFCURVE",
"530 1276 CURVE SMOOTH",
"504 1047 LINE",
"597 925 LINE",
"507 913 OFFCURVE",
"479 854 OFFCURVE",
"470 758 CURVE SMOOTH",
"395 17 LINE"
);
},
{
closed = 1;
nodes = (
"893 0 LINE",
"908 151 LINE",
"168 151 LINE",
"152 0 LINE"
);
},
{
closed = 1;
nodes = (
"1042 925 LINE",
"1063 1092 LINE",
"239 1092 LINE",
"218 925 LINE"
);
}
);
width = 1200;
}
);
unicode = 0066;
},
{
glyphname = g;
lastChange = "2022-05-06 15:57:35 +0000";
layers = (
{
anchors = (
{
name = bottom;
position = "{491, -445}";
},
{
name = top;
position = "{745, 1091}";
}
);
layerId = "0D9D1AFE-BAFC-449A-A530-9FCA9CDF2E2E";
paths = (
{
closed = 1;
nodes = (
"721 -571 OFFCURVE",
"893 -257 OFFCURVE",
"930 17 CURVE SMOOTH",
"1074 1075 LINE",
"955 1091 LINE",
"939 968 LINE",
"808 1 LINE SMOOTH",
"783 -186 OFFCURVE",
"641 -460 OFFCURVE",
"178 -350 CURVE",
"154 -463 LINE"
);
},
{
closed = 1;
nodes = (
"619 -12 OFFCURVE",
"792 181 OFFCURVE",
"876 454 CURVE",
"910 526 LINE",
"895 616 LINE",
"780 294 OFFCURVE",
"616 104 OFFCURVE",
"429 104 CURVE SMOOTH",
"308 104 OFFCURVE",
"255 174 OFFCURVE",
"255 355 CURVE SMOOTH",
"255 720 OFFCURVE",
"451 999 OFFCURVE",
"764 999 CURVE SMOOTH",
"827 999 OFFCURVE",
"971 985 OFFCURVE",
"1024 969 CURVE",
"1074 1075 LINE",
"1010 1094 OFFCURVE",
"846 1112 OFFCURVE",
"762 1112 CURVE SMOOTH",
"339 1112 OFFCURVE",
"124 705 OFFCURVE",
"124 345 CURVE SMOOTH",
"124 110 OFFCURVE",
"224 -12 OFFCURVE",
"406 -12 CURVE SMOOTH"
);
}
);
width = 1200;
},
{
anchors = (
{
name = bottom;
position = "{502, -445}";
},
{
name = top;
position = "{734, 1091}";
}
);
layerId = "09AB1441-CF14-483D-884E-606841830E4D";
paths = (
{
closed = 1;
nodes = (
"712 -622 OFFCURVE",
"918 -316 OFFCURVE",
"956 -27 CURVE SMOOTH",
"1098 1064 LINE",
"877 1091 LINE",
"847 857 LINE",
"745 49 LINE SMOOTH",
"711 -223 OFFCURVE",
"556 -399 OFFCURVE",
"108 -245 CURVE",
"74 -435 LINE"
);
},
{
closed = 1;
nodes = (
"612 -12 OFFCURVE",
"776 193 OFFCURVE",
"838 564 CURVE",
"863 683 LINE",
"842 737 LINE",
"767 370 OFFCURVE",
"636 171 OFFCURVE",
"474 171 CURVE SMOOTH",
"386 171 OFFCURVE",
"343 229 OFFCURVE",
"343 378 CURVE SMOOTH",
"343 674 OFFCURVE",
"483 925 OFFCURVE",
"736 925 CURVE SMOOTH",
"805 925 OFFCURVE",
"1015 904 OFFCURVE",
"994 891 CURVE",
"1094 1064 LINE",
"1041 1083 OFFCURVE",
"914 1112 OFFCURVE",
"755 1112 CURVE SMOOTH",
"390 1112 OFFCURVE",
"114 797 OFFCURVE",
"114 348 CURVE SMOOTH",
"114 102 OFFCURVE",
"204 -12 OFFCURVE",
"378 -12 CURVE SMOOTH"
);
}
);
width = 1200;
},
{
anchors = (
{
name = bottom;
position = "{473, -445}";
},
{
name = top;
position = "{726, 1091}";
}
);
layerId = "BF6BC6F6-4B2A-4E9B-9E28-8B62B2F12FD9";
paths = (
{
closed = 1;
nodes = (
"642 -714 OFFCURVE",
"946 -406 OFFCURVE",
"991 -45 CURVE SMOOTH",
"1130 1063 LINE",
"838 1091 LINE",
"822 942 LINE",
"692 -43 LINE SMOOTH",
"665 -244 OFFCURVE",
"480 -408 OFFCURVE",
"96 -222 CURVE",
"47 -466 LINE"
);
},
{
closed = 1;
nodes = (
"577 -13 OFFCURVE",
"704 120 OFFCURVE",
"756 381 CURVE",
"798 459 LINE",
"777 532 LINE",
"712 374 OFFCURVE",
"621 242 OFFCURVE",
"484 242 CURVE SMOOTH",
"413 242 OFFCURVE",
"392 277 OFFCURVE",
"392 384 CURVE SMOOTH",
"392 647 OFFCURVE",
"476 874 OFFCURVE",
"716 874 CURVE SMOOTH",
"761 874 OFFCURVE",
"866 862 OFFCURVE",
"914 843 CURVE",
"1130 1063 LINE",
"1055 1081 OFFCURVE",
"923 1112 OFFCURVE",
"741 1112 CURVE SMOOTH",
"271 1112 OFFCURVE",
"82 724 OFFCURVE",
"82 370 CURVE SMOOTH",
"82 139 OFFCURVE",
"207 -13 OFFCURVE",
"387 -13 CURVE SMOOTH"
);
}
);
width = 1200;
},
{
anchors = (
{
name = bottom;
position = "{498, -445}";
},
{
name = top;
position = "{738, 1091}";
}
);
layerId = "099DAB3F-15EF-4A0D-A0EC-988B8C582406";
paths = (
{
closed = 1;
nodes = (
"715 -603 OFFCURVE",
"909 -294 OFFCURVE",
"946 -11 CURVE SMOOTH",
"1089 1068 LINE",
"906 1091 LINE",
"882 899 LINE",
"769 31 LINE SMOOTH",
"738 -209 OFFCURVE",
"588 -422 OFFCURVE",
"134 -284 CURVE",
"104 -446 LINE"
);
},
{
closed = 1;
nodes = (
"615 -12 OFFCURVE",
"782 189 OFFCURVE",
"852 523 CURVE",
"881 624 LINE",
"862 692 LINE",
"772 342 OFFCURVE",
"629 146 OFFCURVE",
"457 146 CURVE SMOOTH",
"357 146 OFFCURVE",
"310 208 OFFCURVE",
"310 369 CURVE SMOOTH",
"310 691 OFFCURVE",
"471 953 OFFCURVE",
"747 953 CURVE SMOOTH",
"813 953 OFFCURVE",
"999 934 OFFCURVE",
"1005 920 CURVE",
"1087 1068 LINE",
"1029 1087 OFFCURVE",
"889 1112 OFFCURVE",
"758 1112 CURVE SMOOTH",
"371 1112 OFFCURVE",
"118 763 OFFCURVE",
"118 347 CURVE SMOOTH",
"118 105 OFFCURVE",
"212 -12 OFFCURVE",
"389 -12 CURVE SMOOTH"
);
}
);
width = 1200;
}
);
unicode = 0067;
userData = {
KernOnName = g;
};
},
{
glyphname = h;
lastChange = "2022-05-06 15:57:35 +0000";
layers = (
{
anchors = (
{
name = bottom;
position = "{566, 0}";
},
{
name = center;
position = "{340, 1341}";
},
{
name = top;
position = "{733, 1586}";
}
);
layerId = "0D9D1AFE-BAFC-449A-A530-9FCA9CDF2E2E";
paths = (
{
closed = 1;
nodes = (
"267 0 LINE",
"332 587 LINE",
"428 910 OFFCURVE",
"565 996 OFFCURVE",
"704 996 CURVE SMOOTH",
"863 996 OFFCURVE",
"919 902 OFFCURVE",
"897 700 CURVE SMOOTH",
"821 0 LINE",
"946 0 LINE",
"1027 753 LINE SMOOTH",
"1052 983 OFFCURVE",
"940 1114 OFFCURVE",
"738 1114 CURVE SMOOTH",
"539 1114 OFFCURVE",
"360 936 OFFCURVE",
"310 564 CURVE",
"326 564 LINE",
"367 976 LINE",
"424 1556 LINE",
"304 1556 LINE",
"143 0 LINE"
);
}
);
width = 1200;
},
{
anchors = (
{
name = bottom;
position = "{586, 0}";
},
{
name = center;
position = "{323, 1360}";
},
{
name = top;
position = "{753, 1586}";
}
);
layerId = "09AB1441-CF14-483D-884E-606841830E4D";
paths = (
{
closed = 1;
nodes = (
"331 0 LINE",
"397 631 LINE",
"452 785 OFFCURVE",
"576 906 OFFCURVE",
"678 906 CURVE SMOOTH",
"809 906 OFFCURVE",
"824 835 OFFCURVE",
"804 646 CURVE SMOOTH",
"736 0 LINE",
"960 0 LINE",
"1036 723 LINE SMOOTH",
"1063 980 OFFCURVE",
"984 1114 OFFCURVE",
"778 1114 CURVE SMOOTH",
"544 1114 OFFCURVE",
"424 836 OFFCURVE",
"381 658 CURVE",
"385 657 LINE",
"446 1091 LINE",
"495 1556 LINE",
"271 1556 LINE",
"107 0 LINE"
);
}
);
width = 1200;
},
{
anchors = (
{
name = bottom;
position = "{570, 0}";
},
{
name = center;
position = "{339, 1329}";
},
{
name = top;
position = "{737, 1586}";
}
);
layerId = "BF6BC6F6-4B2A-4E9B-9E28-8B62B2F12FD9";
paths = (
{
closed = 1;
nodes = (
"391 0 LINE",
"452 586 LINE",
"500 806 OFFCURVE",
"597 854 OFFCURVE",
"663 854 CURVE SMOOTH",
"744 854 OFFCURVE",
"796 805 OFFCURVE",
"780 653 CURVE SMOOTH",
"711 0 LINE",
"1020 0 LINE",
"1096 723 LINE SMOOTH",
"1124 987 OFFCURVE",
"1015 1114 OFFCURVE",
"826 1114 CURVE SMOOTH",
"655 1114 OFFCURVE",
"494 960 OFFCURVE",
"439 641 CURVE",
"442 658 LINE",
"497 1091 LINE",
"546 1561 LINE",
"246 1561 LINE",
"82 0 LINE"
);
}
);
width = 1200;
},
{
anchors = (
{
name = bottom;
position = "{579, 0}";
},
{
name = center;
position = "{329, 1353}";
},
{
name = top;
position = "{746, 1586}";
}
);
layerId = "099DAB3F-15EF-4A0D-A0EC-988B8C582406";
paths = (
{
closed = 1;
nodes = (
"307 0 LINE",
"373 615 LINE",
"443 832 OFFCURVE",
"572 940 OFFCURVE",
"688 940 CURVE SMOOTH",
"829 940 OFFCURVE",
"860 860 OFFCURVE",
"839 666 CURVE SMOOTH",
"768 0 LINE",
"955 0 LINE",
"1033 734 LINE SMOOTH",
"1059 981 OFFCURVE",
"968 1114 OFFCURVE",
"763 1114 CURVE SMOOTH",
"542 1114 OFFCURVE",
"400 874 OFFCURVE",
"354 623 CURVE",
"363 622 LINE",
"416 1048 LINE",
"468 1556 LINE",
"283 1556 LINE",
"121 0 LINE"
);
}
);
width = 1200;
}
);
unicode = 0068;
userData = {
KernOnName = h;
};
},
{
glyphname = i;
lastChange = "2022-05-06 15:57:35 +0000";
layers = (
{
anchors = (
{
name = bottom;
position = "{674, 0}";
}
);
layerId = "0D9D1AFE-BAFC-449A-A530-9FCA9CDF2E2E";
paths = (
{
closed = 1;
nodes = (
"835 1319 OFFCURVE",
"893 1381 OFFCURVE",
"893 1457 CURVE SMOOTH",
"893 1521 OFFCURVE",
"849 1564 OFFCURVE",
"789 1564 CURVE SMOOTH",
"717 1564 OFFCURVE",
"660 1503 OFFCURVE",
"660 1426 CURVE SMOOTH",
"660 1364 OFFCURVE",
"702 1319 OFFCURVE",
"764 1319 CURVE SMOOTH"
);
},
{
closed = 1;
nodes = (
"897 -12 OFFCURVE",
"1004 18 OFFCURVE",
"1066 49 CURVE",
"1081 170 LINE",
"998 134 OFFCURVE",
"920 103 OFFCURVE",
"803 103 CURVE SMOOTH",
"661 103 OFFCURVE",
"617 156 OFFCURVE",
"643 306 CURVE SMOOTH",
"779 1091 LINE",
"237 1091 LINE",
"223 982 LINE",
"712 982 LINE",
"665 974 OFFCURVE",
"636 931 OFFCURVE",
"623 859 CURVE SMOOTH",
"523 317 LINE SMOOTH",
"486 118 OFFCURVE",
"557 -12 OFFCURVE",
"778 -12 CURVE SMOOTH"
);
}
);
width = 1200;
},
{
anchors = (
{
name = bottom;
position = "{660, 0}";
}
);
layerId = "09AB1441-CF14-483D-884E-606841830E4D";
paths = (
{
closed = 1;
nodes = (
"842 1274 OFFCURVE",
"923 1357 OFFCURVE",
"923 1463 CURVE SMOOTH",
"923 1553 OFFCURVE",
"860 1612 OFFCURVE",
"775 1612 CURVE SMOOTH",
"673 1612 OFFCURVE",
"592 1527 OFFCURVE",
"592 1420 CURVE SMOOTH",
"592 1332 OFFCURVE",
"656 1274 OFFCURVE",
"740 1274 CURVE SMOOTH"
);
},
{
closed = 1;
nodes = (
"841 -16 OFFCURVE",
"943 4 OFFCURVE",
"1021 32 CURVE",
"1047 243 LINE",
"976 211 OFFCURVE",
"893 187 OFFCURVE",
"814 187 CURVE SMOOTH",
"700 187 OFFCURVE",
"665 217 OFFCURVE",
"688 351 CURVE SMOOTH",
"815 1091 LINE",
"221 1091 LINE",
"200 893 LINE",
"625 893 LINE",
"580 888 OFFCURVE",
"553 855 OFFCURVE",
"543 799 CURVE SMOOTH",
"456 297 LINE SMOOTH",
"415 58 OFFCURVE",
"570 -16 OFFCURVE",
"765 -16 CURVE SMOOTH"
);
}
);
width = 1200;
},
{
anchors = (
{
name = bottom;
position = "{695, 0}";
}
);
layerId = "BF6BC6F6-4B2A-4E9B-9E28-8B62B2F12FD9";
paths = (
{
closed = 1;
nodes = (
"881 1280 OFFCURVE",
"977 1379 OFFCURVE",
"977 1507 CURVE SMOOTH",
"977 1616 OFFCURVE",
"901 1682 OFFCURVE",
"800 1682 CURVE SMOOTH",
"676 1682 OFFCURVE",
"580 1582 OFFCURVE",
"580 1454 CURVE SMOOTH",
"580 1347 OFFCURVE",
"656 1280 OFFCURVE",
"758 1280 CURVE SMOOTH"
);
},
{
closed = 1;
nodes = (
"898 -16 OFFCURVE",
"961 1 OFFCURVE",
"1033 31 CURVE",
"1064 282 LINE",
"999 258 OFFCURVE",
"932 247 OFFCURVE",
"826 247 CURVE SMOOTH",
"747 247 OFFCURVE",
"732 271 OFFCURVE",
"752 396 CURVE SMOOTH",
"864 1091 LINE",
"199 1091 LINE",
"170 830 LINE",
"616 830 LINE",
"554 820 OFFCURVE",
"524 781 OFFCURVE",
"506 679 CURVE SMOOTH",
"451 367 LINE SMOOTH",
"404 102 OFFCURVE",
"526 -16 OFFCURVE",
"772 -16 CURVE SMOOTH"
);
}
);
width = 1200;
},
{
anchors = (
{
name = bottom;
position = "{665, 0}";
}
);
layerId = "099DAB3F-15EF-4A0D-A0EC-988B8C582406";
paths = (
{
closed = 1;
nodes = (
"839 1291 OFFCURVE",
"912 1366 OFFCURVE",
"912 1461 CURVE SMOOTH",
"912 1541 OFFCURVE",
"856 1594 OFFCURVE",
"780 1594 CURVE SMOOTH",
"690 1594 OFFCURVE",
"618 1518 OFFCURVE",
"618 1422 CURVE SMOOTH",
"618 1344 OFFCURVE",
"673 1291 OFFCURVE",
"749 1291 CURVE SMOOTH"
);
},
{
closed = 1;
nodes = (
"862 -15 OFFCURVE",
"966 9 OFFCURVE",
"1038 38 CURVE",
"1060 216 LINE",
"984 182 OFFCURVE",
"903 156 OFFCURVE",
"810 156 CURVE SMOOTH",
"685 156 OFFCURVE",
"647 194 OFFCURVE",
"671 334 CURVE SMOOTH",
"802 1091 LINE",
"227 1091 LINE",
"209 926 LINE",
"658 926 LINE",
"612 920 OFFCURVE",
"584 884 OFFCURVE",
"573 822 CURVE SMOOTH",
"481 305 LINE SMOOTH",
"442 81 OFFCURVE",
"565 -15 OFFCURVE",
"770 -15 CURVE SMOOTH"
);
}
);
width = 1200;
}
);
unicode = 0069;
userData = {
KernOnName = i;
};
},
{
glyphname = idotless;
lastChange = "2022-05-06 15:57:35 +0000";
layers = (
{
anchors = (
{
name = bottom;
position = "{548, 0}";
},
{
name = ogonek;
position = "{1012, 49}";
},
{
name = top;
position = "{718, 1091}";
}
);
layerId = "0D9D1AFE-BAFC-449A-A530-9FCA9CDF2E2E";
paths = (
{
closed = 1;
nodes = (
"897 -12 OFFCURVE",
"1004 18 OFFCURVE",
"1066 49 CURVE",
"1081 170 LINE",
"998 134 OFFCURVE",
"920 103 OFFCURVE",
"803 103 CURVE SMOOTH",
"661 103 OFFCURVE",
"617 156 OFFCURVE",
"643 306 CURVE SMOOTH",
"779 1091 LINE",
"237 1091 LINE",
"223 982 LINE",
"712 982 LINE",
"665 974 OFFCURVE",
"636 931 OFFCURVE",
"623 859 CURVE SMOOTH",
"523 317 LINE SMOOTH",
"486 118 OFFCURVE",
"557 -12 OFFCURVE",
"778 -12 CURVE SMOOTH"
);
}
);
width = 1200;
},
{
anchors = (
{
name = bottom;
position = "{543, 0}";
},
{
name = ogonek;
position = "{1031, 32}";
},
{
name = top;
position = "{668, 1091}";
}
);
layerId = "09AB1441-CF14-483D-884E-606841830E4D";
paths = (
{
closed = 1;
nodes = (
"841 -16 OFFCURVE",
"943 4 OFFCURVE",
"1021 32 CURVE",
"1047 243 LINE",
"976 211 OFFCURVE",
"893 187 OFFCURVE",
"814 187 CURVE SMOOTH",
"700 187 OFFCURVE",
"665 217 OFFCURVE",
"688 351 CURVE SMOOTH",
"815 1091 LINE",
"221 1091 LINE",
"200 893 LINE",
"625 893 LINE",
"580 888 OFFCURVE",
"553 855 OFFCURVE",
"543 799 CURVE SMOOTH",
"456 297 LINE SMOOTH",
"415 58 OFFCURVE",
"570 -16 OFFCURVE",
"765 -16 CURVE SMOOTH"
);
}
);
width = 1200;
},
{
anchors = (
{
name = bottom;
position = "{560, 0}";
},
{
name = ogonek;
position = "{1044, 31}";
},
{
name = top;
position = "{670, 1091}";
}
);
layerId = "BF6BC6F6-4B2A-4E9B-9E28-8B62B2F12FD9";
paths = (
{
closed = 1;
nodes = (
"898 -16 OFFCURVE",
"961 1 OFFCURVE",
"1033 31 CURVE",
"1064 282 LINE",
"999 258 OFFCURVE",
"932 247 OFFCURVE",
"826 247 CURVE SMOOTH",
"747 247 OFFCURVE",
"732 271 OFFCURVE",
"752 396 CURVE SMOOTH",
"864 1091 LINE",
"199 1091 LINE",
"170 830 LINE",
"616 830 LINE",
"554 820 OFFCURVE",
"524 781 OFFCURVE",
"506 679 CURVE SMOOTH",
"451 367 LINE SMOOTH",
"404 102 OFFCURVE",
"526 -16 OFFCURVE",
"772 -16 CURVE SMOOTH"
);
}
);
width = 1200;
},
{
anchors = (
{
name = bottom;
position = "{545, 0}";
},
{
name = ogonek;
position = "{1024, 38}";
},
{
name = top;
position = "{687, 1091}";
}
);
layerId = "099DAB3F-15EF-4A0D-A0EC-988B8C582406";
paths = (
{
closed = 1;
nodes = (
"862 -15 OFFCURVE",
"966 9 OFFCURVE",
"1038 38 CURVE",
"1060 216 LINE",
"984 182 OFFCURVE",
"903 156 OFFCURVE",
"810 156 CURVE SMOOTH",
"685 156 OFFCURVE",
"647 194 OFFCURVE",
"671 334 CURVE SMOOTH",
"802 1091 LINE",
"227 1091 LINE",
"209 926 LINE",
"658 926 LINE",
"612 920 OFFCURVE",
"584 884 OFFCURVE",
"573 822 CURVE SMOOTH",
"481 305 LINE SMOOTH",
"442 81 OFFCURVE",
"565 -15 OFFCURVE",
"770 -15 CURVE SMOOTH"
);
}
);
width = 1200;
}
);
unicode = 0131;
},
{
glyphname = ij;
lastChange = "2022-05-06 15:57:35 +0000";
layers = (
{
layerId = "0D9D1AFE-BAFC-449A-A530-9FCA9CDF2E2E";
paths = (
{
closed = 1;
nodes = (
"876 -462 OFFCURVE",
"914 -348 OFFCURVE",
"938 -172 CURVE SMOOTH",
"1109 1091 LINE",
"1055 975 LINE",
"995 975 OFFCURVE",
"974 929 OFFCURVE",
"965 865 CURVE SMOOTH",
"811 -219 LINE SMOOTH",
"798 -312 OFFCURVE",
"774 -335 OFFCURVE",
"687 -335 CURVE SMOOTH",
"624 -335 OFFCURVE",
"572 -324 OFFCURVE",
"534 -305 CURVE",
"520 -433 LINE",
"570 -450 OFFCURVE",
"631 -462 OFFCURVE",
"691 -462 CURVE SMOOTH"
);
},
{
closed = 1;
nodes = (
"565 -12 OFFCURVE",
"645 19 OFFCURVE",
"702 49 CURVE",
"717 170 LINE",
"658 137 OFFCURVE",
"589 103 OFFCURVE",
"488 103 CURVE SMOOTH",
"364 103 OFFCURVE",
"301 156 OFFCURVE",
"326 306 CURVE SMOOTH",
"459 1091 LINE",
"-27 1091 LINE",
"-41 975 LINE",
"392 975 LINE",
"345 967 OFFCURVE",
"314 924 OFFCURVE",
"301 852 CURVE SMOOTH",
"206 317 LINE SMOOTH",
"171 120 OFFCURVE",
"247 -12 OFFCURVE",
"461 -12 CURVE SMOOTH"
);
},
{
closed = 1;
nodes = (
"1097 977 LINE",
"1109 1091 LINE",
"655 1091 LINE",
"643 975 LINE"
);
},
{
closed = 1;
nodes = (
"482 1319 OFFCURVE",
"540 1381 OFFCURVE",
"540 1457 CURVE SMOOTH",
"540 1521 OFFCURVE",
"496 1564 OFFCURVE",
"436 1564 CURVE SMOOTH",
"364 1564 OFFCURVE",
"307 1503 OFFCURVE",
"307 1426 CURVE SMOOTH",
"307 1364 OFFCURVE",
"349 1319 OFFCURVE",
"411 1319 CURVE SMOOTH"
);
},
{
closed = 1;
nodes = (
"1134 1319 OFFCURVE",
"1192 1381 OFFCURVE",
"1192 1457 CURVE SMOOTH",
"1192 1521 OFFCURVE",
"1148 1564 OFFCURVE",
"1088 1564 CURVE SMOOTH",
"1016 1564 OFFCURVE",
"959 1503 OFFCURVE",
"959 1426 CURVE SMOOTH",
"959 1364 OFFCURVE",
"1001 1319 OFFCURVE",
"1063 1319 CURVE SMOOTH"
);
}
);
width = 1200;
},
{
layerId = "09AB1441-CF14-483D-884E-606841830E4D";
paths = (
{
closed = 1;
nodes = (
"1002 -462 OFFCURVE",
"1052 -305 OFFCURVE",
"1069 -152 CURVE SMOOTH",
"1204 1092 LINE",
"1059 891 LINE",
"980 887 OFFCURVE",
"952 814 OFFCURVE",
"939 690 CURVE SMOOTH",
"852 -139 LINE SMOOTH",
"844 -216 OFFCURVE",
"811 -243 OFFCURVE",
"731 -243 CURVE SMOOTH",
"665 -243 OFFCURVE",
"622 -230 OFFCURVE",
"582 -214 CURVE",
"560 -422 LINE",
"602 -443 OFFCURVE",
"677 -462 OFFCURVE",
"776 -462 CURVE SMOOTH"
);
},
{
closed = 1;
nodes = (
"540 -16 OFFCURVE",
"632 2 OFFCURVE",
"697 32 CURVE",
"723 243 LINE",
"655 211 OFFCURVE",
"597 193 OFFCURVE",
"532 193 CURVE SMOOTH",
"461 193 OFFCURVE",
"411 217 OFFCURVE",
"431 351 CURVE SMOOTH",
"544 1091 LINE",
"69 1091 LINE",
"48 891 LINE",
"354 891 LINE",
"309 886 OFFCURVE",
"281 853 OFFCURVE",
"272 797 CURVE SMOOTH",
"193 297 LINE SMOOTH",
"155 59 OFFCURVE",
"303 -16 OFFCURVE",
"482 -16 CURVE SMOOTH"
);
},
{
closed = 1;
nodes = (
"1183 891 LINE",
"1204 1092 LINE",
"699 1092 LINE",
"678 891 LINE"
);
},
{
closed = 1;
nodes = (
"550 1274 OFFCURVE",
"631 1357 OFFCURVE",
"631 1463 CURVE SMOOTH",
"631 1553 OFFCURVE",
"568 1612 OFFCURVE",
"483 1612 CURVE SMOOTH",
"381 1612 OFFCURVE",
"300 1527 OFFCURVE",
"300 1420 CURVE SMOOTH",
"300 1332 OFFCURVE",
"364 1274 OFFCURVE",
"448 1274 CURVE SMOOTH"
);
},
{
closed = 1;
nodes = (
"1192 1274 OFFCURVE",
"1273 1357 OFFCURVE",
"1273 1463 CURVE SMOOTH",
"1273 1553 OFFCURVE",
"1210 1612 OFFCURVE",
"1125 1612 CURVE SMOOTH",
"1023 1612 OFFCURVE",
"942 1527 OFFCURVE",
"942 1420 CURVE SMOOTH",
"942 1332 OFFCURVE",
"1006 1274 OFFCURVE",
"1090 1274 CURVE SMOOTH"
);
}
);
width = 1200;
},
{
layerId = "BF6BC6F6-4B2A-4E9B-9E28-8B62B2F12FD9";
paths = (
{
closed = 1;
nodes = (
"973 -446 OFFCURVE",
"1086 -340 OFFCURVE",
"1108 -134 CURVE SMOOTH",
"1238 1092 LINE",
"1055 844 LINE",
"994 844 OFFCURVE",
"915 821 OFFCURVE",
"905 728 CURVE SMOOTH",
"822 -69 LINE SMOOTH",
"812 -161 OFFCURVE",
"783 -173 OFFCURVE",
"738 -173 CURVE SMOOTH",
"670 -173 OFFCURVE",
"616 -162 OFFCURVE",
"573 -145 CURVE",
"545 -411 LINE",
"611 -428 OFFCURVE",
"680 -446 OFFCURVE",
"815 -446 CURVE SMOOTH"
);
},
{
closed = 1;
nodes = (
"549 -16 OFFCURVE",
"635 7 OFFCURVE",
"673 31 CURVE",
"704 282 LINE",
"643 258 OFFCURVE",
"595 247 OFFCURVE",
"544 247 CURVE SMOOTH",
"457 247 OFFCURVE",
"426 280 OFFCURVE",
"446 415 CURVE SMOOTH",
"544 1091 LINE",
"69 1091 LINE",
"40 844 LINE",
"290 844 LINE",
"236 834 OFFCURVE",
"204 796 OFFCURVE",
"194 728 CURVE SMOOTH",
"135 309 LINE SMOOTH",
"106 101 OFFCURVE",
"194 -16 OFFCURVE",
"451 -16 CURVE SMOOTH"
);
},
{
closed = 1;
nodes = (
"1115 844 LINE",
"1238 1092 LINE",
"723 1092 LINE",
"697 844 LINE"
);
},
{
closed = 1;
nodes = (
"531 1280 OFFCURVE",
"627 1379 OFFCURVE",
"627 1507 CURVE SMOOTH",
"627 1616 OFFCURVE",
"551 1682 OFFCURVE",
"450 1682 CURVE SMOOTH",
"326 1682 OFFCURVE",
"230 1582 OFFCURVE",
"230 1454 CURVE SMOOTH",
"230 1347 OFFCURVE",
"306 1280 OFFCURVE",
"408 1280 CURVE SMOOTH"
);
},
{
closed = 1;
nodes = (
"1219 1280 OFFCURVE",
"1315 1379 OFFCURVE",
"1315 1507 CURVE SMOOTH",
"1315 1616 OFFCURVE",
"1239 1682 OFFCURVE",
"1138 1682 CURVE SMOOTH",
"1014 1682 OFFCURVE",
"918 1582 OFFCURVE",
"918 1454 CURVE SMOOTH",
"918 1347 OFFCURVE",
"994 1280 OFFCURVE",
"1096 1280 CURVE SMOOTH"
);
}
);
width = 1200;
},
{
layerId = "099DAB3F-15EF-4A0D-A0EC-988B8C582406";
paths = (
{
closed = 1;
nodes = (
"955 -462 OFFCURVE",
"1000 -321 OFFCURVE",
"1020 -160 CURVE SMOOTH",
"1168 1092 LINE",
"1058 923 LINE",
"986 920 OFFCURVE",
"960 857 OFFCURVE",
"949 756 CURVE SMOOTH",
"837 -169 LINE SMOOTH",
"827 -252 OFFCURVE",
"797 -278 OFFCURVE",
"715 -278 CURVE SMOOTH",
"650 -278 OFFCURVE",
"603 -265 OFFCURVE",
"564 -248 CURVE",
"545 -426 LINE",
"590 -446 OFFCURVE",
"660 -462 OFFCURVE",
"744 -462 CURVE SMOOTH"
);
},
{
closed = 1;
nodes = (
"549 -15 OFFCURVE",
"637 8 OFFCURVE",
"699 38 CURVE",
"721 216 LINE",
"656 183 OFFCURVE",
"594 159 OFFCURVE",
"516 159 CURVE SMOOTH",
"425 159 OFFCURVE",
"370 194 OFFCURVE",
"392 334 CURVE SMOOTH",
"512 1091 LINE",
"33 1091 LINE",
"15 923 LINE",
"368 923 LINE",
"323 916 OFFCURVE",
"293 880 OFFCURVE",
"283 818 CURVE SMOOTH",
"198 305 LINE SMOOTH",
"161 82 OFFCURVE",
"282 -15 OFFCURVE",
"474 -15 CURVE SMOOTH"
);
},
{
closed = 1;
nodes = (
"1151 923 LINE",
"1168 1092 LINE",
"683 1092 LINE",
"665 923 LINE"
);
},
{
closed = 1;
nodes = (
"525 1291 OFFCURVE",
"597 1366 OFFCURVE",
"597 1461 CURVE SMOOTH",
"597 1541 OFFCURVE",
"541 1594 OFFCURVE",
"465 1594 CURVE SMOOTH",
"375 1594 OFFCURVE",
"303 1518 OFFCURVE",
"303 1422 CURVE SMOOTH",
"303 1344 OFFCURVE",
"358 1291 OFFCURVE",
"434 1291 CURVE SMOOTH"
);
},
{
closed = 1;
nodes = (
"1170 1291 OFFCURVE",
"1243 1366 OFFCURVE",
"1243 1461 CURVE SMOOTH",
"1243 1541 OFFCURVE",
"1187 1594 OFFCURVE",
"1111 1594 CURVE SMOOTH",
"1020 1594 OFFCURVE",
"948 1518 OFFCURVE",
"948 1422 CURVE SMOOTH",
"948 1344 OFFCURVE",
"1004 1291 OFFCURVE",
"1080 1291 CURVE SMOOTH"
);
}
);
width = 1200;
}
);
unicode = 0133;
},
{
glyphname = ij_acutecomb;
lastChange = "2022-05-06 15:57:35 +0000";
layers = (
{
layerId = "0D9D1AFE-BAFC-449A-A530-9FCA9CDF2E2E";
paths = (
{
closed = 1;
nodes = (
"876 -462 OFFCURVE",
"914 -348 OFFCURVE",
"938 -172 CURVE SMOOTH",
"1109 1091 LINE",
"1055 975 LINE",
"995 975 OFFCURVE",
"974 929 OFFCURVE",
"965 865 CURVE SMOOTH",
"811 -219 LINE SMOOTH",
"798 -312 OFFCURVE",
"774 -335 OFFCURVE",
"687 -335 CURVE SMOOTH",
"624 -335 OFFCURVE",
"572 -324 OFFCURVE",
"534 -305 CURVE",
"520 -433 LINE",
"570 -450 OFFCURVE",
"631 -462 OFFCURVE",
"691 -462 CURVE SMOOTH"
);
},
{
closed = 1;
nodes = (
"565 -12 OFFCURVE",
"645 19 OFFCURVE",
"702 49 CURVE",
"717 170 LINE",
"658 137 OFFCURVE",
"589 103 OFFCURVE",
"488 103 CURVE SMOOTH",
"364 103 OFFCURVE",
"301 156 OFFCURVE",
"326 306 CURVE SMOOTH",
"459 1091 LINE",
"-27 1091 LINE",
"-41 975 LINE",
"392 975 LINE",
"345 967 OFFCURVE",
"314 924 OFFCURVE",
"301 852 CURVE SMOOTH",
"206 317 LINE SMOOTH",
"171 120 OFFCURVE",
"247 -12 OFFCURVE",
"461 -12 CURVE SMOOTH"
);
},
{
closed = 1;
nodes = (
"1097 977 LINE",
"1109 1091 LINE",
"655 1091 LINE",
"643 975 LINE"
);
},
{
closed = 1;
nodes = (
"497 1284 LINE",
"751 1593 LINE",
"587 1593 LINE",
"350 1284 LINE"
);
},
{
closed = 1;
nodes = (
"1112 1284 LINE",
"1366 1593 LINE",
"1202 1593 LINE",
"965 1284 LINE"
);
}
);
width = 1200;
},
{
layerId = "09AB1441-CF14-483D-884E-606841830E4D";
paths = (
{
closed = 1;
nodes = (
"1002 -462 OFFCURVE",
"1052 -305 OFFCURVE",
"1069 -152 CURVE SMOOTH",
"1204 1092 LINE",
"1059 891 LINE",
"980 887 OFFCURVE",
"952 814 OFFCURVE",
"939 690 CURVE SMOOTH",
"852 -139 LINE SMOOTH",
"844 -216 OFFCURVE",
"811 -243 OFFCURVE",
"731 -243 CURVE SMOOTH",
"665 -243 OFFCURVE",
"622 -230 OFFCURVE",
"582 -214 CURVE",
"560 -422 LINE",
"602 -443 OFFCURVE",
"677 -462 OFFCURVE",
"776 -462 CURVE SMOOTH"
);
},
{
closed = 1;
nodes = (
"540 -16 OFFCURVE",
"632 2 OFFCURVE",
"697 32 CURVE",
"723 243 LINE",
"655 211 OFFCURVE",
"597 193 OFFCURVE",
"532 193 CURVE SMOOTH",
"461 193 OFFCURVE",
"411 217 OFFCURVE",
"431 351 CURVE SMOOTH",
"544 1091 LINE",
"69 1091 LINE",
"48 891 LINE",
"354 891 LINE",
"309 886 OFFCURVE",
"281 853 OFFCURVE",
"272 797 CURVE SMOOTH",
"193 297 LINE SMOOTH",
"155 59 OFFCURVE",
"303 -16 OFFCURVE",
"482 -16 CURVE SMOOTH"
);
},
{
closed = 1;
nodes = (
"1183 891 LINE",
"1204 1092 LINE",
"699 1092 LINE",
"678 891 LINE"
);
},
{
closed = 1;
nodes = (
"580 1284 LINE",
"845 1614 LINE",
"588 1614 LINE",
"341 1284 LINE"
);
},
{
closed = 1;
nodes = (
"1217 1284 LINE",
"1482 1614 LINE",
"1225 1614 LINE",
"978 1284 LINE"
);
}
);
width = 1200;
},
{
layerId = "BF6BC6F6-4B2A-4E9B-9E28-8B62B2F12FD9";
paths = (
{
closed = 1;
nodes = (
"973 -446 OFFCURVE",
"1086 -340 OFFCURVE",
"1108 -134 CURVE SMOOTH",
"1238 1092 LINE",
"1055 844 LINE",
"994 844 OFFCURVE",
"915 821 OFFCURVE",
"905 728 CURVE SMOOTH",
"822 -69 LINE SMOOTH",
"812 -161 OFFCURVE",
"783 -173 OFFCURVE",
"738 -173 CURVE SMOOTH",
"670 -173 OFFCURVE",
"616 -162 OFFCURVE",
"573 -145 CURVE",
"545 -411 LINE",
"611 -428 OFFCURVE",
"680 -446 OFFCURVE",
"815 -446 CURVE SMOOTH"
);
},
{
closed = 1;
nodes = (
"549 -16 OFFCURVE",
"635 7 OFFCURVE",
"673 31 CURVE",
"704 282 LINE",
"643 258 OFFCURVE",
"595 247 OFFCURVE",
"544 247 CURVE SMOOTH",
"457 247 OFFCURVE",
"426 280 OFFCURVE",
"446 415 CURVE SMOOTH",
"544 1091 LINE",
"69 1091 LINE",
"40 844 LINE",
"290 844 LINE",
"236 834 OFFCURVE",
"204 796 OFFCURVE",
"194 728 CURVE SMOOTH",
"135 309 LINE SMOOTH",
"106 101 OFFCURVE",
"194 -16 OFFCURVE",
"451 -16 CURVE SMOOTH"
);
},
{
closed = 1;
nodes = (
"1115 844 LINE",
"1238 1092 LINE",
"723 1092 LINE",
"697 844 LINE"
);
},
{
closed = 1;
nodes = (
"565 1284 LINE",
"841 1623 LINE",
"509 1623 LINE",
"275 1284 LINE"
);
},
{
closed = 1;
nodes = (
"1250 1284 LINE",
"1526 1623 LINE",
"1194 1623 LINE",
"960 1284 LINE"
);
}
);
width = 1200;
},
{
layerId = "099DAB3F-15EF-4A0D-A0EC-988B8C582406";
paths = (
{
closed = 1;
nodes = (
"955 -462 OFFCURVE",
"1000 -321 OFFCURVE",
"1020 -160 CURVE SMOOTH",
"1168 1092 LINE",
"1058 923 LINE",
"986 920 OFFCURVE",
"960 857 OFFCURVE",
"949 756 CURVE SMOOTH",
"837 -169 LINE SMOOTH",
"827 -252 OFFCURVE",
"797 -278 OFFCURVE",
"715 -278 CURVE SMOOTH",
"650 -278 OFFCURVE",
"603 -265 OFFCURVE",
"564 -248 CURVE",
"545 -426 LINE",
"590 -446 OFFCURVE",
"660 -462 OFFCURVE",
"744 -462 CURVE SMOOTH"
);
},
{
closed = 1;
nodes = (
"549 -15 OFFCURVE",
"637 8 OFFCURVE",
"699 38 CURVE",
"721 216 LINE",
"656 183 OFFCURVE",
"594 159 OFFCURVE",
"516 159 CURVE SMOOTH",
"425 159 OFFCURVE",
"370 194 OFFCURVE",
"392 334 CURVE SMOOTH",
"512 1091 LINE",
"33 1091 LINE",
"15 923 LINE",
"368 923 LINE",
"323 916 OFFCURVE",
"293 880 OFFCURVE",
"283 818 CURVE SMOOTH",
"198 305 LINE SMOOTH",
"161 82 OFFCURVE",
"282 -15 OFFCURVE",
"474 -15 CURVE SMOOTH"
);
},
{
closed = 1;
nodes = (
"1151 923 LINE",
"1168 1092 LINE",
"683 1092 LINE",
"665 923 LINE"
);
},
{
closed = 1;
nodes = (
"549 1284 LINE",
"810 1606 LINE",
"588 1606 LINE",
"344 1284 LINE"
);
},
{
closed = 1;
nodes = (
"1178 1284 LINE",
"1439 1606 LINE",
"1216 1606 LINE",
"973 1284 LINE"
);
}
);
width = 1200;
}
);
},
{
glyphname = j;
lastChange = "2022-05-06 15:57:35 +0000";
layers = (
{
layerId = "0D9D1AFE-BAFC-449A-A530-9FCA9CDF2E2E";
paths = (
{
closed = 1;
nodes = (
"561 -462 OFFCURVE",
"678 -339 OFFCURVE",
"707 -120 CURVE SMOOTH",
"867 1091 LINE",
"746 1091 LINE",
"737 1029 LINE",
"799 975 LINE",
"752 964 OFFCURVE",
"724 926 OFFCURVE",
"715 860 CURVE SMOOTH",
"588 -99 LINE SMOOTH",
"565 -276 OFFCURVE",
"474 -340 OFFCURVE",
"336 -340 CURVE SMOOTH",
"234 -340 OFFCURVE",
"131 -323 OFFCURVE",
"42 -284 CURVE",
"25 -412 LINE",
"112 -447 OFFCURVE",
"238 -462 OFFCURVE",
"315 -462 CURVE SMOOTH"
);
},
{
closed = 1;
nodes = (
"813 975 LINE",
"867 1091 LINE",
"350 1091 LINE",
"334 975 LINE"
);
},
{
closed = 1;
nodes = (
"904 1299 OFFCURVE",
"963 1363 OFFCURVE",
"964 1440 CURVE SMOOTH",
"964 1502 OFFCURVE",
"922 1544 OFFCURVE",
"863 1544 CURVE SMOOTH",
"790 1544 OFFCURVE",
"730 1481 OFFCURVE",
"730 1404 CURVE SMOOTH",
"729 1342 OFFCURVE",
"771 1299 OFFCURVE",
"831 1299 CURVE SMOOTH"
);
}
);
width = 1200;
},
{
layerId = "09AB1441-CF14-483D-884E-606841830E4D";
paths = (
{
closed = 1;
nodes = (
"623 -462 OFFCURVE",
"750 -300 OFFCURVE",
"780 -70 CURVE SMOOTH",
"934 1092 LINE",
"688 1092 LINE",
"674 990 LINE",
"761 891 LINE",
"691 885 OFFCURVE",
"655 828 OFFCURVE",
"639 705 CURVE SMOOTH",
"535 -83 LINE SMOOTH",
"517 -221 OFFCURVE",
"459 -256 OFFCURVE",
"335 -256 CURVE SMOOTH",
"218 -256 OFFCURVE",
"128 -235 OFFCURVE",
"54 -207 CURVE",
"27 -412 LINE",
"103 -447 OFFCURVE",
"204 -462 OFFCURVE",
"334 -462 CURVE SMOOTH"
);
},
{
closed = 1;
nodes = (
"867 891 LINE",
"934 1092 LINE",
"290 1092 LINE",
"263 891 LINE"
);
},
{
closed = 1;
nodes = (
"934 1274 OFFCURVE",
"1018 1359 OFFCURVE",
"1019 1466 CURVE SMOOTH",
"1020 1555 OFFCURVE",
"958 1612 OFFCURVE",
"876 1612 CURVE SMOOTH",
"772 1612 OFFCURVE",
"688 1525 OFFCURVE",
"687 1417 CURVE SMOOTH",
"687 1331 OFFCURVE",
"747 1274 OFFCURVE",
"831 1274 CURVE SMOOTH"
);
}
);
width = 1200;
},
{
layerId = "BF6BC6F6-4B2A-4E9B-9E28-8B62B2F12FD9";
paths = (
{
closed = 1;
nodes = (
"645 -446 OFFCURVE",
"767 -271 OFFCURVE",
"806 23 CURVE SMOOTH",
"946 1092 LINE",
"628 1021 LINE",
"614 912 LINE",
"704 844 LINE",
"640 833 OFFCURVE",
"596 772 OFFCURVE",
"584 684 CURVE SMOOTH",
"493 -2 LINE SMOOTH",
"472 -163 OFFCURVE",
"411 -189 OFFCURVE",
"288 -189 CURVE SMOOTH",
"197 -189 OFFCURVE",
"94 -168 OFFCURVE",
"47 -154 CURVE",
"14 -405 LINE",
"75 -424 OFFCURVE",
"166 -446 OFFCURVE",
"323 -446 CURVE SMOOTH"
);
},
{
closed = 1;
nodes = (
"858 844 LINE",
"946 1092 LINE",
"272 1092 LINE",
"239 844 LINE"
);
},
{
closed = 1;
nodes = (
"930 1280 OFFCURVE",
"1029 1382 OFFCURVE",
"1030 1511 CURVE SMOOTH",
"1031 1618 OFFCURVE",
"957 1682 OFFCURVE",
"857 1682 CURVE SMOOTH",
"732 1682 OFFCURVE",
"633 1581 OFFCURVE",
"632 1450 CURVE SMOOTH",
"631 1345 OFFCURVE",
"705 1280 OFFCURVE",
"805 1280 CURVE SMOOTH"
);
}
);
width = 1200;
},
{
layerId = "099DAB3F-15EF-4A0D-A0EC-988B8C582406";
paths = (
{
closed = 1;
nodes = (
"600 -462 OFFCURVE",
"723 -315 OFFCURVE",
"753 -89 CURVE SMOOTH",
"909 1092 LINE",
"710 1092 LINE",
"698 1005 LINE",
"775 923 LINE",
"714 915 OFFCURVE",
"681 865 OFFCURVE",
"668 763 CURVE SMOOTH",
"555 -89 LINE SMOOTH",
"535 -242 OFFCURVE",
"465 -288 OFFCURVE",
"335 -288 CURVE SMOOTH",
"224 -288 OFFCURVE",
"129 -268 OFFCURVE",
"50 -236 CURVE",
"26 -412 LINE",
"106 -447 OFFCURVE",
"217 -462 OFFCURVE",
"327 -462 CURVE SMOOTH"
);
},
{
closed = 1;
nodes = (
"847 923 LINE",
"909 1092 LINE",
"313 1092 LINE",
"290 923 LINE"
);
},
{
closed = 1;
nodes = (
"923 1283 OFFCURVE",
"997 1361 OFFCURVE",
"998 1456 CURVE SMOOTH",
"999 1535 OFFCURVE",
"945 1587 OFFCURVE",
"871 1587 CURVE SMOOTH",
"779 1587 OFFCURVE",
"704 1509 OFFCURVE",
"703 1412 CURVE SMOOTH",
"703 1335 OFFCURVE",
"756 1283 OFFCURVE",
"831 1283 CURVE SMOOTH"
);
}
);
width = 1200;
}
);
unicode = 006A;
userData = {
KernOnName = j;
};
},
{
glyphname = jdotless;
lastChange = "2022-05-06 15:57:35 +0000";
layers = (
{
anchors = (
{
name = bottom;
position = "{315, -462}";
},
{
name = top;
position = "{804, 1091}";
}
);
layerId = "0D9D1AFE-BAFC-449A-A530-9FCA9CDF2E2E";
paths = (
{
closed = 1;
nodes = (
"561 -462 OFFCURVE",
"678 -339 OFFCURVE",
"707 -120 CURVE SMOOTH",
"867 1091 LINE",
"746 1091 LINE",
"737 1029 LINE",
"799 975 LINE",
"752 964 OFFCURVE",
"724 926 OFFCURVE",
"715 860 CURVE SMOOTH",
"588 -99 LINE SMOOTH",
"565 -276 OFFCURVE",
"474 -340 OFFCURVE",
"336 -340 CURVE SMOOTH",
"234 -340 OFFCURVE",
"131 -323 OFFCURVE",
"42 -284 CURVE",
"25 -412 LINE",
"112 -447 OFFCURVE",
"238 -462 OFFCURVE",
"315 -462 CURVE SMOOTH"
);
},
{
closed = 1;
nodes = (
"813 975 LINE",
"867 1091 LINE",
"350 1091 LINE",
"334 975 LINE"
);
}
);
width = 1200;
},
{
anchors = (
{
name = bottom;
position = "{334, -462}";
},
{
name = top;
position = "{834, 1091}";
}
);
layerId = "09AB1441-CF14-483D-884E-606841830E4D";
paths = (
{
closed = 1;
nodes = (
"623 -462 OFFCURVE",
"750 -300 OFFCURVE",
"780 -70 CURVE SMOOTH",
"934 1092 LINE",
"688 1092 LINE",
"674 990 LINE",
"761 891 LINE",
"691 885 OFFCURVE",
"655 828 OFFCURVE",
"639 705 CURVE SMOOTH",
"535 -83 LINE SMOOTH",
"517 -221 OFFCURVE",
"459 -256 OFFCURVE",
"335 -256 CURVE SMOOTH",
"218 -256 OFFCURVE",
"128 -235 OFFCURVE",
"54 -207 CURVE",
"27 -412 LINE",
"103 -447 OFFCURVE",
"204 -462 OFFCURVE",
"334 -462 CURVE SMOOTH"
);
},
{
closed = 1;
nodes = (
"867 891 LINE",
"934 1092 LINE",
"290 1092 LINE",
"263 891 LINE"
);
}
);
width = 1200;
},
{
anchors = (
{
name = bottom;
position = "{323, -462}";
},
{
name = top;
position = "{791, 1091}";
}
);
layerId = "BF6BC6F6-4B2A-4E9B-9E28-8B62B2F12FD9";
paths = (
{
closed = 1;
nodes = (
"645 -446 OFFCURVE",
"767 -271 OFFCURVE",
"806 23 CURVE SMOOTH",
"946 1092 LINE",
"628 1021 LINE",
"614 912 LINE",
"704 844 LINE",
"640 833 OFFCURVE",
"596 772 OFFCURVE",
"584 684 CURVE SMOOTH",
"493 -2 LINE SMOOTH",
"472 -163 OFFCURVE",
"411 -189 OFFCURVE",
"288 -189 CURVE SMOOTH",
"197 -189 OFFCURVE",
"94 -168 OFFCURVE",
"47 -154 CURVE",
"14 -405 LINE",
"75 -424 OFFCURVE",
"166 -446 OFFCURVE",
"323 -446 CURVE SMOOTH"
);
},
{
closed = 1;
nodes = (
"858 844 LINE",
"946 1092 LINE",
"272 1092 LINE",
"239 844 LINE"
);
}
);
width = 1200;
},
{
anchors = (
{
name = bottom;
position = "{327, -462}";
},
{
name = top;
position = "{823, 1091}";
}
);
layerId = "099DAB3F-15EF-4A0D-A0EC-988B8C582406";
paths = (
{
closed = 1;
nodes = (
"600 -462 OFFCURVE",
"723 -315 OFFCURVE",
"753 -89 CURVE SMOOTH",
"909 1092 LINE",
"710 1092 LINE",
"698 1005 LINE",
"775 923 LINE",
"714 915 OFFCURVE",
"681 865 OFFCURVE",
"668 763 CURVE SMOOTH",
"555 -89 LINE SMOOTH",
"535 -242 OFFCURVE",
"465 -288 OFFCURVE",
"335 -288 CURVE SMOOTH",
"224 -288 OFFCURVE",
"129 -268 OFFCURVE",
"50 -236 CURVE",
"26 -412 LINE",
"106 -447 OFFCURVE",
"217 -462 OFFCURVE",
"327 -462 CURVE SMOOTH"
);
},
{
closed = 1;
nodes = (
"847 923 LINE",
"909 1092 LINE",
"313 1092 LINE",
"290 923 LINE"
);
}
);
width = 1200;
}
);
unicode = 0237;
},
{
glyphname = k;
lastChange = "2022-05-06 15:57:35 +0000";
layers = (
{
anchors = (
{
name = bottom;
position = "{637, 0}";
},
{
name = top;
position = "{782, 1586}";
}
);
layerId = "0D9D1AFE-BAFC-449A-A530-9FCA9CDF2E2E";
paths = (
{
closed = 1;
nodes = (
"1067 0 LINE",
"622 508 LINE",
"509 617 LINE",
"397 595 LINE",
"918 0 LINE"
);
},
{
closed = 1;
nodes = (
"334 0 LINE",
"388 438 LINE",
"401 590 LINE",
"402 598 LINE",
"425 744 LINE",
"525 1556 LINE",
"404 1556 LINE",
"213 0 LINE"
);
},
{
closed = 1;
nodes = (
"680 704 LINE",
"1139 1091 LINE",
"964 1091 LINE",
"715 872 LINE",
"397 595 LINE",
"503 569 LINE"
);
}
);
width = 1200;
},
{
anchors = (
{
name = bottom;
position = "{613, 0}";
},
{
name = top;
position = "{778, 1586}";
}
);
layerId = "09AB1441-CF14-483D-884E-606841830E4D";
paths = (
{
closed = 1;
nodes = (
"1091 0 LINE",
"728 508 LINE",
"629 625 LINE",
"416 595 LINE",
"794 0 LINE"
);
},
{
closed = 1;
nodes = (
"362 0 LINE",
"416 438 LINE",
"420 590 LINE",
"421 598 LINE",
"453 744 LINE",
"553 1556 LINE",
"327 1556 LINE",
"136 0 LINE"
);
},
{
closed = 1;
nodes = (
"750 684 LINE",
"1167 1091 LINE",
"861 1091 LINE",
"649 852 LINE",
"416 595 LINE",
"622 562 LINE"
);
}
);
width = 1200;
},
{
anchors = (
{
name = bottom;
position = "{608, 0}";
},
{
name = top;
position = "{773, 1586}";
}
);
layerId = "BF6BC6F6-4B2A-4E9B-9E28-8B62B2F12FD9";
paths = (
{
closed = 1;
nodes = (
"1128 0 LINE",
"844 508 LINE",
"731 633 LINE",
"469 595 LINE",
"753 0 LINE"
);
},
{
closed = 1;
nodes = (
"419 0 LINE",
"470 415 LINE",
"473 590 LINE",
"474 598 LINE",
"513 767 LINE",
"611 1561 LINE",
"307 1561 LINE",
"115 0 LINE"
);
},
{
closed = 1;
nodes = (
"860 672 LINE",
"1232 1091 LINE",
"846 1091 LINE",
"660 829 LINE",
"469 595 LINE",
"722 562 LINE"
);
}
);
width = 1200;
},
{
anchors = (
{
name = bottom;
position = "{622, 0}";
},
{
name = top;
position = "{780, 1586}";
}
);
layerId = "099DAB3F-15EF-4A0D-A0EC-988B8C582406";
paths = (
{
closed = 1;
nodes = (
"1082 0 LINE",
"688 508 LINE",
"584 622 LINE",
"409 595 LINE",
"841 0 LINE"
);
},
{
closed = 1;
nodes = (
"352 0 LINE",
"406 438 LINE",
"413 590 LINE",
"414 598 LINE",
"443 744 LINE",
"543 1556 LINE",
"356 1556 LINE",
"165 0 LINE"
);
},
{
closed = 1;
nodes = (
"724 692 LINE",
"1157 1091 LINE",
"900 1091 LINE",
"674 860 LINE",
"409 595 LINE",
"577 565 LINE"
);
}
);
width = 1200;
}
);
unicode = 006B;
userData = {
KernOnName = k;
};
},
{
glyphname = l;
lastChange = "2022-05-06 15:57:35 +0000";
layers = (
{
anchors = (
{
name = bottom;
position = "{564, 0}";
},
{
name = center;
position = "{702, 793}";
},
{
name = top;
position = "{745, 1536}";
},
{
name = topright;
position = "{878, 1091}";
}
);
layerId = "0D9D1AFE-BAFC-449A-A530-9FCA9CDF2E2E";
paths = (
{
closed = 1;
nodes = (
"616 0 LINE",
"815 1530 LINE",
"682 1530 LINE",
"674 1466 LINE",
"745 1440 LINE",
"697 1432 OFFCURVE",
"670 1390 OFFCURVE",
"661 1317 CURVE SMOOTH",
"491 0 LINE"
);
},
{
closed = 1;
nodes = (
"999 0 LINE",
"1013 116 LINE",
"133 116 LINE",
"119 0 LINE"
);
},
{
closed = 1;
nodes = (
"804 1440 LINE",
"818 1556 LINE",
"229 1556 LINE",
"213 1440 LINE"
);
}
);
width = 1200;
},
{
anchors = (
{
name = bottom;
position = "{592, 0}";
},
{
name = center;
position = "{707, 793}";
},
{
name = top;
position = "{784, 1536}";
},
{
name = topright;
position = "{919, 1091}";
}
);
layerId = "09AB1441-CF14-483D-884E-606841830E4D";
paths = (
{
closed = 1;
nodes = (
"675 30 LINE",
"871 1555 LINE",
"654 1555 LINE",
"638 1427 LINE",
"700 1357 LINE",
"654 1352 OFFCURVE",
"625 1318 OFFCURVE",
"618 1263 CURVE SMOOTH",
"462 30 LINE"
);
},
{
closed = 1;
nodes = (
"991 0 LINE",
"1013 176 LINE",
"145 176 LINE",
"123 0 LINE"
);
},
{
closed = 1;
nodes = (
"807 1357 LINE",
"871 1555 LINE",
"242 1555 LINE",
"218 1357 LINE"
);
}
);
width = 1200;
},
{
anchors = (
{
name = bottom;
position = "{627, 0}";
},
{
name = center;
position = "{703, 843}";
},
{
name = top;
position = "{810, 1536}";
},
{
name = topright;
position = "{1024, 1091}";
}
);
layerId = "BF6BC6F6-4B2A-4E9B-9E28-8B62B2F12FD9";
paths = (
{
closed = 1;
nodes = (
"728 30 LINE",
"958 1561 LINE",
"641 1561 LINE",
"621 1413 LINE",
"692 1308 LINE",
"654 1301 OFFCURVE",
"605 1277 OFFCURVE",
"596 1214 CURVE SMOOTH",
"418 30 LINE"
);
},
{
closed = 1;
nodes = (
"1021 0 LINE",
"1050 228 LINE",
"142 228 LINE",
"113 0 LINE"
);
},
{
closed = 1;
nodes = (
"856 1315 LINE",
"958 1561 LINE",
"285 1561 LINE",
"253 1315 LINE"
);
}
);
width = 1200;
},
{
anchors = (
{
name = bottom;
position = "{582, 0}";
},
{
name = center;
position = "{705, 793}";
},
{
name = top;
position = "{769, 1536}";
},
{
name = topright;
position = "{904, 1091}";
}
);
layerId = "099DAB3F-15EF-4A0D-A0EC-988B8C582406";
paths = (
{
closed = 1;
nodes = (
"653 19 LINE",
"850 1546 LINE",
"665 1546 LINE",
"652 1442 LINE",
"717 1388 LINE",
"670 1382 OFFCURVE",
"642 1345 OFFCURVE",
"634 1283 CURVE SMOOTH",
"473 19 LINE"
);
},
{
closed = 1;
nodes = (
"994 0 LINE",
"1013 154 LINE",
"141 154 LINE",
"122 0 LINE"
);
},
{
closed = 1;
nodes = (
"806 1388 LINE",
"851 1555 LINE",
"237 1555 LINE",
"216 1388 LINE"
);
}
);
width = 1200;
}
);
unicode = 006C;
userData = {
KernOnName = l;
};
},
{
glyphname = m;
lastChange = "2022-05-06 15:57:35 +0000";
layers = (
{
anchors = (
{
name = bottom;
position = "{610, 0}";
},
{
name = top;
position = "{718, 1091}";
}
);
layerId = "0D9D1AFE-BAFC-449A-A530-9FCA9CDF2E2E";
paths = (
{
closed = 1;
nodes = (
"143 0 LINE",
"214 592 LINE",
"311 870 OFFCURVE",
"406 996 OFFCURVE",
"495 996 CURVE SMOOTH",
"581 996 OFFCURVE",
"592 924 OFFCURVE",
"569 737 CURVE SMOOTH",
"479 0 LINE",
"590 0 LINE",
"664 610 LINE",
"676 666 LINE",
"728 1001 OFFCURVE",
"683 1113 OFFCURVE",
"538 1113 CURVE SMOOTH",
"377 1113 OFFCURVE",
"255 930 OFFCURVE",
"190 557 CURVE",
"203 529 LINE",
"256 1092 LINE",
"153 1092 LINE",
"22 0 LINE"
);
},
{
closed = 1;
nodes = (
"1049 0 LINE",
"1144 793 LINE SMOOTH",
"1170 1006 OFFCURVE",
"1107 1113 OFFCURVE",
"984 1113 CURVE SMOOTH",
"833 1113 OFFCURVE",
"736 972 OFFCURVE",
"654 582 CURVE",
"662 592 LINE",
"756 881 OFFCURVE",
"858 996 OFFCURVE",
"939 996 CURVE SMOOTH",
"1020 996 OFFCURVE",
"1039 922 OFFCURVE",
"1019 758 CURVE SMOOTH",
"928 0 LINE"
);
}
);
width = 1200;
},
{
anchors = (
{
name = bottom;
position = "{629, 0}";
},
{
name = top;
position = "{744, 1091}";
}
);
layerId = "09AB1441-CF14-483D-884E-606841830E4D";
paths = (
{
closed = 1;
nodes = (
"196 0 LINE",
"265 569 LINE",
"322 762 OFFCURVE",
"400 906 OFFCURVE",
"484 906 CURVE SMOOTH",
"538 906 OFFCURVE",
"556 868 OFFCURVE",
"545 781 CURVE SMOOTH",
"446 0 LINE",
"637 0 LINE",
"715 611 LINE",
"707 575 LINE",
"768 894 OFFCURVE",
"735 1114 OFFCURVE",
"580 1114 CURVE SMOOTH",
"429 1114 OFFCURVE",
"310 904 OFFCURVE",
"251 594 CURVE",
"267 585 LINE",
"311 1091 LINE",
"137 1091 LINE",
"5 0 LINE"
);
},
{
closed = 1;
nodes = (
"1072 0 LINE",
"1171 779 LINE SMOOTH",
"1200 1006 OFFCURVE",
"1149 1114 OFFCURVE",
"1014 1114 CURVE SMOOTH",
"850 1114 OFFCURVE",
"743 889 OFFCURVE",
"704 563 CURVE",
"710 569 LINE",
"770 752 OFFCURVE",
"846 906 OFFCURVE",
"918 906 CURVE SMOOTH",
"970 906 OFFCURVE",
"991 865 OFFCURVE",
"980 781 CURVE SMOOTH",
"880 0 LINE"
);
}
);
width = 1200;
},
{
anchors = (
{
name = bottom;
position = "{584, 0}";
},
{
name = top;
position = "{699, 1091}";
}
);
layerId = "BF6BC6F6-4B2A-4E9B-9E28-8B62B2F12FD9";
paths = (
{
closed = 1;
nodes = (
"268 0 LINE",
"323 542 LINE",
"344 726 OFFCURVE",
"403 853 OFFCURVE",
"472 853 CURVE SMOOTH",
"528 853 OFFCURVE",
"535 811 OFFCURVE",
"527 737 CURVE SMOOTH",
"446 0 LINE",
"667 0 LINE",
"739 600 LINE",
"760 800 LINE",
"797 1007 OFFCURVE",
"752 1114 OFFCURVE",
"626 1114 CURVE SMOOTH",
"467 1114 OFFCURVE",
"358 962 OFFCURVE",
"319 640 CURVE",
"327 590 LINE",
"355 1092 LINE",
"123 1092 LINE",
"15 0 LINE"
);
},
{
closed = 1;
nodes = (
"1097 0 LINE",
"1184 838 LINE SMOOTH",
"1203 1021 OFFCURVE",
"1159 1114 OFFCURVE",
"1043 1114 CURVE SMOOTH",
"879 1114 OFFCURVE",
"769 932 OFFCURVE",
"729 597 CURVE",
"735 573 LINE",
"759 706 OFFCURVE",
"814 853 OFFCURVE",
"864 853 CURVE SMOOTH",
"920 853 OFFCURVE",
"927 811 OFFCURVE",
"919 737 CURVE SMOOTH",
"842 0 LINE"
);
}
);
width = 1200;
},
{
anchors = (
{
name = bottom;
position = "{622, 0}";
},
{
name = top;
position = "{734, 1091}";
}
);
layerId = "099DAB3F-15EF-4A0D-A0EC-988B8C582406";
paths = (
{
closed = 1;
nodes = (
"176 0 LINE",
"246 578 LINE",
"318 803 OFFCURVE",
"402 940 OFFCURVE",
"488 940 CURVE SMOOTH",
"554 940 OFFCURVE",
"570 889 OFFCURVE",
"554 765 CURVE SMOOTH",
"458 0 LINE",
"619 0 LINE",
"696 611 LINE",
"695 609 LINE",
"753 934 OFFCURVE",
"716 1114 OFFCURVE",
"564 1114 CURVE SMOOTH",
"410 1114 OFFCURVE",
"289 914 OFFCURVE",
"228 580 CURVE",
"243 564 LINE",
"290 1091 LINE",
"143 1091 LINE",
"11 0 LINE"
);
},
{
closed = 1;
nodes = (
"1063 0 LINE",
"1161 784 LINE SMOOTH",
"1189 1006 OFFCURVE",
"1133 1114 OFFCURVE",
"1003 1114 CURVE SMOOTH",
"844 1114 OFFCURVE",
"740 920 OFFCURVE",
"685 570 CURVE",
"692 578 LINE",
"765 800 OFFCURVE",
"851 940 OFFCURVE",
"926 940 CURVE SMOOTH",
"989 940 OFFCURVE",
"1009 886 OFFCURVE",
"995 772 CURVE SMOOTH",
"898 0 LINE"
);
}
);
width = 1200;
}
);
unicode = 006D;
userData = {
KernOnName = m;
};
},
{
glyphname = n;
lastChange = "2022-05-06 15:57:35 +0000";
layers = (
{
anchors = (
{
name = bottom;
position = "{560, 0}";
},
{
name = top;
position = "{693, 1091}";
}
);
layerId = "0D9D1AFE-BAFC-449A-A530-9FCA9CDF2E2E";
paths = (
{
closed = 1;
nodes = (
"271 0 LINE",
"336 587 LINE",
"432 910 OFFCURVE",
"569 996 OFFCURVE",
"708 996 CURVE SMOOTH",
"860 996 OFFCURVE",
"916 902 OFFCURVE",
"894 700 CURVE SMOOTH",
"818 0 LINE",
"943 0 LINE",
"1024 753 LINE SMOOTH",
"1049 983 OFFCURVE",
"937 1114 OFFCURVE",
"742 1114 CURVE SMOOTH",
"543 1114 OFFCURVE",
"364 936 OFFCURVE",
"314 564 CURVE",
"330 564 LINE",
"380 1092 LINE",
"266 1092 LINE",
"147 0 LINE"
);
}
);
width = 1200;
},
{
anchors = (
{
name = bottom;
position = "{572, 0}";
},
{
name = top;
position = "{687, 1091}";
}
);
layerId = "09AB1441-CF14-483D-884E-606841830E4D";
paths = (
{
closed = 1;
nodes = (
"346 0 LINE",
"414 631 LINE",
"462 785 OFFCURVE",
"569 906 OFFCURVE",
"689 906 CURVE SMOOTH",
"800 906 OFFCURVE",
"840 834 OFFCURVE",
"820 646 CURVE SMOOTH",
"750 0 LINE",
"976 0 LINE",
"1055 723 LINE SMOOTH",
"1083 980 OFFCURVE",
"989 1114 OFFCURVE",
"803 1114 CURVE SMOOTH",
"573 1114 OFFCURVE",
"446 912 OFFCURVE",
"390 631 CURVE",
"398 548 LINE",
"429 1094 LINE",
"237 1094 LINE",
"120 0 LINE"
);
}
);
width = 1200;
},
{
anchors = (
{
name = bottom;
position = "{578, 0}";
},
{
name = top;
position = "{698, 1091}";
}
);
layerId = "BF6BC6F6-4B2A-4E9B-9E28-8B62B2F12FD9";
paths = (
{
closed = 1;
nodes = (
"389 0 LINE",
"454 586 LINE",
"502 806 OFFCURVE",
"599 854 OFFCURVE",
"665 854 CURVE SMOOTH",
"746 854 OFFCURVE",
"782 807 OFFCURVE",
"766 657 CURVE SMOOTH",
"696 0 LINE",
"1004 0 LINE",
"1081 723 LINE SMOOTH",
"1107 971 OFFCURVE",
"1036 1114 OFFCURVE",
"838 1114 CURVE SMOOTH",
"648 1114 OFFCURVE",
"490 976 OFFCURVE",
"439 605 CURVE",
"442 542 LINE",
"478 1092 LINE",
"202 1092 LINE",
"81 0 LINE"
);
}
);
width = 1200;
},
{
anchors = (
{
name = bottom;
position = "{568, 0}";
},
{
name = top;
position = "{689, 1091}";
}
);
layerId = "099DAB3F-15EF-4A0D-A0EC-988B8C582406";
paths = (
{
closed = 1;
nodes = (
"318 0 LINE",
"385 615 LINE",
"451 832 OFFCURVE",
"569 940 OFFCURVE",
"696 940 CURVE SMOOTH",
"823 940 OFFCURVE",
"869 860 OFFCURVE",
"848 666 CURVE SMOOTH",
"776 0 LINE",
"964 0 LINE",
"1043 734 LINE SMOOTH",
"1070 981 OFFCURVE",
"970 1114 OFFCURVE",
"780 1114 CURVE SMOOTH",
"562 1114 OFFCURVE",
"415 921 OFFCURVE",
"362 606 CURVE",
"373 554 LINE",
"411 1093 LINE",
"248 1093 LINE",
"130 0 LINE"
);
}
);
width = 1200;
}
);
unicode = 006E;
userData = {
KernOnName = n;
};
},
{
glyphname = eng;
lastChange = "2022-05-06 15:57:35 +0000";
layers = (
{
layerId = "0D9D1AFE-BAFC-449A-A530-9FCA9CDF2E2E";
paths = (
{
closed = 1;
nodes = (
"814 -462 OFFCURVE",
"901 -362 OFFCURVE",
"928 -120 CURVE SMOOTH",
"1024 753 LINE SMOOTH",
"1049 983 OFFCURVE",
"934 1114 OFFCURVE",
"750 1114 CURVE SMOOTH",
"561 1114 OFFCURVE",
"417 977 OFFCURVE",
"344 717 CURVE",
"380 1092 LINE",
"266 1092 LINE",
"147 0 LINE",
"271 0 LINE",
"336 587 LINE",
"432 910 OFFCURVE",
"568 996 OFFCURVE",
"711 996 CURVE SMOOTH",
"860 996 OFFCURVE",
"916 902 OFFCURVE",
"894 700 CURVE SMOOTH",
"806 -99 LINE SMOOTH",
"786 -283 OFFCURVE",
"739 -335 OFFCURVE",
"645 -335 CURVE SMOOTH",
"595 -335 OFFCURVE",
"530 -321 OFFCURVE",
"484 -284 CURVE",
"468 -412 LINE",
"506 -444 OFFCURVE",
"570 -462 OFFCURVE",
"643 -462 CURVE SMOOTH"
);
}
);
width = 1200;
},
{
layerId = "09AB1441-CF14-483D-884E-606841830E4D";
paths = (
{
closed = 1;
nodes = (
"833 -462 OFFCURVE",
"932 -354 OFFCURVE",
"958 -124 CURVE SMOOTH",
"1053 723 LINE SMOOTH",
"1081 973 OFFCURVE",
"992 1114 OFFCURVE",
"801 1114 CURVE SMOOTH",
"592 1114 OFFCURVE",
"468 947 OFFCURVE",
"405 705 CURVE",
"427 1094 LINE",
"235 1094 LINE",
"118 0 LINE",
"344 0 LINE",
"412 631 LINE",
"463 790 OFFCURVE",
"565 906 OFFCURVE",
"694 906 CURVE SMOOTH",
"794 906 OFFCURVE",
"839 834 OFFCURVE",
"818 646 CURVE SMOOTH",
"733 -120 LINE SMOOTH",
"722 -214 OFFCURVE",
"699 -244 OFFCURVE",
"638 -244 CURVE SMOOTH",
"586 -244 OFFCURVE",
"531 -230 OFFCURVE",
"492 -207 CURVE",
"465 -419 LINE",
"508 -447 OFFCURVE",
"571 -462 OFFCURVE",
"646 -462 CURVE SMOOTH"
);
}
);
width = 1200;
},
{
layerId = "BF6BC6F6-4B2A-4E9B-9E28-8B62B2F12FD9";
paths = (
{
closed = 1;
nodes = (
"877 -446 OFFCURVE",
"969 -280 OFFCURVE",
"1000 0 CURVE SMOOTH",
"1080 723 LINE SMOOTH",
"1106 962 OFFCURVE",
"1040 1114 OFFCURVE",
"839 1114 CURVE SMOOTH",
"660 1114 OFFCURVE",
"511 994 OFFCURVE",
"450 678 CURVE",
"477 1092 LINE",
"201 1092 LINE",
"80 0 LINE",
"388 0 LINE",
"453 586 LINE",
"499 794 OFFCURVE",
"586 854 OFFCURVE",
"669 854 CURVE SMOOTH",
"741 854 OFFCURVE",
"782 809 OFFCURVE",
"765 657 CURVE SMOOTH",
"692 -7 LINE SMOOTH",
"674 -166 OFFCURVE",
"643 -188 OFFCURVE",
"587 -188 CURVE SMOOTH",
"536 -188 OFFCURVE",
"496 -169 OFFCURVE",
"468 -154 CURVE",
"437 -405 LINE",
"472 -422 OFFCURVE",
"524 -446 OFFCURVE",
"621 -446 CURVE SMOOTH"
);
}
);
width = 1200;
},
{
layerId = "099DAB3F-15EF-4A0D-A0EC-988B8C582406";
paths = (
{
closed = 1;
nodes = (
"826 -462 OFFCURVE",
"920 -357 OFFCURVE",
"947 -123 CURVE SMOOTH",
"1042 734 LINE SMOOTH",
"1069 977 OFFCURVE",
"970 1114 OFFCURVE",
"782 1114 CURVE SMOOTH",
"580 1114 OFFCURVE",
"449 958 OFFCURVE",
"382 710 CURVE",
"409 1093 LINE",
"247 1093 LINE",
"129 0 LINE",
"317 0 LINE",
"384 615 LINE",
"451 835 OFFCURVE",
"566 940 OFFCURVE",
"700 940 CURVE SMOOTH",
"819 940 OFFCURVE",
"868 860 OFFCURVE",
"847 666 CURVE SMOOTH",
"760 -112 LINE SMOOTH",
"746 -240 OFFCURVE",
"714 -278 OFFCURVE",
"641 -278 CURVE SMOOTH",
"589 -278 OFFCURVE",
"531 -264 OFFCURVE",
"489 -236 CURVE",
"466 -416 LINE",
"507 -446 OFFCURVE",
"571 -462 OFFCURVE",
"645 -462 CURVE SMOOTH"
);
}
);
width = 1200;
}
);
unicode = 014B;
},
{
glyphname = o;
lastChange = "2022-05-06 15:57:35 +0000";
layers = (
{
anchors = (
{
name = bottom;
position = "{524, 0}";
},
{
name = center;
position = "{598, 546}";
},
{
name = ogonek;
position = "{671, 10}";
},
{
name = top;
position = "{715, 1091}";
},
{
name = topright;
position = "{1245, 1091}";
}
);
layerId = "0D9D1AFE-BAFC-449A-A530-9FCA9CDF2E2E";
paths = (
{
closed = 1;
nodes = (
"852 -15 OFFCURVE",
"1077 260 OFFCURVE",
"1077 639 CURVE SMOOTH",
"1077 938 OFFCURVE",
"898 1112 OFFCURVE",
"663 1112 CURVE SMOOTH",
"352 1112 OFFCURVE",
"123 834 OFFCURVE",
"123 460 CURVE SMOOTH",
"123 157 OFFCURVE",
"303 -15 OFFCURVE",
"536 -15 CURVE SMOOTH"
);
},
{
closed = 1;
nodes = (
"364 100 OFFCURVE",
"252 235 OFFCURVE",
"252 469 CURVE SMOOTH",
"252 777 OFFCURVE",
"421 998 OFFCURVE",
"651 998 CURVE SMOOTH",
"834 998 OFFCURVE",
"947 867 OFFCURVE",
"947 633 CURVE SMOOTH",
"947 320 OFFCURVE",
"779 100 OFFCURVE",
"549 100 CURVE SMOOTH"
);
}
);
width = 1200;
},
{
anchors = (
{
name = bottom;
position = "{518, 0}";
},
{
name = center;
position = "{598, 546}";
},
{
name = ogonek;
position = "{668, 10}";
},
{
name = top;
position = "{715, 1091}";
},
{
name = topright;
position = "{1295, 1091}";
}
);
layerId = "09AB1441-CF14-483D-884E-606841830E4D";
paths = (
{
closed = 1;
nodes = (
"851 -15 OFFCURVE",
"1083 259 OFFCURVE",
"1083 647 CURVE SMOOTH",
"1083 943 OFFCURVE",
"924 1113 OFFCURVE",
"661 1113 CURVE SMOOTH",
"349 1113 OFFCURVE",
"117 836 OFFCURVE",
"117 451 CURVE SMOOTH",
"117 146 OFFCURVE",
"281 -15 OFFCURVE",
"538 -15 CURVE SMOOTH"
);
},
{
closed = 1;
nodes = (
"425 178 OFFCURVE",
"336 275 OFFCURVE",
"336 470 CURVE SMOOTH",
"336 742 OFFCURVE",
"464 920 OFFCURVE",
"642 920 CURVE SMOOTH",
"779 920 OFFCURVE",
"864 823 OFFCURVE",
"864 634 CURVE SMOOTH",
"864 357 OFFCURVE",
"738 178 OFFCURVE",
"557 178 CURVE SMOOTH"
);
}
);
width = 1200;
},
{
anchors = (
{
name = bottom;
position = "{528, 0}";
},
{
name = center;
position = "{598, 546}";
},
{
name = ogonek;
position = "{676, 10}";
},
{
name = top;
position = "{715, 1091}";
},
{
name = topright;
position = "{1233, 1091}";
}
);
layerId = "BF6BC6F6-4B2A-4E9B-9E28-8B62B2F12FD9";
paths = (
{
closed = 1;
nodes = (
"871 -15 OFFCURVE",
"1106 256 OFFCURVE",
"1106 640 CURVE SMOOTH",
"1106 930 OFFCURVE",
"944 1113 OFFCURVE",
"668 1113 CURVE SMOOTH",
"332 1113 OFFCURVE",
"95 840 OFFCURVE",
"95 456 CURVE SMOOTH",
"95 164 OFFCURVE",
"261 -15 OFFCURVE",
"534 -15 CURVE SMOOTH"
);
},
{
closed = 1;
nodes = (
"465 230 OFFCURVE",
"394 298 OFFCURVE",
"394 475 CURVE SMOOTH",
"394 713 OFFCURVE",
"491 866 OFFCURVE",
"636 866 CURVE SMOOTH",
"735 866 OFFCURVE",
"807 798 OFFCURVE",
"807 630 CURVE SMOOTH",
"807 390 OFFCURVE",
"708 230 OFFCURVE",
"566 230 CURVE SMOOTH"
);
}
);
width = 1200;
},
{
anchors = (
{
name = bottom;
position = "{520, 0}";
},
{
name = center;
position = "{598, 546}";
},
{
name = ogonek;
position = "{669, 10}";
},
{
name = top;
position = "{715, 1091}";
},
{
name = topright;
position = "{1276, 1091}";
}
);
layerId = "099DAB3F-15EF-4A0D-A0EC-988B8C582406";
paths = (
{
closed = 1;
nodes = (
"851 -15 OFFCURVE",
"1081 259 OFFCURVE",
"1081 644 CURVE SMOOTH",
"1081 941 OFFCURVE",
"914 1113 OFFCURVE",
"662 1113 CURVE SMOOTH",
"350 1113 OFFCURVE",
"119 835 OFFCURVE",
"119 454 CURVE SMOOTH",
"119 150 OFFCURVE",
"289 -15 OFFCURVE",
"537 -15 CURVE SMOOTH"
);
},
{
closed = 1;
nodes = (
"402 149 OFFCURVE",
"305 260 OFFCURVE",
"305 470 CURVE SMOOTH",
"305 755 OFFCURVE",
"448 949 OFFCURVE",
"645 949 CURVE SMOOTH",
"800 949 OFFCURVE",
"895 840 OFFCURVE",
"895 634 CURVE SMOOTH",
"895 343 OFFCURVE",
"753 149 OFFCURVE",
"554 149 CURVE SMOOTH"
);
}
);
width = 1200;
}
);
unicode = 006F;
userData = {
KernOnName = o;
};
},
